<?xml version="1.0" encoding="UTF-8" standalone="no"?>
<!DOCTYPE svg PUBLIC "-//W3C//DTD SVG 1.1//EN" "http://www.w3.org/Graphics/SVG/1.1/DTD/svg11.dtd">
<svg version="1.1" xmlns="http://www.w3.org/2000/svg" xmlns:xlink="http://www.w3.org/1999/xlink" preserveAspectRatio="xMidYMid meet" viewBox="0 0 640 640" width="640" height="640"><defs><path d="M541.29 4.02L542.79 4.16L544.28 4.37L545.76 4.62L547.24 4.94L548.7 5.31L550.15 5.74L551.59 6.23L553.01 6.77L554.42 7.37L555.8 8.03L557.16 8.74L558.5 9.52L559.82 10.35L561.1 11.23L562.36 12.18L563.59 13.18L564.79 14.24L565.95 15.36L621.15 70.56L622.27 71.72L623.33 72.91L624.33 74.14L625.27 75.4L626.16 76.69L626.99 78L627.76 79.34L628.48 80.7L629.14 82.09L629.74 83.49L630.28 84.91L630.77 86.35L631.2 87.8L631.57 89.26L631.89 90.74L632.15 92.22L632.35 93.71L632.5 95.2L632.58 96.7L632.61 98.2L632.59 99.7L632.5 101.2L632.36 102.69L632.17 104.18L631.91 105.66L631.6 107.13L631.23 108.59L630.81 110.04L630.33 111.47L629.79 112.89L629.19 114.29L628.54 115.66L627.83 117.02L627.06 118.35L626.24 119.66L625.36 120.94L624.42 122.19L623.43 123.41L622.38 124.6L621.27 125.76L538.35 208.68L537.19 209.79L535.99 210.85L534.76 211.85L533.5 212.8L532.22 213.69L530.9 214.52L529.56 215.29L528.2 216L526.82 216.66L525.41 217.26L523.99 217.81L522.55 218.29L521.1 218.72L519.64 219.1L518.16 219.41L516.68 219.67L515.19 219.87L513.69 220.01L512.19 220.1L510.69 220.13L509.19 220.1L507.69 220.01L506.19 219.87L504.7 219.67L503.22 219.41L501.74 219.1L500.28 218.72L498.83 218.29L497.39 217.81L495.97 217.26L494.56 216.66L493.18 216L491.82 215.29L490.48 214.52L489.16 213.69L487.88 212.8L486.62 211.85L485.39 210.85L484.19 209.79L483.03 208.68L416.84 274.87L419.42 279.05L421.87 283.27L424.18 287.52L426.36 291.81L428.41 296.13L430.32 300.48L432.1 304.85L433.74 309.23L435.24 313.63L436.61 318.05L437.84 322.47L438.93 326.89L439.89 331.32L440.71 335.74L441.38 340.16L441.92 344.57L442.32 348.96L442.58 353.33L442.69 357.69L442.67 362.02L442.5 366.32L442.19 370.59L441.74 374.82L441.14 379.02L440.4 383.17L439.52 387.28L438.49 391.33L437.31 395.34L435.99 399.28L434.53 403.17L432.91 406.99L431.15 410.75L429.24 414.43L427.19 418.04L424.98 421.56L422.63 425.01L420.12 428.37L417.47 431.64L414.67 434.82L411.71 437.9L410.82 438.78L409.92 439.65L409.01 440.5L408.09 441.35L407.17 442.17L406.23 442.99L405.29 443.79L404.34 444.57L403.39 445.35L402.42 446.11L401.45 446.85L400.47 447.59L399.49 448.31L398.49 449.01L397.49 449.71L396.49 450.39L395.47 451.06L394.45 451.71L393.42 452.35L392.38 452.98L391.34 453.6L390.29 454.2L389.23 454.79L388.17 455.37L387.1 455.94L386.02 456.49L384.94 457.03L383.85 457.56L382.76 458.08L381.66 458.58L380.55 459.07L379.43 459.55L378.31 460.01L377.19 460.47L376.06 460.91L374.92 461.34L373.77 461.76L372.63 462.16L371.47 462.55L370.31 462.94L368.6 463.52L366.91 464.16L365.24 464.84L363.6 465.58L361.98 466.36L360.38 467.19L358.81 468.06L357.27 468.98L355.76 469.94L354.27 470.95L352.82 471.99L351.39 473.08L350 474.2L348.64 475.36L347.31 476.56L346.02 477.79L344.76 479.06L343.54 480.36L342.36 481.69L341.21 483.06L340.11 484.45L339.04 485.87L338.01 487.32L337.03 488.8L336.09 490.3L335.19 491.82L334.33 493.37L333.53 494.94L332.76 496.53L332.05 498.14L331.38 499.77L330.76 501.42L330.19 503.08L329.68 504.76L329.21 506.45L328.8 508.16L328.44 509.87L328.13 511.6L327.88 513.34L327.69 515.08L327.46 517.29L327.2 519.48L326.91 521.67L326.59 523.84L326.23 526.01L325.84 528.16L325.42 530.31L324.97 532.44L324.48 534.57L323.96 536.68L323.41 538.78L322.82 540.87L322.2 542.94L321.55 545L320.86 547.05L320.14 549.08L319.39 551.1L318.6 553.1L317.78 555.09L316.93 557.06L316.04 559.02L315.11 560.96L314.16 562.88L313.16 564.79L312.14 566.68L311.07 568.55L309.98 570.4L308.85 572.23L307.68 574.05L306.48 575.84L305.24 577.62L303.97 579.37L302.66 581.11L301.32 582.82L299.94 584.51L298.53 586.18L297.08 587.83L295.6 589.45L294.07 591.05L292.52 592.63L288.21 596.73L283.74 600.58L279.12 604.18L274.35 607.54L269.45 610.65L264.4 613.51L259.24 616.14L253.95 618.51L248.56 620.65L243.06 622.54L237.47 624.19L231.78 625.6L226.02 626.77L220.18 627.7L214.27 628.4L208.31 628.85L202.29 629.07L196.23 629.05L190.13 628.8L184 628.31L177.84 627.58L171.67 626.62L165.49 625.43L159.31 624.01L153.14 622.36L146.98 620.47L140.84 618.36L134.73 616.02L128.65 613.45L122.62 610.65L116.64 607.62L110.71 604.37L104.85 600.89L99.06 597.18L93.34 593.26L87.72 589.11L82.19 584.73L76.75 580.14L71.43 575.32L66.22 570.28L61.19 565.07L56.37 559.75L51.77 554.32L47.4 548.79L43.24 543.16L39.31 537.45L35.61 531.66L32.13 525.8L28.87 519.87L25.84 513.89L23.04 507.85L20.47 501.78L18.12 495.66L16 489.53L14.12 483.36L12.46 477.19L11.03 471.01L9.84 464.83L8.88 458.66L8.15 452.51L7.66 446.38L7.41 440.28L7.39 434.22L7.6 428.2L8.06 422.23L8.75 416.33L9.68 410.49L10.85 404.72L12.26 399.04L13.91 393.45L15.81 387.95L17.95 382.55L20.33 377.27L22.95 372.1L25.82 367.06L28.94 362.15L32.3 357.38L35.91 352.76L39.77 348.29L43.88 343.99L45.45 342.43L47.05 340.91L48.68 339.42L50.33 337.98L52 336.56L53.69 335.18L55.4 333.84L57.13 332.53L58.89 331.26L60.66 330.03L62.46 328.83L64.27 327.66L66.1 326.53L67.95 325.43L69.82 324.37L71.71 323.34L73.61 322.35L75.54 321.39L77.47 320.47L79.43 319.58L81.4 318.72L83.38 317.9L85.38 317.12L87.4 316.36L89.43 315.64L91.47 314.96L93.53 314.3L95.6 313.68L97.68 313.1L99.78 312.54L101.88 312.02L104 311.54L106.13 311.08L108.27 310.66L110.42 310.27L112.57 309.92L114.74 309.59L116.92 309.3L119.11 309.04L121.3 308.82L123.06 308.62L124.8 308.37L126.53 308.07L128.26 307.71L129.97 307.3L131.67 306.83L133.35 306.31L135.01 305.74L136.66 305.13L138.29 304.46L139.91 303.74L141.5 302.98L143.07 302.17L144.62 301.32L146.14 300.42L147.64 299.48L149.12 298.49L150.56 297.47L151.98 296.4L153.37 295.29L154.73 294.15L156.06 292.96L157.36 291.74L158.63 290.48L159.86 289.19L161.05 287.87L162.21 286.5L163.33 285.11L164.41 283.69L165.45 282.23L166.46 280.75L167.41 279.23L168.33 277.69L169.2 276.12L170.03 274.53L170.81 272.91L171.54 271.27L172.23 269.6L172.86 267.91L173.45 266.2L173.83 265.04L174.22 263.88L174.63 262.73L175.05 261.59L175.48 260.45L175.92 259.32L176.37 258.19L176.84 257.07L177.32 255.96L177.81 254.85L178.31 253.75L178.82 252.65L179.35 251.56L179.89 250.48L180.45 249.41L181.01 248.34L181.59 247.27L182.18 246.22L182.78 245.17L183.4 244.12L184.03 243.09L184.67 242.06L185.33 241.04L186 240.02L186.68 239.01L187.37 238.01L188.08 237.02L188.8 236.03L189.53 235.05L190.28 234.08L191.04 233.12L191.81 232.16L192.6 231.21L193.4 230.27L194.21 229.34L195.04 228.42L195.88 227.5L196.73 226.59L197.6 225.69L198.48 224.8L201.56 221.84L204.74 219.04L208.01 216.38L211.37 213.87L214.82 211.52L218.35 209.31L221.96 207.25L225.64 205.34L229.39 203.58L233.21 201.96L237.1 200.49L241.05 199.17L245.05 197.99L249.11 196.96L253.21 196.07L257.37 195.33L261.56 194.73L265.8 194.27L270.07 193.96L274.37 193.79L278.7 193.77L283.05 193.88L287.43 194.14L291.82 194.53L296.23 195.07L300.64 195.75L305.06 196.56L309.49 197.52L313.92 198.61L318.34 199.84L322.75 201.21L327.15 202.72L331.54 204.37L335.91 206.15L340.25 208.06L344.57 210.11L348.86 212.3L353.12 214.62L357.34 217.08L361.52 219.67L427.71 153.6L426.59 152.44L425.53 151.24L424.53 150.01L423.59 148.75L422.7 147.47L421.87 146.15L421.1 144.81L420.38 143.45L419.72 142.07L419.12 140.66L418.58 139.24L418.09 137.8L417.66 136.35L417.29 134.89L416.97 133.41L416.72 131.93L416.52 130.44L416.37 128.94L416.29 127.44L416.26 125.94L416.29 124.44L416.37 122.94L416.52 121.44L416.72 119.95L416.97 118.47L417.29 116.99L417.66 115.53L418.09 114.07L418.58 112.64L419.12 111.22L419.72 109.81L420.38 108.43L421.1 107.06L421.87 105.73L422.7 104.41L423.59 103.12L424.53 101.87L425.53 100.64L426.59 99.44L427.71 98.28L510.63 15.36L511.79 14.24L512.99 13.18L514.22 12.18L515.48 11.23L516.76 10.35L518.08 9.52L519.42 8.74L520.78 8.03L522.16 7.37L523.57 6.77L524.99 6.23L526.43 5.74L527.88 5.31L529.34 4.94L530.82 4.62L532.3 4.37L533.79 4.16L535.29 4.02L536.79 3.94L538.29 3.91L539.79 3.94L541.29 4.02ZM256.57 316.71L254.21 316.95L251.87 317.28L249.57 317.7L247.29 318.22L245.05 318.82L242.85 319.5L240.69 320.27L238.56 321.12L236.48 322.05L234.44 323.06L232.45 324.14L230.5 325.3L228.61 326.53L226.76 327.82L224.97 329.19L223.23 330.63L221.55 332.12L219.93 333.68L218.37 335.31L216.87 336.99L215.44 338.72L214.07 340.52L212.77 342.36L211.54 344.26L210.39 346.2L209.3 348.2L208.3 350.24L207.37 352.32L206.52 354.44L205.75 356.61L205.06 358.81L204.46 361.05L203.95 363.32L203.52 365.62L203.19 367.96L202.95 370.32L202.81 372.71L202.76 375.13L202.81 377.55L202.95 379.94L203.19 382.3L203.52 384.64L203.95 386.94L204.46 389.21L205.06 391.45L205.75 393.65L206.52 395.82L207.37 397.94L208.3 400.02L209.3 402.06L210.39 404.06L211.54 406L212.77 407.9L214.07 409.74L215.44 411.54L216.87 413.27L218.37 414.95L219.93 416.58L221.55 418.14L223.23 419.63L224.97 421.07L226.76 422.44L228.61 423.73L230.5 424.96L232.45 426.12L234.44 427.2L236.48 428.21L238.56 429.14L240.69 429.99L242.85 430.76L245.05 431.44L247.29 432.04L249.57 432.56L251.87 432.98L254.21 433.31L256.57 433.55L258.96 433.7L261.38 433.75L263.79 433.7L266.18 433.55L268.55 433.31L270.88 432.98L273.19 432.56L275.46 432.04L277.7 431.44L279.9 430.76L282.06 429.99L284.19 429.14L286.27 428.21L288.31 427.2L290.3 426.12L292.25 424.96L294.15 423.73L295.99 422.44L297.78 421.07L299.52 419.63L301.2 418.14L302.82 416.58L304.38 414.95L305.88 413.27L307.31 411.54L308.68 409.74L309.98 407.9L311.21 406L312.37 404.06L313.45 402.06L314.46 400.02L315.39 397.94L316.24 395.82L317.01 393.65L317.69 391.45L318.29 389.21L318.8 386.94L319.23 384.64L319.56 382.3L319.8 379.94L319.95 377.55L320 375.13L319.95 372.71L319.8 370.32L319.56 367.96L319.23 365.62L318.8 363.32L318.29 361.05L317.69 358.81L317.01 356.61L316.24 354.44L315.39 352.32L314.46 350.24L313.45 348.2L312.37 346.2L311.21 344.26L309.98 342.36L308.68 340.52L307.31 338.72L305.88 336.99L304.38 335.31L302.82 333.68L301.2 332.12L299.52 330.63L297.78 329.19L295.99 327.82L294.15 326.53L292.25 325.3L290.3 324.14L288.31 323.06L286.27 322.05L284.19 321.12L282.06 320.27L279.9 319.5L277.7 318.82L275.46 318.22L273.19 317.7L270.88 317.28L268.55 316.95L266.18 316.71L263.79 316.56L261.38 316.51L258.96 316.56L256.57 316.71Z" id="akriuYuE4"></path></defs><g><g><g><use xlink:href="#akriuYuE4" opacity="1" fill="#009779" fill-opacity="1"></use><g><use xlink:href="#akriuYuE4" opacity="1" fill-opacity="0" stroke="#000000" stroke-width="5" stroke-opacity="1"></use></g></g></g></g></svg>