<?xml version="1.0" encoding="UTF-8" standalone="no"?>
<!DOCTYPE svg PUBLIC "-//W3C//DTD SVG 1.1//EN" "http://www.w3.org/Graphics/SVG/1.1/DTD/svg11.dtd">
<svg version="1.1" xmlns="http://www.w3.org/2000/svg" xmlns:xlink="http://www.w3.org/1999/xlink" preserveAspectRatio="xMidYMid meet" viewBox="0 0 640 640" width="640" height="640"><defs><path d="M544.67 5.57L546.17 5.72L547.66 5.92L549.15 6.17L550.63 6.49L552.09 6.86L553.55 7.29L554.99 7.78L556.41 8.32L557.81 8.93L559.2 9.58L560.56 10.3L561.9 11.07L563.22 11.91L564.51 12.79L565.77 13.74L567 14.74L568.2 15.8L569.36 16.92L624.63 72.19L625.75 73.35L626.81 74.55L627.81 75.78L628.76 77.04L629.65 78.33L630.48 79.65L631.25 80.99L631.97 82.35L632.63 83.74L633.23 85.14L633.77 86.56L634.26 88L634.69 89.45L635.07 90.92L635.38 92.39L635.64 93.88L635.84 95.37L635.99 96.87L636.08 98.37L636.11 99.87L636.08 101.37L636 102.87L635.86 104.36L635.66 105.85L635.41 107.34L635.1 108.81L634.73 110.27L634.3 111.72L633.82 113.16L633.28 114.57L632.68 115.97L632.03 117.35L631.32 118.71L630.55 120.05L629.73 121.36L628.85 122.64L627.91 123.89L626.91 125.11L625.86 126.3L624.75 127.46L541.73 210.48L540.56 211.6L539.37 212.66L538.14 213.66L536.88 214.61L535.59 215.5L534.27 216.33L532.93 217.1L531.57 217.82L530.18 218.48L528.77 219.08L527.35 219.62L525.91 220.11L524.46 220.54L522.99 220.91L521.52 221.23L520.03 221.49L518.54 221.69L517.04 221.83L515.54 221.92L514.03 221.94L512.53 221.92L511.03 221.83L509.53 221.69L508.04 221.49L506.55 221.23L505.07 220.91L503.61 220.54L502.15 220.11L500.71 219.62L499.29 219.08L497.89 218.48L496.5 217.82L495.14 217.1L493.8 216.33L492.48 215.5L491.19 214.61L489.93 213.66L488.7 212.66L487.5 211.6L486.34 210.48L420.07 276.75L422.65 280.94L425.1 285.16L427.42 289.43L429.6 293.72L431.65 298.05L433.56 302.4L435.34 306.77L436.99 311.16L438.49 315.57L439.86 319.99L441.09 324.41L442.19 328.84L443.15 333.28L443.96 337.7L444.64 342.13L445.18 346.54L445.58 350.94L445.84 355.32L445.95 359.68L445.93 364.01L445.76 368.32L445.45 372.59L445 376.83L444.4 381.03L443.66 385.19L442.77 389.3L441.74 393.37L440.57 397.37L439.24 401.33L437.78 405.22L436.16 409.04L434.4 412.8L432.49 416.49L430.43 420.1L428.22 423.63L425.86 427.08L423.36 430.45L420.7 433.72L417.89 436.9L414.93 439.99L414.04 440.87L413.13 441.74L412.22 442.6L411.31 443.44L410.38 444.27L409.45 445.08L408.5 445.88L407.55 446.67L406.6 447.44L405.63 448.2L404.66 448.95L403.68 449.69L402.69 450.41L401.7 451.12L400.7 451.81L399.69 452.49L398.67 453.16L397.65 453.82L396.62 454.46L395.58 455.09L394.54 455.71L393.48 456.31L392.43 456.9L391.36 457.48L390.29 458.05L389.21 458.6L388.13 459.14L387.04 459.67L385.94 460.19L384.84 460.69L383.73 461.18L382.61 461.66L381.49 462.13L380.37 462.58L379.23 463.03L378.09 463.46L376.95 463.87L375.8 464.28L374.64 464.67L373.48 465.06L371.77 465.64L370.07 466.28L368.4 466.96L366.76 467.7L365.14 468.48L363.54 469.31L361.97 470.19L360.42 471.11L358.91 472.07L357.42 473.08L355.97 474.12L354.54 475.21L353.15 476.33L351.78 477.5L350.45 478.7L349.16 479.93L347.9 481.2L346.68 482.5L345.49 483.84L344.35 485.2L343.24 486.6L342.17 488.02L341.14 489.47L340.16 490.95L339.21 492.45L338.31 493.98L337.46 495.53L336.65 497.1L335.88 498.69L335.17 500.31L334.5 501.94L333.88 503.59L333.31 505.25L332.79 506.93L332.33 508.62L331.91 510.33L331.55 512.05L331.25 513.78L331 515.52L330.8 517.27L330.58 519.47L330.32 521.67L330.03 523.86L329.7 526.04L329.35 528.21L328.96 530.37L328.54 532.51L328.08 534.65L327.59 536.78L327.07 538.89L326.52 540.99L325.93 543.08L325.31 545.16L324.66 547.22L323.97 549.27L323.25 551.31L322.5 553.33L321.71 555.33L320.89 557.32L320.03 559.3L319.14 561.26L318.21 563.2L317.25 565.13L316.26 567.03L315.23 568.93L314.17 570.8L313.07 572.65L311.94 574.49L310.77 576.31L309.57 578.1L308.33 579.88L307.06 581.64L305.75 583.37L304.41 585.09L303.03 586.78L301.61 588.45L300.16 590.1L298.67 591.73L297.15 593.33L295.59 594.91L291.28 599.01L286.81 602.87L282.18 606.48L277.4 609.84L272.49 612.95L267.44 615.82L262.27 618.45L256.98 620.83L251.58 622.96L246.07 624.86L240.47 626.51L234.78 627.92L229.01 629.1L223.16 630.03L217.25 630.72L211.28 631.18L205.25 631.39L199.18 631.38L193.07 631.12L186.93 630.63L180.77 629.91L174.6 628.95L168.41 627.76L162.22 626.33L156.04 624.68L149.87 622.79L143.73 620.67L137.61 618.33L131.52 615.75L125.48 612.95L119.49 609.92L113.56 606.66L107.69 603.18L101.89 599.47L96.17 595.54L90.54 591.38L85 587L79.56 582.4L74.23 577.58L69.02 572.53L63.97 567.32L59.15 561.99L54.55 556.55L50.17 551.01L46.01 545.38L42.07 539.66L38.36 533.86L34.88 527.99L31.62 522.06L28.59 516.07L25.78 510.03L23.2 503.94L20.85 497.82L18.73 491.68L16.84 485.51L15.18 479.33L13.76 473.14L12.56 466.96L11.6 460.78L10.87 454.62L10.38 448.48L10.13 442.37L10.1 436.3L10.32 430.28L10.78 424.3L11.47 418.39L12.4 412.54L13.57 406.77L14.99 401.08L16.64 395.48L18.54 389.97L20.68 384.57L23.06 379.28L25.69 374.11L28.56 369.06L31.68 364.15L35.05 359.37L38.66 354.74L42.53 350.27L46.64 345.96L48.22 344.4L49.82 342.88L51.45 341.39L53.1 339.94L54.77 338.52L56.46 337.15L58.18 335.8L59.91 334.49L61.67 333.22L63.45 331.98L65.24 330.78L67.06 329.61L68.89 328.48L70.75 327.38L72.62 326.32L74.51 325.29L76.42 324.3L78.34 323.34L80.28 322.41L82.24 321.52L84.21 320.66L86.2 319.84L88.2 319.05L90.22 318.3L92.25 317.58L94.3 316.89L96.35 316.24L98.43 315.62L100.51 315.03L102.61 314.48L104.72 313.96L106.84 313.47L108.97 313.01L111.11 312.59L113.26 312.2L115.42 311.85L117.6 311.52L119.78 311.23L121.96 310.97L124.16 310.75L125.92 310.55L127.66 310.3L129.4 310L131.13 309.64L132.84 309.22L134.54 308.76L136.22 308.24L137.89 307.67L139.54 307.05L141.17 306.38L142.79 305.67L144.38 304.9L145.95 304.09L147.51 303.24L149.03 302.34L150.53 301.39L152.01 300.41L153.46 299.38L154.88 298.31L156.27 297.2L157.64 296.06L158.97 294.87L160.27 293.65L161.53 292.39L162.76 291.1L163.96 289.77L165.12 288.41L166.24 287.01L167.33 285.59L168.37 284.13L169.37 282.64L170.33 281.13L171.25 279.58L172.12 278.01L172.95 276.42L173.73 274.79L174.47 273.15L175.15 271.48L175.79 269.79L176.37 268.07L176.75 266.91L177.15 265.75L177.55 264.6L177.97 263.46L178.4 262.32L178.84 261.19L179.3 260.06L179.77 258.94L180.24 257.82L180.74 256.71L181.24 255.61L181.76 254.51L182.28 253.42L182.83 252.34L183.38 251.26L183.95 250.19L184.52 249.12L185.12 248.07L185.72 247.02L186.34 245.97L186.97 244.93L187.61 243.9L188.27 242.88L188.94 241.86L189.62 240.85L190.31 239.85L191.02 238.86L191.74 237.87L192.48 236.89L193.22 235.92L193.98 234.95L194.76 234L195.55 233.05L196.35 232.1L197.16 231.17L197.99 230.24L198.83 229.33L199.69 228.42L200.56 227.51L201.44 226.62L204.52 223.66L207.71 220.85L210.98 218.19L214.35 215.69L217.8 213.33L221.33 211.12L224.94 209.05L228.63 207.14L232.39 205.38L236.21 203.76L240.1 202.29L244.05 200.96L248.06 199.78L252.12 198.75L256.24 197.86L260.39 197.12L264.6 196.52L268.83 196.06L273.11 195.75L277.42 195.58L281.75 195.55L286.11 195.67L290.49 195.92L294.89 196.32L299.3 196.86L303.72 197.53L308.15 198.35L312.58 199.31L317.01 200.4L321.44 201.64L325.86 203.01L330.27 204.52L334.66 206.16L339.03 207.95L343.38 209.87L347.71 211.92L352 214.11L356.26 216.43L360.49 218.89L364.67 221.49L430.95 155.34L429.83 154.17L428.77 152.97L427.77 151.74L426.82 150.48L425.93 149.19L425.1 147.88L424.33 146.54L423.61 145.17L422.95 143.79L422.35 142.38L421.81 140.96L421.32 139.52L420.89 138.07L420.52 136.6L420.2 135.12L419.94 133.64L419.74 132.14L419.6 130.65L419.51 129.14L419.48 127.64L419.51 126.14L419.6 124.63L419.74 123.14L419.94 121.64L420.2 120.16L420.52 118.68L420.89 117.21L421.32 115.76L421.81 114.32L422.35 112.9L422.95 111.49L423.61 110.11L424.33 108.74L425.1 107.4L425.93 106.09L426.82 104.8L427.77 103.54L428.77 102.31L429.83 101.11L430.95 99.95L513.97 16.92L515.14 15.8L516.33 14.74L517.56 13.74L518.82 12.79L520.11 11.91L521.43 11.07L522.77 10.3L524.13 9.58L525.52 8.93L526.93 8.32L528.35 7.78L529.79 7.29L531.24 6.86L532.71 6.49L534.18 6.17L535.67 5.92L537.16 5.72L538.66 5.57L540.16 5.49L541.67 5.46L543.17 5.49L544.67 5.57ZM259.6 318.64L257.23 318.88L254.89 319.22L252.58 319.64L250.31 320.16L248.07 320.76L245.86 321.44L243.7 322.21L241.57 323.06L239.48 323.99L237.44 325L235.45 326.09L233.5 327.25L231.6 328.48L229.75 329.78L227.96 331.15L226.22 332.58L224.54 334.08L222.91 335.64L221.35 337.27L219.85 338.95L218.41 340.69L217.05 342.48L215.75 344.33L214.51 346.23L213.36 348.18L212.27 350.17L211.26 352.22L210.33 354.3L209.48 356.43L208.71 358.59L208.03 360.8L207.42 363.04L206.91 365.32L206.49 367.62L206.15 369.96L205.91 372.33L205.77 374.72L205.72 377.14L205.77 379.56L205.91 381.95L206.15 384.32L206.49 386.66L206.91 388.97L207.42 391.24L208.03 393.48L208.71 395.69L209.48 397.85L210.33 399.98L211.26 402.07L212.27 404.11L213.36 406.1L214.51 408.05L215.75 409.95L217.05 411.8L218.41 413.59L219.85 415.33L221.35 417.01L222.91 418.64L224.54 420.2L226.22 421.7L227.96 423.14L229.75 424.5L231.6 425.81L233.5 427.04L235.45 428.19L237.44 429.28L239.48 430.29L241.57 431.22L243.7 432.07L245.86 432.84L248.07 433.53L250.31 434.13L252.58 434.64L254.89 435.06L257.23 435.4L259.6 435.64L261.99 435.78L264.41 435.83L266.83 435.78L269.22 435.64L271.59 435.4L273.93 435.06L276.24 434.64L278.51 434.13L280.75 433.53L282.96 432.84L285.12 432.07L287.25 431.22L289.34 430.29L291.38 429.28L293.37 428.19L295.32 427.04L297.22 425.81L299.07 424.5L300.86 423.14L302.6 421.7L304.28 420.2L305.91 418.64L307.47 417.01L308.97 415.33L310.41 413.59L311.77 411.8L313.07 409.95L314.31 408.05L315.46 406.1L316.55 404.11L317.56 402.07L318.49 399.98L319.34 397.85L320.11 395.69L320.79 393.48L321.4 391.24L321.91 388.97L322.33 386.66L322.67 384.32L322.91 381.95L323.05 379.56L323.1 377.14L323.05 374.72L322.91 372.33L322.67 369.96L322.33 367.62L321.91 365.32L321.4 363.04L320.79 360.8L320.11 358.59L319.34 356.43L318.49 354.3L317.56 352.22L316.55 350.17L315.46 348.18L314.31 346.23L313.07 344.33L311.77 342.48L310.41 340.69L308.97 338.95L307.47 337.27L305.91 335.64L304.28 334.08L302.6 332.58L300.86 331.15L299.07 329.78L297.22 328.48L295.32 327.25L293.37 326.09L291.38 325L289.34 323.99L287.25 323.06L285.12 322.21L282.96 321.44L280.75 320.76L278.51 320.16L276.24 319.64L273.93 319.22L271.59 318.88L269.22 318.64L266.83 318.5L264.41 318.45L261.99 318.5L259.6 318.64Z" id="c1IjDhDfBK"></path></defs><g><g><g><use xlink:href="#c1IjDhDfBK" opacity="1" fill="#ff8f3e" fill-opacity="1"></use><g><use xlink:href="#c1IjDhDfBK" opacity="1" fill-opacity="0" stroke="#000000" stroke-width="5" stroke-opacity="1"></use></g></g></g></g></svg>