<?xml version="1.0" encoding="UTF-8" standalone="no"?>
<!DOCTYPE svg PUBLIC "-//W3C//DTD SVG 1.1//EN" "http://www.w3.org/Graphics/SVG/1.1/DTD/svg11.dtd">
<svg version="1.1" xmlns="http://www.w3.org/2000/svg" xmlns:xlink="http://www.w3.org/1999/xlink" preserveAspectRatio="xMidYMid meet" viewBox="0 0 640 640" width="640" height="640"><defs><path d="M539.27 10.39L540.75 10.53L542.23 10.73L543.7 10.98L545.16 11.29L546.61 11.66L548.05 12.09L549.48 12.57L550.89 13.11L552.28 13.71L553.65 14.36L555 15.07L556.32 15.83L557.63 16.66L558.9 17.53L560.15 18.47L561.37 19.46L562.55 20.51L563.7 21.62L618.4 76.31L619.51 77.47L620.56 78.65L621.55 79.87L622.48 81.12L623.36 82.39L624.19 83.69L624.95 85.02L625.66 86.37L626.31 87.74L626.91 89.13L627.45 90.54L627.93 91.96L628.36 93.4L628.73 94.85L629.04 96.31L629.3 97.78L629.5 99.26L629.64 100.74L629.73 102.22L629.76 103.71L629.73 105.19L629.65 106.68L629.51 108.16L629.32 109.63L629.06 111.1L628.76 112.56L628.39 114L627.97 115.44L627.49 116.86L626.96 118.26L626.37 119.65L625.72 121.01L625.02 122.35L624.26 123.68L623.44 124.97L622.57 126.24L621.64 127.48L620.66 128.69L619.62 129.87L618.52 131.01L536.36 213.17L535.2 214.28L534.02 215.33L532.8 216.32L531.55 217.26L530.28 218.14L528.98 218.96L527.65 219.72L526.3 220.43L524.93 221.09L523.54 221.68L522.13 222.22L520.7 222.7L519.27 223.13L517.82 223.5L516.35 223.81L514.88 224.06L513.41 224.26L511.92 224.4L510.44 224.49L508.95 224.52L507.46 224.49L505.97 224.4L504.49 224.26L503.01 224.06L501.54 223.81L500.08 223.5L498.63 223.13L497.19 222.7L495.77 222.22L494.36 221.68L492.97 221.09L491.6 220.43L490.25 219.72L488.92 218.96L487.62 218.14L486.34 217.26L485.09 216.32L483.88 215.33L482.69 214.28L481.54 213.17L415.95 278.76L418.51 282.9L420.94 287.08L423.23 291.3L425.39 295.55L427.42 299.83L429.31 304.14L431.07 308.46L432.7 312.81L434.19 317.17L435.55 321.54L436.77 325.93L437.85 330.31L438.8 334.7L439.6 339.08L440.28 343.45L440.81 347.82L441.2 352.17L441.46 356.51L441.57 360.82L441.55 365.11L441.38 369.38L441.07 373.61L440.63 377.8L440.04 381.96L439.3 386.07L438.43 390.14L437.41 394.16L436.24 398.13L434.93 402.04L433.48 405.89L431.88 409.68L430.14 413.4L428.25 417.05L426.21 420.62L424.02 424.12L421.69 427.53L419.21 430.86L416.58 434.1L413.8 437.25L410.87 440.3L409.99 441.18L409.09 442.04L408.19 442.88L407.29 443.72L406.37 444.54L405.45 445.34L404.51 446.14L403.57 446.92L402.63 447.68L401.67 448.43L400.71 449.17L399.74 449.9L398.76 450.61L397.78 451.32L396.79 452L395.79 452.68L394.78 453.34L393.77 453.99L392.75 454.63L391.72 455.25L390.69 455.86L389.65 456.46L388.6 457.04L387.55 457.62L386.49 458.18L385.42 458.72L384.35 459.26L383.27 459.78L382.18 460.29L381.09 460.79L379.99 461.28L378.89 461.75L377.78 462.21L376.67 462.66L375.54 463.1L374.42 463.53L373.28 463.94L372.14 464.34L371 464.73L369.85 465.11L368.15 465.69L366.48 466.32L364.83 467L363.2 467.73L361.59 468.5L360.01 469.32L358.46 470.19L356.93 471.1L355.43 472.05L353.96 473.05L352.52 474.08L351.11 475.16L349.73 476.27L348.38 477.42L347.06 478.61L345.78 479.83L344.54 481.09L343.33 482.38L342.16 483.7L341.02 485.05L339.92 486.43L338.87 487.84L337.85 489.27L336.87 490.73L335.94 492.22L335.05 493.73L334.2 495.27L333.4 496.82L332.65 498.4L331.94 500L331.28 501.61L330.66 503.24L330.1 504.89L329.59 506.55L329.13 508.23L328.72 509.92L328.36 511.62L328.06 513.33L327.81 515.05L327.62 516.78L327.39 518.96L327.14 521.14L326.85 523.3L326.53 525.46L326.18 527.61L325.79 529.74L325.37 531.87L324.92 533.98L324.44 536.09L323.93 538.18L323.38 540.26L322.8 542.33L322.18 544.38L321.54 546.43L320.86 548.45L320.14 550.47L319.4 552.47L318.62 554.45L317.8 556.42L316.95 558.38L316.07 560.32L315.16 562.24L314.21 564.14L313.23 566.03L312.21 567.9L311.16 569.76L310.07 571.59L308.95 573.41L307.79 575.21L306.6 576.99L305.38 578.74L304.12 580.48L302.82 582.2L301.49 583.9L300.13 585.57L298.73 587.23L297.29 588.86L295.82 590.47L294.31 592.06L292.77 593.62L288.5 597.68L284.08 601.5L279.5 605.07L274.77 608.39L269.91 611.47L264.91 614.31L259.79 616.91L254.56 619.27L249.21 621.38L243.76 623.26L238.22 624.89L232.59 626.29L226.88 627.45L221.09 628.37L215.24 629.06L209.33 629.51L203.36 629.73L197.36 629.71L191.31 629.46L185.24 628.97L179.14 628.25L173.03 627.3L166.91 626.13L160.78 624.72L154.67 623.08L148.56 621.21L142.48 619.12L136.42 616.79L130.4 614.25L124.42 611.47L118.49 608.47L112.62 605.25L106.81 601.8L101.07 598.13L95.41 594.24L89.84 590.13L84.36 585.79L78.98 581.24L73.7 576.47L68.54 571.48L63.55 566.32L58.78 561.04L54.22 555.66L49.89 550.18L45.77 544.6L41.88 538.94L38.21 533.21L34.76 527.4L31.53 521.52L28.53 515.6L25.75 509.62L23.2 503.6L20.88 497.54L18.78 491.46L16.91 485.35L15.27 479.24L13.86 473.11L12.67 466.99L11.72 460.88L11 454.78L10.52 448.71L10.26 442.66L10.24 436.65L10.45 430.69L10.9 424.78L11.59 418.93L12.51 413.14L13.67 407.43L15.07 401.8L16.71 396.26L18.59 390.81L20.7 385.46L23.06 380.23L25.66 375.11L28.51 370.11L31.6 365.25L34.93 360.52L38.5 355.94L42.33 351.52L46.4 347.25L47.96 345.71L49.55 344.2L51.16 342.73L52.79 341.29L54.44 339.89L56.12 338.53L57.82 337.19L59.53 335.9L61.27 334.64L63.03 333.41L64.81 332.22L66.6 331.07L68.42 329.95L70.25 328.86L72.11 327.81L73.98 326.79L75.86 325.81L77.77 324.86L79.69 323.94L81.63 323.06L83.58 322.22L85.55 321.4L87.53 320.62L89.52 319.87L91.54 319.16L93.56 318.48L95.6 317.83L97.65 317.22L99.71 316.64L101.79 316.09L103.87 315.58L105.97 315.09L108.08 314.64L110.2 314.23L112.33 313.84L114.47 313.49L116.62 313.17L118.78 312.88L120.94 312.62L123.12 312.4L124.85 312.21L126.58 311.96L128.3 311.66L130.01 311.3L131.7 310.89L133.39 310.43L135.05 309.92L136.7 309.35L138.34 308.74L139.95 308.08L141.55 307.37L143.13 306.62L144.68 305.81L146.22 304.97L147.73 304.08L149.21 303.14L150.68 302.17L152.11 301.15L153.52 300.09L154.9 299L156.24 297.86L157.56 296.69L158.85 295.48L160.1 294.23L161.32 292.95L162.5 291.64L163.65 290.29L164.76 288.91L165.83 287.5L166.87 286.06L167.86 284.59L168.81 283.09L169.72 281.56L170.58 280L171.4 278.42L172.17 276.82L172.9 275.19L173.58 273.54L174.21 271.86L174.79 270.17L175.16 269.02L175.55 267.87L175.96 266.73L176.37 265.6L176.8 264.47L177.23 263.35L177.68 262.24L178.14 261.13L178.62 260.02L179.1 258.93L179.6 257.83L180.11 256.75L180.64 255.67L181.17 254.6L181.72 253.53L182.28 252.47L182.85 251.42L183.44 250.37L184.04 249.33L184.65 248.3L185.27 247.27L185.91 246.25L186.56 245.24L187.22 244.23L187.89 243.23L188.58 242.24L189.28 241.26L190 240.28L190.72 239.31L191.46 238.35L192.22 237.39L192.98 236.44L193.76 235.5L194.55 234.57L195.36 233.65L196.18 232.73L197.01 231.82L197.86 230.92L198.72 230.03L199.59 229.15L202.65 226.22L205.79 223.44L209.04 220.81L212.37 218.32L215.78 215.99L219.28 213.8L222.85 211.76L226.5 209.87L230.22 208.12L234.01 206.52L237.86 205.06L241.77 203.75L245.73 202.59L249.75 201.56L253.82 200.68L257.94 199.95L262.09 199.35L266.29 198.9L270.52 198.59L274.78 198.43L279.07 198.4L283.39 198.51L287.72 198.76L292.08 199.16L296.44 199.69L300.82 200.36L305.2 201.17L309.59 202.12L313.97 203.2L318.35 204.42L322.72 205.78L327.09 207.27L331.43 208.9L335.76 210.67L340.07 212.56L344.35 214.6L348.6 216.76L352.81 219.06L357 221.5L361.14 224.06L426.72 158.6L425.62 157.45L424.57 156.26L423.58 155.04L422.64 153.8L421.76 152.52L420.94 151.22L420.17 149.89L419.46 148.54L418.81 147.17L418.22 145.78L417.68 144.37L417.19 142.95L416.77 141.51L416.4 140.06L416.09 138.6L415.83 137.13L415.63 135.65L415.49 134.16L415.41 132.68L415.38 131.19L415.41 129.7L415.49 128.22L415.63 126.73L415.83 125.26L416.09 123.79L416.4 122.32L416.77 120.87L417.19 119.43L417.68 118.01L418.22 116.6L418.81 115.21L419.46 113.84L420.17 112.49L420.94 111.16L421.76 109.86L422.64 108.58L423.58 107.34L424.57 106.12L425.62 104.93L426.72 103.78L508.89 21.62L510.04 20.51L511.23 19.46L512.44 18.47L513.69 17.53L514.97 16.66L516.27 15.83L517.6 15.07L518.95 14.36L520.32 13.71L521.71 13.11L523.12 12.57L524.54 12.09L525.98 11.66L527.43 11.29L528.89 10.98L530.36 10.73L531.84 10.53L533.32 10.39L534.81 10.3L536.3 10.27L537.78 10.3L539.27 10.39ZM257.15 320.22L254.81 320.45L252.49 320.78L250.21 321.2L247.96 321.71L245.74 322.31L243.56 322.99L241.41 323.75L239.31 324.59L237.24 325.51L235.22 326.51L233.25 327.58L231.32 328.73L229.44 329.95L227.61 331.23L225.84 332.59L224.12 334.01L222.45 335.49L220.84 337.04L219.3 338.65L217.81 340.31L216.39 342.03L215.04 343.81L213.75 345.64L212.53 347.52L211.39 349.44L210.31 351.42L209.32 353.44L208.39 355.5L207.55 357.61L206.79 359.75L206.11 361.93L205.52 364.15L205.01 366.4L204.59 368.69L204.26 371L204.02 373.34L203.88 375.71L203.83 378.11L203.88 380.5L204.02 382.87L204.26 385.21L204.59 387.53L205.01 389.81L205.52 392.06L206.11 394.28L206.79 396.46L207.55 398.61L208.39 400.71L209.32 402.77L210.31 404.79L211.39 406.77L212.53 408.7L213.75 410.58L215.04 412.4L216.39 414.18L217.81 415.9L219.3 417.57L220.84 419.17L222.45 420.72L224.12 422.2L225.84 423.62L227.61 424.98L229.44 426.27L231.32 427.48L233.25 428.63L235.22 429.7L237.24 430.7L239.31 431.62L241.41 432.47L243.56 433.23L245.74 433.91L247.96 434.5L250.21 435.01L252.49 435.43L254.81 435.76L257.15 436L259.52 436.14L261.91 436.19L264.3 436.14L266.67 436L269.02 435.76L271.33 435.43L273.61 435.01L275.87 434.5L278.08 433.91L280.27 433.23L282.41 432.47L284.52 431.62L286.58 430.7L288.6 429.7L290.57 428.63L292.5 427.48L294.38 426.27L296.21 424.98L297.99 423.62L299.71 422.2L301.37 420.72L302.98 419.17L304.52 417.57L306.01 415.9L307.43 414.18L308.79 412.4L310.07 410.58L311.29 408.7L312.44 406.77L313.51 404.79L314.51 402.77L315.43 400.71L316.27 398.61L317.03 396.46L317.71 394.28L318.31 392.06L318.81 389.81L319.23 387.53L319.56 385.21L319.8 382.87L319.95 380.5L320 378.11L319.95 375.71L319.8 373.34L319.56 371L319.23 368.69L318.81 366.4L318.31 364.15L317.71 361.93L317.03 359.75L316.27 357.61L315.43 355.5L314.51 353.44L313.51 351.42L312.44 349.44L311.29 347.52L310.07 345.64L308.79 343.81L307.43 342.03L306.01 340.31L304.52 338.65L302.98 337.04L301.37 335.49L299.71 334.01L297.99 332.59L296.21 331.23L294.38 329.95L292.5 328.73L290.57 327.58L288.6 326.51L286.58 325.51L284.52 324.59L282.41 323.75L280.27 322.99L278.08 322.31L275.87 321.71L273.61 321.2L271.33 320.78L269.02 320.45L266.67 320.22L264.3 320.07L261.91 320.02L259.52 320.07L257.15 320.22Z" id="dBgTALqr"></path></defs><g><g><g><use xlink:href="#dBgTALqr" opacity="1" fill="#000000" fill-opacity="1"></use><g><use xlink:href="#dBgTALqr" opacity="1" fill-opacity="0" stroke="#ffffff" stroke-width="5" stroke-opacity="1"></use></g></g></g></g></svg>