<?xml version="1.0" encoding="UTF-8" standalone="no"?>
<!DOCTYPE svg PUBLIC "-//W3C//DTD SVG 1.1//EN" "http://www.w3.org/Graphics/SVG/1.1/DTD/svg11.dtd">
<svg version="1.1" xmlns="http://www.w3.org/2000/svg" xmlns:xlink="http://www.w3.org/1999/xlink" preserveAspectRatio="xMidYMid meet" viewBox="0 0 640 640" width="640" height="640"><defs><path d="M543.67 6.37L545.17 6.51L546.67 6.72L548.16 6.97L549.64 7.29L551.11 7.66L552.57 8.1L554.01 8.58L555.44 9.13L556.84 9.73L558.23 10.39L559.6 11.11L560.95 11.89L562.26 12.72L563.56 13.61L564.82 14.56L566.05 15.56L567.25 16.63L568.42 17.75L623.83 73.15L624.95 74.32L626.01 75.52L627.02 76.75L627.96 78.02L628.85 79.31L629.69 80.63L630.46 81.97L631.18 83.34L631.84 84.73L632.45 86.14L632.99 87.56L633.48 89L633.91 90.46L634.29 91.93L634.61 93.41L634.87 94.9L635.07 96.39L635.21 97.89L635.3 99.4L635.33 100.9L635.31 102.41L635.22 103.91L635.08 105.41L634.88 106.9L634.63 108.39L634.32 109.86L633.95 111.33L633.52 112.78L633.04 114.22L632.5 115.64L631.9 117.05L631.24 118.43L630.53 119.79L629.76 121.13L628.94 122.44L628.05 123.73L627.11 124.98L626.11 126.21L625.06 127.4L623.95 128.56L540.72 211.79L539.55 212.91L538.35 213.97L537.12 214.98L535.85 215.92L534.56 216.82L533.24 217.65L531.9 218.42L530.53 219.14L529.14 219.8L527.73 220.41L526.31 220.95L524.86 221.44L523.41 221.87L521.94 222.24L520.46 222.56L518.97 222.82L517.47 223.02L515.97 223.16L514.46 223.25L512.96 223.28L511.45 223.25L509.94 223.16L508.44 223.02L506.94 222.82L505.45 222.56L503.97 222.24L502.5 221.87L501.05 221.44L499.6 220.95L498.18 220.41L496.77 219.8L495.38 219.14L494.01 218.42L492.67 217.65L491.35 216.82L490.06 215.92L488.79 214.98L487.56 213.97L486.36 212.91L485.19 211.79L418.75 278.22L421.35 282.42L423.8 286.66L426.13 290.93L428.31 295.23L430.37 299.57L432.29 303.93L434.07 308.31L435.72 312.72L437.23 317.14L438.6 321.56L439.84 326L440.93 330.44L441.89 334.89L442.71 339.33L443.39 343.76L443.93 348.18L444.33 352.59L444.59 356.98L444.71 361.35L444.68 365.7L444.51 370.02L444.2 374.3L443.75 378.55L443.15 382.76L442.41 386.93L441.52 391.05L440.49 395.13L439.31 399.14L437.98 403.1L436.51 407L434.89 410.84L433.12 414.61L431.21 418.3L429.14 421.93L426.93 425.47L424.57 428.93L422.05 432.3L419.39 435.58L416.57 438.77L413.61 441.86L412.71 442.75L411.81 443.62L410.89 444.48L409.97 445.32L409.05 446.15L408.11 446.97L407.17 447.77L406.21 448.56L405.25 449.34L404.29 450.1L403.31 450.85L402.33 451.59L401.34 452.31L400.34 453.02L399.34 453.72L398.33 454.4L397.31 455.07L396.28 455.73L395.25 456.37L394.21 457L393.16 457.62L392.11 458.23L391.05 458.82L389.98 459.4L388.91 459.97L387.83 460.52L386.74 461.07L385.65 461.6L384.55 462.11L383.44 462.62L382.33 463.11L381.21 463.59L380.09 464.06L378.96 464.51L377.82 464.96L376.68 465.39L375.53 465.81L374.38 466.22L373.22 466.61L372.05 466.99L370.34 467.58L368.64 468.22L366.97 468.91L365.31 469.64L363.69 470.43L362.09 471.26L360.51 472.14L358.97 473.06L357.45 474.03L355.96 475.03L354.5 476.08L353.07 477.17L351.67 478.3L350.3 479.46L348.97 480.67L347.67 481.9L346.41 483.18L345.19 484.48L344 485.82L342.85 487.19L341.74 488.59L340.67 490.01L339.64 491.47L338.65 492.95L337.7 494.46L336.8 495.99L335.94 497.54L335.13 499.12L334.37 500.71L333.65 502.33L332.98 503.96L332.36 505.62L331.79 507.29L331.27 508.97L330.8 510.67L330.39 512.38L330.02 514.1L329.72 515.84L329.47 517.58L329.27 519.33L329.05 521.54L328.79 523.75L328.49 525.94L328.17 528.13L327.81 530.3L327.42 532.46L327 534.62L326.54 536.76L326.05 538.89L325.53 541.01L324.98 543.12L324.39 545.21L323.77 547.29L323.11 549.36L322.42 551.42L321.7 553.46L320.94 555.48L320.15 557.49L319.33 559.49L318.47 561.47L317.58 563.43L316.65 565.38L315.69 567.31L314.69 569.22L313.66 571.12L312.6 573L311.5 574.86L310.36 576.7L309.19 578.52L307.99 580.32L306.74 582.1L305.47 583.86L304.16 585.6L302.81 587.32L301.43 589.02L300.01 590.69L298.55 592.35L297.06 593.98L295.53 595.59L293.97 597.17L289.65 601.28L285.17 605.15L280.53 608.76L275.74 612.13L270.81 615.26L265.75 618.13L260.57 620.76L255.26 623.15L249.85 625.29L244.33 627.19L238.71 628.85L233.01 630.26L227.22 631.44L221.36 632.37L215.44 633.07L209.45 633.53L203.41 633.74L197.32 633.72L191.2 633.47L185.05 632.98L178.87 632.25L172.68 631.29L166.48 630.1L160.27 628.67L154.08 627.01L147.89 625.12L141.73 623L135.6 620.64L129.5 618.06L123.44 615.25L117.44 612.21L111.49 608.95L105.6 605.46L99.79 601.74L94.06 597.8L88.41 593.63L82.86 589.24L77.41 584.63L72.06 579.79L66.84 574.74L61.78 569.51L56.94 564.17L52.33 558.72L47.94 553.16L43.77 547.52L39.83 541.78L36.11 535.97L32.61 530.09L29.35 524.14L26.31 518.13L23.49 512.08L20.91 505.98L18.55 499.84L16.43 493.68L14.53 487.5L12.87 481.3L11.44 475.1L10.24 468.9L9.28 462.7L8.55 456.53L8.06 450.37L7.8 444.25L7.78 438.17L8 432.13L8.45 426.14L9.15 420.21L10.08 414.35L11.26 408.56L12.67 402.86L14.33 397.24L16.23 391.73L18.38 386.31L20.77 381.01L23.4 375.82L26.28 370.76L29.41 365.83L32.79 361.05L36.41 356.41L40.28 351.92L44.4 347.6L45.99 346.04L47.6 344.51L49.23 343.02L50.88 341.57L52.55 340.15L54.25 338.77L55.97 337.42L57.71 336.11L59.47 334.83L61.25 333.59L63.05 332.38L64.87 331.21L66.71 330.08L68.57 328.98L70.45 327.91L72.34 326.88L74.25 325.88L76.18 324.92L78.13 324L80.09 323.1L82.07 322.24L84.06 321.42L86.07 320.63L88.09 319.87L90.13 319.15L92.18 318.46L94.24 317.81L96.32 317.18L98.41 316.6L100.51 316.04L102.63 315.52L104.75 315.03L106.89 314.58L109.04 314.15L111.19 313.76L113.36 313.41L115.54 313.08L117.72 312.79L119.92 312.53L122.12 312.3L123.88 312.11L125.63 311.86L127.37 311.55L129.1 311.19L130.82 310.77L132.52 310.31L134.21 309.79L135.88 309.22L137.54 308.6L139.17 307.93L140.79 307.21L142.39 306.44L143.97 305.63L145.52 304.77L147.05 303.87L148.56 302.93L150.04 301.94L151.49 300.91L152.91 299.84L154.31 298.73L155.68 297.58L157.01 296.39L158.31 295.16L159.58 293.9L160.82 292.6L162.02 291.27L163.18 289.91L164.3 288.51L165.39 287.08L166.44 285.62L167.44 284.13L168.4 282.61L169.32 281.06L170.2 279.49L171.03 277.89L171.81 276.26L172.55 274.61L173.23 272.94L173.87 271.24L174.46 269.52L174.84 268.36L175.24 267.2L175.64 266.04L176.06 264.9L176.49 263.75L176.94 262.62L177.39 261.49L177.86 260.36L178.34 259.25L178.83 258.13L179.34 257.03L179.86 255.93L180.39 254.83L180.93 253.75L181.48 252.67L182.05 251.59L182.63 250.53L183.22 249.47L183.83 248.41L184.45 247.37L185.08 246.33L185.72 245.29L186.38 244.27L187.05 243.25L187.74 242.24L188.43 241.23L189.14 240.23L189.87 239.24L190.6 238.26L191.35 237.29L192.11 236.32L192.89 235.36L193.68 234.41L194.48 233.46L195.3 232.53L196.13 231.6L196.97 230.68L197.83 229.77L198.7 228.86L199.59 227.97L202.68 225L205.87 222.18L209.15 219.52L212.53 217L215.98 214.64L219.53 212.42L223.15 210.36L226.84 208.44L230.61 206.67L234.45 205.05L238.35 203.57L242.31 202.24L246.33 201.06L250.4 200.03L254.52 199.14L258.69 198.39L262.9 197.79L267.15 197.33L271.44 197.02L275.75 196.85L280.1 196.82L284.47 196.94L288.86 197.19L293.27 197.59L297.69 198.13L302.13 198.81L306.57 199.63L311.01 200.59L315.45 201.68L319.89 202.92L324.32 204.3L328.73 205.81L333.14 207.46L337.52 209.25L341.88 211.17L346.22 213.23L350.52 215.43L354.8 217.76L359.03 220.22L363.23 222.82L429.66 156.51L428.54 155.34L427.48 154.14L426.48 152.9L425.53 151.64L424.64 150.35L423.8 149.03L423.03 147.69L422.31 146.32L421.65 144.93L421.05 143.52L420.5 142.09L420.01 140.65L419.58 139.19L419.21 137.72L418.89 136.24L418.63 134.75L418.43 133.26L418.29 131.75L418.2 130.25L418.17 128.74L418.2 127.23L418.29 125.73L418.43 124.23L418.63 122.73L418.89 121.24L419.21 119.76L419.58 118.29L420.01 116.83L420.5 115.39L421.05 113.96L421.65 112.55L422.31 111.17L423.03 109.8L423.8 108.45L424.64 107.13L425.53 105.84L426.48 104.58L427.48 103.35L428.54 102.14L429.66 100.98L512.89 17.75L514.06 16.63L515.26 15.56L516.49 14.56L517.76 13.61L519.05 12.72L520.37 11.89L521.71 11.11L523.08 10.39L524.47 9.73L525.88 9.13L527.31 8.58L528.75 8.1L530.21 7.66L531.68 7.29L533.16 6.97L534.65 6.72L536.14 6.51L537.64 6.37L539.15 6.29L540.66 6.26L542.17 6.29L543.67 6.37ZM257.89 320.22L255.52 320.46L253.17 320.79L250.86 321.22L248.58 321.73L246.33 322.34L244.12 323.02L241.95 323.8L239.82 324.65L237.73 325.58L235.68 326.59L233.68 327.68L231.73 328.84L229.82 330.07L227.97 331.38L226.17 332.75L224.43 334.19L222.74 335.69L221.11 337.26L219.55 338.89L218.04 340.57L216.61 342.32L215.23 344.12L213.93 345.97L212.7 347.87L211.53 349.83L210.45 351.83L209.44 353.87L208.5 355.96L207.65 358.1L206.88 360.27L206.19 362.48L205.59 364.72L205.07 367.01L204.65 369.32L204.31 371.66L204.07 374.04L203.93 376.44L203.88 378.86L203.93 381.28L204.07 383.68L204.31 386.06L204.65 388.4L205.07 390.71L205.59 393L206.19 395.24L206.88 397.45L207.65 399.62L208.5 401.76L209.44 403.85L210.45 405.89L211.53 407.89L212.7 409.85L213.93 411.75L215.23 413.6L216.61 415.4L218.04 417.15L219.55 418.83L221.11 420.46L222.74 422.03L224.43 423.53L226.17 424.97L227.97 426.34L229.82 427.65L231.73 428.88L233.68 430.04L235.68 431.13L237.73 432.14L239.82 433.07L241.95 433.92L244.12 434.7L246.33 435.38L248.58 435.99L250.86 436.5L253.17 436.93L255.52 437.26L257.89 437.5L260.29 437.65L262.71 437.7L265.14 437.65L267.54 437.5L269.91 437.26L272.25 436.93L274.57 436.5L276.85 435.99L279.1 435.38L281.31 434.7L283.48 433.92L285.61 433.07L287.7 432.14L289.75 431.13L291.75 430.04L293.7 428.88L295.61 427.65L297.46 426.34L299.26 424.97L301 423.53L302.69 422.03L304.31 420.46L305.88 418.83L307.38 417.15L308.82 415.4L310.2 413.6L311.5 411.75L312.73 409.85L313.89 407.89L314.98 405.89L315.99 403.85L316.93 401.76L317.78 399.62L318.55 397.45L319.24 395.24L319.84 393L320.36 390.71L320.78 388.4L321.11 386.06L321.36 383.68L321.5 381.28L321.55 378.86L321.5 376.44L321.36 374.04L321.11 371.66L320.78 369.32L320.36 367.01L319.84 364.72L319.24 362.48L318.55 360.27L317.78 358.1L316.93 355.96L315.99 353.87L314.98 351.83L313.89 349.83L312.73 347.87L311.5 345.97L310.2 344.12L308.82 342.32L307.38 340.57L305.88 338.89L304.31 337.26L302.69 335.69L301 334.19L299.26 332.75L297.46 331.38L295.61 330.07L293.7 328.84L291.75 327.68L289.75 326.59L287.7 325.58L285.61 324.65L283.48 323.8L281.31 323.02L279.1 322.34L276.85 321.73L274.57 321.22L272.25 320.79L269.91 320.46L267.54 320.22L265.14 320.07L262.71 320.02L260.29 320.07L257.89 320.22Z" id="e3emCmEwaE"></path></defs><g><g><g><use xlink:href="#e3emCmEwaE" opacity="1" fill="#d74961" fill-opacity="0.94"></use><g><use xlink:href="#e3emCmEwaE" opacity="1" fill-opacity="0" stroke="#000000" stroke-width="5" stroke-opacity="1"></use></g></g></g></g></svg>