<?xml version="1.0" encoding="UTF-8" standalone="no"?>
<!DOCTYPE svg PUBLIC "-//W3C//DTD SVG 1.1//EN" "http://www.w3.org/Graphics/SVG/1.1/DTD/svg11.dtd">
<svg version="1.1" xmlns="http://www.w3.org/2000/svg" xmlns:xlink="http://www.w3.org/1999/xlink" preserveAspectRatio="xMidYMid meet" viewBox="0 0 640 640" width="640" height="640"><defs><path d="M541.06 4.79L542.53 4.93L543.99 5.13L545.45 5.38L546.89 5.69L548.33 6.06L549.76 6.48L551.17 6.95L552.56 7.49L553.94 8.08L555.3 8.72L556.63 9.43L557.95 10.19L559.24 11L560.5 11.87L561.74 12.8L562.94 13.78L564.12 14.82L565.26 15.92L619.43 70.09L620.53 71.23L621.57 72.4L622.55 73.61L623.48 74.84L624.35 76.11L625.16 77.4L625.92 78.71L626.62 80.05L627.27 81.41L627.86 82.78L628.39 84.18L628.87 85.59L629.29 87.01L629.66 88.45L629.97 89.89L630.23 91.35L630.42 92.81L630.57 94.28L630.65 95.75L630.68 97.22L630.66 98.69L630.57 100.16L630.44 101.63L630.24 103.09L629.99 104.54L629.69 105.98L629.33 107.42L628.91 108.84L628.44 110.24L627.91 111.63L627.32 113.01L626.68 114.36L625.99 115.69L625.23 117L624.43 118.28L623.56 119.54L622.64 120.77L621.67 121.96L620.64 123.13L619.55 124.26L538.17 205.64L537.03 206.74L535.86 207.78L534.65 208.76L533.42 209.69L532.15 210.56L530.86 211.37L529.55 212.13L528.21 212.83L526.85 213.48L525.47 214.07L524.08 214.6L522.67 215.08L521.24 215.5L519.81 215.87L518.36 216.18L516.9 216.43L515.44 216.62L513.97 216.77L512.5 216.85L511.02 216.88L509.55 216.85L508.08 216.77L506.61 216.62L505.15 216.43L503.69 216.18L502.24 215.87L500.81 215.5L499.38 215.08L497.97 214.6L496.58 214.07L495.2 213.48L493.84 212.83L492.5 212.13L491.19 211.37L489.9 210.56L488.63 209.69L487.4 208.76L486.19 207.78L485.02 206.74L483.88 205.64L418.92 270.6L421.45 274.7L423.85 278.84L426.13 283.02L428.27 287.23L430.27 291.47L432.15 295.74L433.89 300.02L435.5 304.33L436.98 308.65L438.32 312.98L439.53 317.32L440.6 321.66L441.54 326L442.34 330.34L443.01 334.68L443.54 339L443.93 343.31L444.18 347.61L444.29 351.88L444.27 356.13L444.1 360.35L443.8 364.54L443.36 368.7L442.77 372.82L442.04 376.89L441.18 380.92L440.17 384.9L439.01 388.83L437.72 392.7L436.28 396.52L434.7 400.27L432.97 403.95L431.09 407.57L429.08 411.11L426.91 414.57L424.6 417.95L422.14 421.25L419.54 424.46L416.79 427.58L413.88 430.6L413.01 431.47L412.13 432.32L411.23 433.16L410.33 433.98L409.43 434.8L408.51 435.59L407.59 436.38L406.66 437.15L405.72 437.91L404.77 438.66L403.82 439.39L402.86 440.11L401.89 440.82L400.92 441.51L399.93 442.19L398.94 442.86L397.95 443.51L396.95 444.16L395.94 444.79L394.92 445.4L393.89 446.01L392.86 446.6L391.83 447.18L390.78 447.75L389.73 448.3L388.68 448.85L387.62 449.38L386.55 449.9L385.47 450.4L384.39 450.9L383.3 451.38L382.21 451.85L381.11 452.3L380.01 452.75L378.89 453.18L377.78 453.6L376.66 454.01L375.53 454.41L374.39 454.8L373.26 455.17L371.58 455.75L369.92 456.37L368.28 457.04L366.67 457.76L365.08 458.53L363.51 459.35L361.97 460.2L360.46 461.11L358.97 462.05L357.52 463.03L356.09 464.06L354.69 465.12L353.32 466.23L351.99 467.37L350.69 468.54L349.42 469.75L348.19 471L346.99 472.27L345.83 473.58L344.7 474.92L343.61 476.29L342.57 477.68L341.56 479.1L340.59 480.55L339.67 482.02L338.79 483.52L337.95 485.04L337.15 486.58L336.41 488.14L335.7 489.72L335.05 491.32L334.44 492.94L333.88 494.57L333.38 496.22L332.92 497.88L332.51 499.55L332.16 501.24L331.86 502.93L331.62 504.64L331.43 506.35L331.2 508.51L330.95 510.67L330.66 512.81L330.35 514.95L330 517.07L329.62 519.19L329.2 521.29L328.76 523.39L328.28 525.47L327.77 527.54L327.23 529.61L326.65 531.65L326.04 533.69L325.4 535.71L324.73 537.72L324.02 539.71L323.28 541.7L322.51 543.66L321.7 545.61L320.86 547.55L319.99 549.47L319.09 551.37L318.15 553.26L317.17 555.13L316.16 556.98L315.12 558.82L314.05 560.64L312.94 562.44L311.79 564.22L310.61 565.98L309.4 567.72L308.15 569.44L306.87 571.15L305.55 572.83L304.2 574.49L302.81 576.12L301.39 577.74L299.93 579.34L298.44 580.91L296.91 582.46L292.68 586.48L288.3 590.26L283.76 593.79L279.08 597.09L274.27 600.14L269.32 602.95L264.25 605.52L259.06 607.86L253.77 609.95L248.37 611.81L242.88 613.43L237.3 614.81L231.65 615.96L225.92 616.88L220.12 617.56L214.27 618L208.36 618.22L202.41 618.2L196.42 617.95L190.41 617.47L184.37 616.76L178.31 615.82L172.25 614.65L166.18 613.25L160.13 611.63L154.08 609.78L148.05 607.71L142.06 605.41L136.09 602.88L130.17 600.14L124.3 597.17L118.48 593.97L112.73 590.56L107.04 586.92L101.44 583.07L95.92 579L90.49 574.7L85.16 570.19L79.93 565.47L74.82 560.52L69.88 555.41L65.15 550.19L60.64 544.86L56.35 539.43L52.27 533.91L48.42 528.3L44.78 522.62L41.36 516.87L38.17 511.05L35.19 505.18L32.44 499.25L29.92 493.29L27.61 487.29L25.54 481.27L23.68 475.22L22.06 469.16L20.66 463.1L19.49 457.04L18.55 450.98L17.83 444.94L17.35 438.92L17.1 432.94L17.08 426.99L17.29 421.08L17.74 415.23L18.42 409.43L19.33 403.7L20.48 398.04L21.86 392.47L23.49 386.98L25.35 381.58L27.44 376.28L29.78 371.1L32.36 366.03L35.17 361.08L38.23 356.26L41.53 351.58L45.07 347.05L48.86 342.66L52.89 338.44L54.44 336.91L56.01 335.42L57.61 333.96L59.22 332.54L60.86 331.15L62.52 329.8L64.2 328.48L65.9 327.2L67.62 325.95L69.37 324.73L71.13 323.56L72.91 322.41L74.7 321.3L76.52 320.23L78.36 319.18L80.21 318.18L82.08 317.2L83.96 316.26L85.86 315.35L87.78 314.48L89.72 313.64L91.67 312.84L93.63 312.06L95.61 311.32L97.6 310.62L99.6 309.94L101.62 309.3L103.65 308.7L105.7 308.12L107.75 307.58L109.82 307.07L111.9 306.59L113.99 306.14L116.08 305.73L118.19 305.35L120.31 305L122.44 304.68L124.58 304.4L126.72 304.14L128.88 303.92L130.6 303.73L132.31 303.49L134.01 303.19L135.7 302.83L137.38 302.43L139.05 301.97L140.7 301.46L142.33 300.9L143.95 300.3L145.55 299.64L147.14 298.94L148.7 298.19L150.24 297.4L151.76 296.56L153.25 295.68L154.73 294.75L156.17 293.79L157.59 292.78L158.99 291.73L160.35 290.65L161.69 289.52L162.99 288.36L164.27 287.16L165.51 285.93L166.72 284.66L167.89 283.36L169.03 282.02L170.12 280.66L171.19 279.26L172.21 277.83L173.19 276.37L174.13 274.89L175.03 273.37L175.89 271.83L176.7 270.27L177.47 268.68L178.19 267.07L178.86 265.43L179.48 263.77L180.05 262.09L180.43 260.95L180.81 259.82L181.21 258.69L181.62 257.57L182.04 256.45L182.48 255.34L182.92 254.24L183.38 253.14L183.85 252.04L184.33 250.96L184.82 249.88L185.33 248.8L185.85 247.73L186.38 246.67L186.92 245.61L187.48 244.56L188.04 243.52L188.62 242.48L189.22 241.45L189.82 240.43L190.44 239.41L191.07 238.4L191.71 237.4L192.37 236.4L193.04 235.41L193.72 234.43L194.41 233.46L195.12 232.49L195.84 231.53L196.57 230.57L197.32 229.63L198.08 228.69L198.85 227.76L199.63 226.84L200.43 225.92L201.24 225.01L202.07 224.11L202.91 223.22L203.76 222.34L204.62 221.46L207.65 218.56L210.77 215.81L213.98 213.2L217.27 210.74L220.66 208.43L224.12 206.26L227.66 204.24L231.27 202.37L234.96 200.64L238.71 199.05L242.52 197.61L246.39 196.31L250.32 195.15L254.31 194.14L258.34 193.27L262.41 192.54L266.53 191.95L270.68 191.51L274.87 191.2L279.1 191.03L283.35 191.01L287.62 191.12L291.91 191.37L296.22 191.76L300.55 192.29L304.88 192.95L309.22 193.75L313.57 194.69L317.91 195.76L322.25 196.97L326.58 198.32L330.9 199.8L335.2 201.41L339.49 203.16L343.76 205.04L347.99 207.05L352.2 209.2L356.38 211.48L360.52 213.89L364.63 216.43L429.59 151.59L428.49 150.45L427.45 149.27L426.47 148.07L425.54 146.83L424.67 145.57L423.86 144.28L423.1 142.96L422.39 141.63L421.75 140.27L421.16 138.89L420.62 137.5L420.15 136.09L419.73 134.66L419.36 133.22L419.05 131.78L418.8 130.32L418.6 128.86L418.46 127.39L418.38 125.92L418.35 124.44L418.38 122.97L418.46 121.5L418.6 120.03L418.8 118.56L419.05 117.11L419.36 115.66L419.73 114.22L420.15 112.8L420.62 111.39L421.16 109.99L421.75 108.61L422.39 107.26L423.1 105.92L423.86 104.6L424.67 103.31L425.54 102.05L426.47 100.82L427.45 99.61L428.49 98.44L429.59 97.3L510.96 15.92L512.11 14.82L513.28 13.78L514.49 12.8L515.72 11.87L516.98 11L518.27 10.19L519.59 9.43L520.93 8.72L522.28 8.08L523.66 7.49L525.06 6.95L526.47 6.48L527.89 6.06L529.33 5.69L530.78 5.38L532.23 5.13L533.7 4.93L535.17 4.79L536.64 4.71L538.11 4.68L539.59 4.71L541.06 4.79ZM261.63 311.66L259.31 311.9L257.02 312.22L254.76 312.64L252.53 313.14L250.33 313.73L248.17 314.4L246.04 315.16L243.96 315.99L241.92 316.91L239.91 317.89L237.96 318.96L236.05 320.09L234.19 321.3L232.38 322.57L230.62 323.92L228.91 325.32L227.26 326.79L225.67 328.32L224.14 329.92L222.67 331.56L221.26 333.27L219.92 335.03L218.65 336.84L217.44 338.7L216.3 340.61L215.24 342.57L214.25 344.57L213.34 346.61L212.51 348.7L211.75 350.82L211.08 352.98L210.49 355.18L209.99 357.41L209.57 359.67L209.24 361.96L209.01 364.28L208.87 366.63L208.82 369L208.87 371.37L209.01 373.72L209.24 376.04L209.57 378.33L209.99 380.59L210.49 382.82L211.08 385.02L211.75 387.18L212.51 389.3L213.34 391.39L214.25 393.43L215.24 395.43L216.3 397.39L217.44 399.3L218.65 401.16L219.92 402.97L221.26 404.73L222.67 406.43L224.14 408.08L225.67 409.67L227.26 411.21L228.91 412.68L230.62 414.08L232.38 415.43L234.19 416.7L236.05 417.91L237.96 419.04L239.91 420.1L241.92 421.09L243.96 422.01L246.04 422.84L248.17 423.59L250.33 424.27L252.53 424.86L254.76 425.36L257.02 425.78L259.31 426.1L261.63 426.34L263.98 426.48L266.35 426.53L268.72 426.48L271.06 426.34L273.38 426.1L275.68 425.78L277.94 425.36L280.17 424.86L282.37 424.27L284.53 423.59L286.65 422.84L288.74 422.01L290.78 421.09L292.78 420.1L294.74 419.04L296.65 417.91L298.51 416.7L300.32 415.43L302.08 414.08L303.78 412.68L305.43 411.21L307.02 409.67L308.55 408.08L310.02 406.43L311.43 404.73L312.77 402.97L314.05 401.16L315.25 399.3L316.39 397.39L317.45 395.43L318.44 393.43L319.35 391.39L320.19 389.3L320.94 387.18L321.61 385.02L322.2 382.82L322.71 380.59L323.12 378.33L323.45 376.04L323.69 373.72L323.83 371.37L323.88 369L323.83 366.63L323.69 364.28L323.45 361.96L323.12 359.67L322.71 357.41L322.2 355.18L321.61 352.98L320.94 350.82L320.19 348.7L319.35 346.61L318.44 344.57L317.45 342.57L316.39 340.61L315.25 338.7L314.05 336.84L312.77 335.03L311.43 333.27L310.02 331.56L308.55 329.92L307.02 328.32L305.43 326.79L303.78 325.32L302.08 323.92L300.32 322.57L298.51 321.3L296.65 320.09L294.74 318.96L292.78 317.89L290.78 316.91L288.74 315.99L286.65 315.16L284.53 314.4L282.37 313.73L280.17 313.14L277.94 312.64L275.68 312.22L273.38 311.9L271.06 311.66L268.72 311.52L266.35 311.47L263.98 311.52L261.63 311.66Z" id="a1yRCoEoWM"></path></defs><g><g><g><use xlink:href="#a1yRCoEoWM" opacity="1" fill="#ff3b41" fill-opacity="1"></use><g><use xlink:href="#a1yRCoEoWM" opacity="1" fill-opacity="0" stroke="#000000" stroke-width="5" stroke-opacity="1"></use></g></g></g></g></svg>