<?xml version="1.0" encoding="UTF-8" standalone="no"?>
<!-- Created with Inkscape (http://www.inkscape.org/) -->

<svg
   xmlns:osb="http://www.openswatchbook.org/uri/2009/osb"
   xmlns:dc="http://purl.org/dc/elements/1.1/"
   xmlns:cc="http://creativecommons.org/ns#"
   xmlns:rdf="http://www.w3.org/1999/02/22-rdf-syntax-ns#"
   xmlns:svg="http://www.w3.org/2000/svg"
   xmlns="http://www.w3.org/2000/svg"
   xmlns:xlink="http://www.w3.org/1999/xlink"
   xmlns:sodipodi="http://sodipodi.sourceforge.net/DTD/sodipodi-0.dtd"
   xmlns:inkscape="http://www.inkscape.org/namespaces/inkscape"
   width="210mm"
   height="297mm"
   viewBox="0 0 210 297"
   version="1.1"
   id="svg8"
   inkscape:version="0.92.3 (2405546, 2018-03-11)"
   sodipodi:docname="hand-holding-heart-solid.svg">
  <defs
     id="defs2">
    <linearGradient
       id="linearGradient5370"
       osb:paint="solid">
      <stop
         style="stop-color:#ffffff;stop-opacity:1;"
         offset="0"
         id="stop5368" />
    </linearGradient>
    <pattern
       patternUnits="userSpaceOnUse"
       width="604.72442"
       height="529.13383"
       patternTransform="matrix(0.26458333,0,0,0.26458333,32.307216,44.596519)"
       id="pattern3816">
      <path
         id="path3814"
         d="m 289.01289,258.89428 c 7.34869,7.64723 19.31652,7.64723 26.77021,0 L 430.10745,140.87756 C 463.2815,106.56799 461.39181,49.729823 424.22851,18.10714 391.89435,-9.4852031 343.70806,-4.524781 314.1034,26.064481 L 302.34551,38.155507 290.69255,26.167829 C 261.08789,-4.524781 212.9016,-9.4852031 180.56743,18.10714 c -37.05831,31.622683 -39.05295,88.46085 -5.87894,122.77042 z m 304.44514,80.19341 c -12.38782,-11.05757 -31.7043,-10.33421 -44.72194,0 l -97.00252,76.36981 c -11.86284,9.40415 -26.66521,14.46788 -41.99244,14.46788 H 285.5485 c -9.23837,0 -16.79701,-7.4406 -16.79701,-16.53475 0,-9.09407 7.55864,-16.53471 16.79701,-16.53471 h 82.20023 c 16.69194,0 32.22916,-11.26428 34.9587,-27.489 3.46435,-20.66842 -12.70277,-38.64994 -33.17405,-38.64994 H 201.56364 c -28.34488,0 -55.74494,9.61081 -77.79096,27.179 L 74.956483,396.85592 H 16.796969 C 7.5586356,396.85592 0,404.29656 0,413.39063 v 99.20844 c 0,9.09415 7.5586356,16.53476 16.796969,16.53476 H 391.36941 c 15.22228,0 30.02465,-5.06378 41.99248,-14.46788 L 592.09328,389.62201 c 15.95713,-12.50445 17.21692,-36.47981 1.36475,-50.53432 z"
         inkscape:connector-curvature="0"
         style="fill:#ffffff;stroke-width:1.04158354" />
    </pattern>
    <pattern
       inkscape:collect="always"
       xlink:href="#pattern3816-6"
       id="pattern3821"
       patternTransform="matrix(0.26458333,0,0,0.26458333,13.009796,29.755094)" />
    <pattern
       patternUnits="userSpaceOnUse"
       width="604.72442"
       height="529.13383"
       patternTransform="matrix(0.26458333,0,0,0.26458333,32.307216,44.596519)"
       id="pattern3816-6">
      <path
         id="path3814-7"
         d="m 289.01289,258.89428 c 7.34869,7.64723 19.31652,7.64723 26.77021,0 L 430.10745,140.87756 C 463.2815,106.56799 461.39181,49.729823 424.22851,18.10714 391.89435,-9.4852031 343.70806,-4.524781 314.1034,26.064481 L 302.34551,38.155507 290.69255,26.167829 C 261.08789,-4.524781 212.9016,-9.4852031 180.56743,18.10714 c -37.05831,31.622683 -39.05295,88.46085 -5.87894,122.77042 z m 304.44514,80.19341 c -12.38782,-11.05757 -31.7043,-10.33421 -44.72194,0 l -97.00252,76.36981 c -11.86284,9.40415 -26.66521,14.46788 -41.99244,14.46788 H 285.5485 c -9.23837,0 -16.79701,-7.4406 -16.79701,-16.53475 0,-9.09407 7.55864,-16.53471 16.79701,-16.53471 h 82.20023 c 16.69194,0 32.22916,-11.26428 34.9587,-27.489 3.46435,-20.66842 -12.70277,-38.64994 -33.17405,-38.64994 H 201.56364 c -28.34488,0 -55.74494,9.61081 -77.79096,27.179 L 74.956483,396.85592 H 16.796969 C 7.5586356,396.85592 0,404.29656 0,413.39063 v 99.20844 c 0,9.09415 7.5586356,16.53476 16.796969,16.53476 H 391.36941 c 15.22228,0 30.02465,-5.06378 41.99248,-14.46788 L 592.09328,389.62201 c 15.95713,-12.50445 17.21692,-36.47981 1.36475,-50.53432 z"
         inkscape:connector-curvature="0"
         style="fill:#ffffff;stroke-width:1.04158354" />
    </pattern>
  </defs>
  <sodipodi:namedview
     id="base"
     pagecolor="#ffffff"
     bordercolor="#666666"
     borderopacity="1.0"
     inkscape:pageopacity="0.0"
     inkscape:pageshadow="2"
     inkscape:zoom="1.4"
     inkscape:cx="281.78453"
     inkscape:cy="639.1851"
     inkscape:document-units="mm"
     inkscape:current-layer="layer1"
     showgrid="false"
     showguides="true"
     inkscape:pagecheckerboard="true"
     inkscape:window-width="1920"
     inkscape:window-height="1052"
     inkscape:window-x="1680"
     inkscape:window-y="0"
     inkscape:window-maximized="1" />
  <metadata
     id="metadata5">
    <rdf:RDF>
      <cc:Work
         rdf:about="">
        <dc:format>image/svg+xml</dc:format>
        <dc:type
           rdf:resource="http://purl.org/dc/dcmitype/StillImage" />
        <dc:title></dc:title>
      </cc:Work>
    </rdf:RDF>
  </metadata>
  <g
     inkscape:groupmode="layer"
     id="layer2"
     inkscape:label="Layer 2">
    <rect
       style="display:inline;fill:url(#pattern3821);stroke:none;stroke-width:1"
       width="160"
       height="139.99998"
       x="13.009795"
       y="29.755096"
       id="rect3819" />
  </g>
  <g
     inkscape:label="Layer 1"
     inkscape:groupmode="layer"
     id="layer1"
     style="display:inline">
    <path
       id="path3713"
       d="m 89.531813,98.395807 c 1.944334,2.023333 5.110824,2.023333 7.082944,0 L 126.86308,67.170549 c 8.7773,-9.077741 8.27732,-24.116172 -1.55547,-32.483007 -8.55508,-7.300474 -21.30437,-5.988029 -29.137273,2.10538 l -3.11094,3.199084 -3.083174,-3.17174 c -7.8329,-8.120753 -20.582198,-9.433198 -29.13728,-2.132724 -9.805012,8.366835 -10.332761,23.405266 -1.555469,32.483007 z m 80.551107,21.217843 c -3.27761,-2.92565 -8.38843,-2.73426 -11.83268,0 l -25.66525,20.20618 c -3.13871,2.48818 -7.05517,3.82796 -11.1105,3.82796 H 88.615193 c -2.44432,0 -4.44421,-1.96866 -4.44421,-4.37482 0,-2.40614 1.99989,-4.37481 4.44421,-4.37481 H 110.364 c 4.41641,0 8.5273,-2.98034 9.24949,-7.27313 0.91661,-5.46852 -3.36094,-10.22613 -8.7773,-10.22613 H 66.394191 c -7.499584,0 -14.749183,2.54286 -20.582194,7.19111 L 32.896046,134.89816 H 17.508008 c -2.444309,0 -4.444198,1.96867 -4.444198,4.37481 v 26.2489 c 0,2.40616 1.999889,4.37482 4.444198,4.37482 h 99.105632 c 4.02756,0 7.94402,-1.33979 11.11051,-3.82796 l 41.99768,-33.08454 c 4.22199,-3.30847 4.55531,-9.65195 0.36109,-13.37054 z"
       inkscape:connector-curvature="0"
       style="fill:#000000;stroke-width:1.576;stroke:#ffffff;stroke-opacity:1;stroke-miterlimit:4;stroke-dasharray:none" />
  </g>
</svg>
