<?xml version="1.0" encoding="UTF-8" standalone="no"?>
<!-- Created with Inkscape (http://www.inkscape.org/) -->

<svg
   xmlns:osb="http://www.openswatchbook.org/uri/2009/osb"
   xmlns:dc="http://purl.org/dc/elements/1.1/"
   xmlns:cc="http://creativecommons.org/ns#"
   xmlns:rdf="http://www.w3.org/1999/02/22-rdf-syntax-ns#"
   xmlns:svg="http://www.w3.org/2000/svg"
   xmlns="http://www.w3.org/2000/svg"
   xmlns:xlink="http://www.w3.org/1999/xlink"
   xmlns:sodipodi="http://sodipodi.sourceforge.net/DTD/sodipodi-0.dtd"
   xmlns:inkscape="http://www.inkscape.org/namespaces/inkscape"
   width="210mm"
   height="297mm"
   viewBox="0 0 210 297"
   version="1.1"
   id="svg8"
   inkscape:version="0.92.3 (2405546, 2018-03-11)"
   sodipodi:docname="hand-holding-heart-solid-all.svg">
  <defs
     id="defs2">
    <linearGradient
       id="linearGradient5627"
       osb:paint="solid">
      <stop
         style="stop-color:#ffffff;stop-opacity:1;"
         offset="0"
         id="stop5625" />
    </linearGradient>
    <linearGradient
       id="linearGradient5532"
       osb:paint="solid">
      <stop
         style="stop-color:#ffffff;stop-opacity:1;"
         offset="0"
         id="stop5530" />
    </linearGradient>
    <linearGradient
       id="linearGradient5370"
       osb:paint="solid">
      <stop
         style="stop-color:#ffffff;stop-opacity:1;"
         offset="0"
         id="stop5368" />
    </linearGradient>
    <pattern
       patternUnits="userSpaceOnUse"
       width="604.72442"
       height="529.13383"
       patternTransform="matrix(0.26458333,0,0,0.26458333,32.307216,44.596519)"
       id="pattern3816">
      <path
         id="path3814"
         d="m 289.01289,258.89428 c 7.34869,7.64723 19.31652,7.64723 26.77021,0 L 430.10745,140.87756 C 463.2815,106.56799 461.39181,49.729823 424.22851,18.10714 391.89435,-9.4852031 343.70806,-4.524781 314.1034,26.064481 L 302.34551,38.155507 290.69255,26.167829 C 261.08789,-4.524781 212.9016,-9.4852031 180.56743,18.10714 c -37.05831,31.622683 -39.05295,88.46085 -5.87894,122.77042 z m 304.44514,80.19341 c -12.38782,-11.05757 -31.7043,-10.33421 -44.72194,0 l -97.00252,76.36981 c -11.86284,9.40415 -26.66521,14.46788 -41.99244,14.46788 H 285.5485 c -9.23837,0 -16.79701,-7.4406 -16.79701,-16.53475 0,-9.09407 7.55864,-16.53471 16.79701,-16.53471 h 82.20023 c 16.69194,0 32.22916,-11.26428 34.9587,-27.489 3.46435,-20.66842 -12.70277,-38.64994 -33.17405,-38.64994 H 201.56364 c -28.34488,0 -55.74494,9.61081 -77.79096,27.179 L 74.956483,396.85592 H 16.796969 C 7.5586356,396.85592 0,404.29656 0,413.39063 v 99.20844 c 0,9.09415 7.5586356,16.53476 16.796969,16.53476 H 391.36941 c 15.22228,0 30.02465,-5.06378 41.99248,-14.46788 L 592.09328,389.62201 c 15.95713,-12.50445 17.21692,-36.47981 1.36475,-50.53432 z"
         inkscape:connector-curvature="0"
         style="fill:#ffffff;stroke-width:1.04158354" />
    </pattern>
    <pattern
       patternUnits="userSpaceOnUse"
       width="604.72442"
       height="529.13383"
       patternTransform="matrix(0.26458333,0,0,0.26458333,32.307216,44.596519)"
       id="pattern3816-6">
      <path
         id="path3814-7"
         d="m 289.01289,258.89428 c 7.34869,7.64723 19.31652,7.64723 26.77021,0 L 430.10745,140.87756 C 463.2815,106.56799 461.39181,49.729823 424.22851,18.10714 391.89435,-9.4852031 343.70806,-4.524781 314.1034,26.064481 L 302.34551,38.155507 290.69255,26.167829 C 261.08789,-4.524781 212.9016,-9.4852031 180.56743,18.10714 c -37.05831,31.622683 -39.05295,88.46085 -5.87894,122.77042 z m 304.44514,80.19341 c -12.38782,-11.05757 -31.7043,-10.33421 -44.72194,0 l -97.00252,76.36981 c -11.86284,9.40415 -26.66521,14.46788 -41.99244,14.46788 H 285.5485 c -9.23837,0 -16.79701,-7.4406 -16.79701,-16.53475 0,-9.09407 7.55864,-16.53471 16.79701,-16.53471 h 82.20023 c 16.69194,0 32.22916,-11.26428 34.9587,-27.489 3.46435,-20.66842 -12.70277,-38.64994 -33.17405,-38.64994 H 201.56364 c -28.34488,0 -55.74494,9.61081 -77.79096,27.179 L 74.956483,396.85592 H 16.796969 C 7.5586356,396.85592 0,404.29656 0,413.39063 v 99.20844 c 0,9.09415 7.5586356,16.53476 16.796969,16.53476 H 391.36941 c 15.22228,0 30.02465,-5.06378 41.99248,-14.46788 L 592.09328,389.62201 c 15.95713,-12.50445 17.21692,-36.47981 1.36475,-50.53432 z"
         inkscape:connector-curvature="0"
         style="fill:#ffffff;stroke-width:1.04158354" />
    </pattern>
    <pattern
       id="pattern3816-62"
       patternTransform="matrix(0.26458333,0,0,0.26458333,32.307216,44.596519)"
       height="529.13383"
       width="604.72442"
       patternUnits="userSpaceOnUse">
      <path
         style="fill:#ffffff;stroke-width:1.04158354"
         inkscape:connector-curvature="0"
         d="m 289.01289,258.89428 c 7.34869,7.64723 19.31652,7.64723 26.77021,0 L 430.10745,140.87756 C 463.2815,106.56799 461.39181,49.729823 424.22851,18.10714 391.89435,-9.4852031 343.70806,-4.524781 314.1034,26.064481 L 302.34551,38.155507 290.69255,26.167829 C 261.08789,-4.524781 212.9016,-9.4852031 180.56743,18.10714 c -37.05831,31.622683 -39.05295,88.46085 -5.87894,122.77042 z m 304.44514,80.19341 c -12.38782,-11.05757 -31.7043,-10.33421 -44.72194,0 l -97.00252,76.36981 c -11.86284,9.40415 -26.66521,14.46788 -41.99244,14.46788 H 285.5485 c -9.23837,0 -16.79701,-7.4406 -16.79701,-16.53475 0,-9.09407 7.55864,-16.53471 16.79701,-16.53471 h 82.20023 c 16.69194,0 32.22916,-11.26428 34.9587,-27.489 3.46435,-20.66842 -12.70277,-38.64994 -33.17405,-38.64994 H 201.56364 c -28.34488,0 -55.74494,9.61081 -77.79096,27.179 L 74.956483,396.85592 H 16.796969 C 7.5586356,396.85592 0,404.29656 0,413.39063 v 99.20844 c 0,9.09415 7.5586356,16.53476 16.796969,16.53476 H 391.36941 c 15.22228,0 30.02465,-5.06378 41.99248,-14.46788 L 592.09328,389.62201 c 15.95713,-12.50445 17.21692,-36.47981 1.36475,-50.53432 z"
         id="path3814-9" />
    </pattern>
    <pattern
       id="pattern3816-6-2"
       patternTransform="matrix(0.26458333,0,0,0.26458333,32.307216,44.596519)"
       height="529.13383"
       width="604.72442"
       patternUnits="userSpaceOnUse">
      <path
         style="fill:#ffffff;stroke-width:1.04158354"
         inkscape:connector-curvature="0"
         d="m 289.01289,258.89428 c 7.34869,7.64723 19.31652,7.64723 26.77021,0 L 430.10745,140.87756 C 463.2815,106.56799 461.39181,49.729823 424.22851,18.10714 391.89435,-9.4852031 343.70806,-4.524781 314.1034,26.064481 L 302.34551,38.155507 290.69255,26.167829 C 261.08789,-4.524781 212.9016,-9.4852031 180.56743,18.10714 c -37.05831,31.622683 -39.05295,88.46085 -5.87894,122.77042 z m 304.44514,80.19341 c -12.38782,-11.05757 -31.7043,-10.33421 -44.72194,0 l -97.00252,76.36981 c -11.86284,9.40415 -26.66521,14.46788 -41.99244,14.46788 H 285.5485 c -9.23837,0 -16.79701,-7.4406 -16.79701,-16.53475 0,-9.09407 7.55864,-16.53471 16.79701,-16.53471 h 82.20023 c 16.69194,0 32.22916,-11.26428 34.9587,-27.489 3.46435,-20.66842 -12.70277,-38.64994 -33.17405,-38.64994 H 201.56364 c -28.34488,0 -55.74494,9.61081 -77.79096,27.179 L 74.956483,396.85592 H 16.796969 C 7.5586356,396.85592 0,404.29656 0,413.39063 v 99.20844 c 0,9.09415 7.5586356,16.53476 16.796969,16.53476 H 391.36941 c 15.22228,0 30.02465,-5.06378 41.99248,-14.46788 L 592.09328,389.62201 c 15.95713,-12.50445 17.21692,-36.47981 1.36475,-50.53432 z"
         id="path3814-7-7" />
    </pattern>
    <pattern
       patternUnits="userSpaceOnUse"
       width="585.8268"
       height="529.13384"
       patternTransform="matrix(0.26458333,0,0,0.26458333,21.800282,27.817825)"
       id="pattern5482">
      <path
         style="fill:#d74961;fill-opacity:1;stroke-width:1.02517974"
         id="path5480"
         d="m 279.98127,258.89423 c 7.11901,7.64734 18.71286,7.64734 25.93361,0 L 416.66664,140.87756 C 448.80396,106.56798 446.97331,49.729823 410.97138,18.107139 379.64768,-9.4852034 332.96722,-4.5247813 304.28768,26.064485 L 292.89721,38.155511 281.60847,26.167825 C 252.92897,-4.5247813 206.24846,-9.4852034 174.92473,18.107139 139.02448,49.729823 137.09217,106.56798 169.2295,140.87756 Z m 294.93124,80.19347 c -12.00072,-11.05761 -30.71358,-10.33421 -43.32439,0 l -93.97118,76.36982 c -11.49219,9.40414 -25.83194,14.46792 -40.68023,14.46792 H 276.62513 c -8.94962,0 -16.27204,-7.44065 -16.27204,-16.53479 0,-9.09408 7.32242,-16.53472 16.27204,-16.53472 h 79.63147 c 16.17033,0 31.22199,-11.26428 33.86623,-27.48899 C 393.4789,348.69851 377.81706,330.717 357.9855,330.717 H 195.26481 c -27.45911,0 -54.00292,9.61081 -75.36001,27.17896 L 72.614101,396.85593 H 16.272064 C 7.3224302,396.85593 0,404.29657 0,413.39065 v 99.20844 c 0,9.09411 7.3224302,16.53475 16.272064,16.53475 H 379.13918 c 14.74651,0 29.0863,-5.06377 40.68019,-14.46792 L 573.59035,389.62199 c 15.4585,-12.50438 16.67891,-36.47977 1.32216,-50.53429 z"
         inkscape:connector-curvature="0" />
    </pattern>
    <pattern
       patternUnits="userSpaceOnUse"
       width="585.8268"
       height="529.13384"
       patternTransform="matrix(0.26458333,0,0,0.26458333,21.800282,27.817825)"
       id="pattern5493">
      <path
         style="fill:#d74961;fill-opacity:1;stroke-width:1.02517974"
         id="path5491"
         d="m 279.98127,258.89423 c 7.11901,7.64734 18.71286,7.64734 25.93361,0 L 416.66664,140.87756 C 448.80396,106.56798 446.97331,49.729823 410.97138,18.107139 379.64768,-9.4852034 332.96722,-4.5247813 304.28768,26.064485 L 292.89721,38.155511 281.60847,26.167825 C 252.92897,-4.5247813 206.24846,-9.4852034 174.92473,18.107139 139.02448,49.729823 137.09217,106.56798 169.2295,140.87756 Z m 294.93124,80.19347 c -12.00072,-11.05761 -30.71358,-10.33421 -43.32439,0 l -93.97118,76.36982 c -11.49219,9.40414 -25.83194,14.46792 -40.68023,14.46792 H 276.62513 c -8.94962,0 -16.27204,-7.44065 -16.27204,-16.53479 0,-9.09408 7.32242,-16.53472 16.27204,-16.53472 h 79.63147 c 16.17033,0 31.22199,-11.26428 33.86623,-27.48899 C 393.4789,348.69851 377.81706,330.717 357.9855,330.717 H 195.26481 c -27.45911,0 -54.00292,9.61081 -75.36001,27.17896 L 72.614101,396.85593 H 16.272064 C 7.3224302,396.85593 0,404.29657 0,413.39065 v 99.20844 c 0,9.09411 7.3224302,16.53475 16.272064,16.53475 H 379.13918 c 14.74651,0 29.0863,-5.06377 40.68019,-14.46792 L 573.59035,389.62199 c 15.4585,-12.50438 16.67891,-36.47977 1.32216,-50.53429 z"
         inkscape:connector-curvature="0" />
    </pattern>
    <pattern
       patternUnits="userSpaceOnUse"
       width="576.03182"
       height="512.02156"
       patternTransform="matrix(0.26458333,0,0,0.26458333,31.707992,28.18048)"
       id="pattern5525">
      <path
         style="fill:#d74961;fill-opacity:1;stroke-width:0.99999994"
         id="path5504"
         d="m 275.29999,250.52155 c 7.00002,7.4 18.40002,7.4 25.50002,0 l 108.89998,-114.2 c 31.59998,-33.2 29.79998,-88.199999 -5.60002,-118.799999 C 373.3,-9.1784493 327.39998,-4.3784493 299.19998,25.221552 l -11.19999,11.7 -11.09998,-11.600001 C 248.7,-4.3784493 202.8,-9.1784493 172,17.521551 c -35.3,30.6 -37.2,85.599999 -5.6,118.799999 z M 565.3,328.12154 c -11.80003,-10.7 -30.20001,-9.99999 -42.6,0 l -92.4,73.9 c -11.29999,9.10001 -25.40001,14.00002 -40.00003,14.00002 H 272.00001 c -8.80003,0 -16.00001,-7.2 -16.00001,-16.00003 0,-8.79999 7.19998,-15.99999 16.00001,-15.99999 h 78.29998 c 15.90002,0 30.7,-10.9 33.30002,-26.60001 C 386.89999,337.42156 371.5,320.02156 351.99998,320.02156 H 192 c -27,0 -53.1,9.29998 -74.1,26.29999 L 71.4,384.02154 H 15.999999 C 7.2,384.02154 0,391.22154 0,400.02153 v 96 c 0,8.80003 7.2,16.00003 15.999999,16.00003 H 372.80001 c 14.49996,0 28.59998,-4.90001 39.99998,-14.00002 l 151.2,-120.99998 c 15.20002,-12.10001 16.40002,-35.3 1.30001,-48.90002 z"
         inkscape:connector-curvature="0" />
    </pattern>
    <pattern
       id="pattern3816-7"
       patternTransform="matrix(0.26458333,0,0,0.26458333,32.307216,44.596519)"
       height="529.13383"
       width="604.72442"
       patternUnits="userSpaceOnUse">
      <path
         style="fill:#ffffff;stroke-width:1.04158354"
         inkscape:connector-curvature="0"
         d="m 289.01289,258.89428 c 7.34869,7.64723 19.31652,7.64723 26.77021,0 L 430.10745,140.87756 C 463.2815,106.56799 461.39181,49.729823 424.22851,18.10714 391.89435,-9.4852031 343.70806,-4.524781 314.1034,26.064481 L 302.34551,38.155507 290.69255,26.167829 C 261.08789,-4.524781 212.9016,-9.4852031 180.56743,18.10714 c -37.05831,31.622683 -39.05295,88.46085 -5.87894,122.77042 z m 304.44514,80.19341 c -12.38782,-11.05757 -31.7043,-10.33421 -44.72194,0 l -97.00252,76.36981 c -11.86284,9.40415 -26.66521,14.46788 -41.99244,14.46788 H 285.5485 c -9.23837,0 -16.79701,-7.4406 -16.79701,-16.53475 0,-9.09407 7.55864,-16.53471 16.79701,-16.53471 h 82.20023 c 16.69194,0 32.22916,-11.26428 34.9587,-27.489 3.46435,-20.66842 -12.70277,-38.64994 -33.17405,-38.64994 H 201.56364 c -28.34488,0 -55.74494,9.61081 -77.79096,27.179 L 74.956483,396.85592 H 16.796969 C 7.5586356,396.85592 0,404.29656 0,413.39063 v 99.20844 c 0,9.09415 7.5586356,16.53476 16.796969,16.53476 H 391.36941 c 15.22228,0 30.02465,-5.06378 41.99248,-14.46788 L 592.09328,389.62201 c 15.95713,-12.50445 17.21692,-36.47981 1.36475,-50.53432 z"
         id="path3814-92" />
    </pattern>
    <pattern
       patternTransform="matrix(0.26458333,0,0,0.26458333,13.009796,29.755094)"
       id="pattern3821"
       xlink:href="#pattern3816-6-0"
       inkscape:collect="always" />
    <pattern
       id="pattern3816-6-0"
       patternTransform="matrix(0.26458333,0,0,0.26458333,32.307216,44.596519)"
       height="529.13383"
       width="604.72442"
       patternUnits="userSpaceOnUse">
      <path
         style="fill:#ffffff;stroke-width:1.04158354"
         inkscape:connector-curvature="0"
         d="m 289.01289,258.89428 c 7.34869,7.64723 19.31652,7.64723 26.77021,0 L 430.10745,140.87756 C 463.2815,106.56799 461.39181,49.729823 424.22851,18.10714 391.89435,-9.4852031 343.70806,-4.524781 314.1034,26.064481 L 302.34551,38.155507 290.69255,26.167829 C 261.08789,-4.524781 212.9016,-9.4852031 180.56743,18.10714 c -37.05831,31.622683 -39.05295,88.46085 -5.87894,122.77042 z m 304.44514,80.19341 c -12.38782,-11.05757 -31.7043,-10.33421 -44.72194,0 l -97.00252,76.36981 c -11.86284,9.40415 -26.66521,14.46788 -41.99244,14.46788 H 285.5485 c -9.23837,0 -16.79701,-7.4406 -16.79701,-16.53475 0,-9.09407 7.55864,-16.53471 16.79701,-16.53471 h 82.20023 c 16.69194,0 32.22916,-11.26428 34.9587,-27.489 3.46435,-20.66842 -12.70277,-38.64994 -33.17405,-38.64994 H 201.56364 c -28.34488,0 -55.74494,9.61081 -77.79096,27.179 L 74.956483,396.85592 H 16.796969 C 7.5586356,396.85592 0,404.29656 0,413.39063 v 99.20844 c 0,9.09415 7.5586356,16.53476 16.796969,16.53476 H 391.36941 c 15.22228,0 30.02465,-5.06378 41.99248,-14.46788 L 592.09328,389.62201 c 15.95713,-12.50445 17.21692,-36.47981 1.36475,-50.53432 z"
         id="path3814-7-2" />
    </pattern>
    <pattern
       patternUnits="userSpaceOnUse"
       width="610.6273"
       height="535.07797"
       patternTransform="matrix(0.26458333,0,0,0.26458333,27.291777,25.180476)"
       id="pattern5599">
      <g
         id="g5597"
         transform="matrix(3.7795276,0,0,3.7795276,-46.396762,-110.02952)">
        <g
           inkscape:label="Layer 2"
           id="g5591">
          <rect
             id="rect5589"
             y="29.755096"
             x="13.009795"
             height="139.99998"
             width="160"
             style="display:inline;fill:url(#pattern3821);stroke:none;stroke-width:1" />
        </g>
        <g
           style="display:inline"
           id="g5595"
           inkscape:label="Layer 1">
          <path
             style="fill:#000000;stroke:#ffffff;stroke-width:1.57599998;stroke-miterlimit:4;stroke-dasharray:none;stroke-opacity:1"
             inkscape:connector-curvature="0"
             d="m 89.531813,98.395807 c 1.944334,2.023333 5.110824,2.023333 7.082944,0 L 126.86308,67.170549 c 8.7773,-9.077741 8.27732,-24.116172 -1.55547,-32.483007 -8.55508,-7.300474 -21.30437,-5.988029 -29.137273,2.10538 l -3.11094,3.199084 -3.083174,-3.17174 c -7.8329,-8.120753 -20.582198,-9.433198 -29.13728,-2.132724 -9.805012,8.366835 -10.332761,23.405266 -1.555469,32.483007 z m 80.551107,21.217843 c -3.27761,-2.92565 -8.38843,-2.73426 -11.83268,0 l -25.66525,20.20618 c -3.13871,2.48818 -7.05517,3.82796 -11.1105,3.82796 H 88.615193 c -2.44432,0 -4.44421,-1.96866 -4.44421,-4.37482 0,-2.40614 1.99989,-4.37481 4.44421,-4.37481 H 110.364 c 4.41641,0 8.5273,-2.98034 9.24949,-7.27313 0.91661,-5.46852 -3.36094,-10.22613 -8.7773,-10.22613 H 66.394191 c -7.499584,0 -14.749183,2.54286 -20.582194,7.19111 L 32.896046,134.89816 H 17.508008 c -2.444309,0 -4.444198,1.96867 -4.444198,4.37481 v 26.2489 c 0,2.40616 1.999889,4.37482 4.444198,4.37482 h 99.105632 c 4.02756,0 7.94402,-1.33979 11.11051,-3.82796 l 41.99768,-33.08454 c 4.22199,-3.30847 4.55531,-9.65195 0.36109,-13.37054 z"
             id="path5593" />
        </g>
      </g>
    </pattern>
    <pattern
       patternUnits="userSpaceOnUse"
       width="576.03182"
       height="512.02155"
       patternTransform="matrix(0.26458333,0,0,0.26458333,-13.838139,44.055481)"
       id="pattern5616">
      <path
         inkscape:connector-curvature="0"
         d="m 275.3,250.52156 c 7,7.39997 18.4,7.39997 25.5,0 L 409.69998,136.32155 c 31.6,-33.2 29.8,-88.199999 -5.60001,-118.799999 -30.79998,-26.7 -76.69996,-21.9 -104.89997,7.699998 L 288,36.921552 276.9,25.321551 c -28.2,-29.7 -74.1,-34.5 -104.9,-7.8 -35.3,30.6 -37.2,85.599999 -5.6,118.799999 z m 290,77.59997 c -11.80002,-10.69999 -30.20001,-9.99998 -42.6,0 l -92.4,73.90001 c -11.3,9.10001 -25.40002,14.00001 -40.00003,14.00001 H 272 c -8.8,0 -16,-7.2 -16,-16.00002 0,-8.79999 7.2,-15.99999 16,-15.99999 h 78.30002 c 15.89998,0 30.69996,-10.90001 33.29998,-26.59997 3.29998,-20.00002 -12.10001,-37.40002 -31.59999,-37.40002 H 192 c -27,0 -53.1,9.29998 -74.1,26.3 L 71.399998,384.02154 H 16.000001 C 7.2,384.02154 0,391.22154 0,400.02153 v 96 c 0,8.80002 7.2,16.00002 16.000001,16.00002 H 372.8 c 14.49997,0 28.59998,-4.9 39.99998,-14.00001 L 564,377.02155 c 15.20001,-12.1 16.40001,-35.29999 1.3,-48.90002 z"
         id="path7896-2"
         style="fill:#d74961;fill-opacity:1;stroke-width:0.99999994" />
    </pattern>
  </defs>
  <sodipodi:namedview
     id="base"
     pagecolor="#ffffff"
     bordercolor="#666666"
     borderopacity="1.0"
     inkscape:pageopacity="0.0"
     inkscape:pageshadow="2"
     inkscape:zoom="1.4"
     inkscape:cx="281.07025"
     inkscape:cy="753.47082"
     inkscape:document-units="mm"
     inkscape:current-layer="layer1"
     showgrid="false"
     showguides="true"
     inkscape:pagecheckerboard="true"
     inkscape:window-width="1920"
     inkscape:window-height="1052"
     inkscape:window-x="1680"
     inkscape:window-y="0"
     inkscape:window-maximized="1" />
  <metadata
     id="metadata5">
    <rdf:RDF>
      <cc:Work
         rdf:about="">
        <dc:format>image/svg+xml</dc:format>
        <dc:type
           rdf:resource="http://purl.org/dc/dcmitype/StillImage" />
        <dc:title></dc:title>
      </cc:Work>
    </rdf:RDF>
  </metadata>
  <g
     inkscape:groupmode="layer"
     id="layer2"
     inkscape:label="Layer 2" />
  <g
     inkscape:label="Layer 1"
     inkscape:groupmode="layer"
     id="layer1"
     style="display:inline">
    <path
       style="fill:#009779;fill-opacity:1;stroke:#000000;stroke-width:1.06500006;stroke-miterlimit:4;stroke-dasharray:none;stroke-opacity:1"
       id="path7896"
       d="m 100.01207,94.275319 c 1.85208,1.957917 4.86833,1.957917 6.74687,0 l 28.81313,-30.215417 c 8.36083,-8.784166 7.88458,-23.33625 -1.48167,-31.432499 -8.14916,-7.064375 -20.29354,-5.794375 -27.75479,2.037291 l -2.96333,3.095625 -2.93688,-3.069166 c -7.461247,-7.858125 -19.605622,-9.128125 -27.754789,-2.06375 -9.339791,8.096249 -9.8425,22.648333 -1.481666,31.432499 z m 76.72917,20.531671 c -3.12209,-2.83105 -7.99042,-2.64584 -11.27125,0 l -24.4475,19.5527 c -2.98979,2.40771 -6.72042,3.70417 -10.58334,3.70417 H 99.138945 c -2.328334,0 -4.233334,-1.905 -4.233334,-4.23334 0,-2.32833 1.905,-4.23333 4.233334,-4.23333 h 20.716875 c 4.20687,0 8.12271,-2.88395 8.81063,-7.03791 0.87312,-5.29167 -3.20146,-9.89542 -8.36084,-9.89542 H 77.972278 c -7.14375,0 -14.049375,2.46063 -19.605625,6.95854 l -12.303125,9.97479 H 31.405611 c -2.328333,0 -4.233333,1.905 -4.233333,4.23333 v 25.4 c 0,2.32834 1.905,4.23334 4.233333,4.23334 h 94.403329 c 3.83646,0 7.56709,-1.29646 10.58334,-3.70417 l 40.005,-32.01458 c 4.02167,-3.20146 4.33917,-9.33979 0.34396,-12.93812 z"
       inkscape:connector-curvature="0" />
  </g>
</svg>
