<?xml version="1.0" encoding="UTF-8" standalone="no"?>
<!DOCTYPE svg PUBLIC "-//W3C//DTD SVG 1.1//EN" "http://www.w3.org/Graphics/SVG/1.1/DTD/svg11.dtd">
<svg version="1.1" xmlns="http://www.w3.org/2000/svg" xmlns:xlink="http://www.w3.org/1999/xlink" preserveAspectRatio="xMidYMid meet" viewBox="0 0 640 640" width="640" height="640"><defs><path d="M579.22 14.22C540.53 25.64 231.01 117.05 192.32 128.48C176.24 133.56 165.23 148.43 165.23 165.36C165.23 196.97 165.23 449.84 165.23 481.45C153.08 478.57 140.18 476.71 126.54 476.71C62.43 476.71 10.47 511.35 10.47 554.09C10.47 596.83 62.43 631.47 126.54 631.47C190.65 631.47 242.62 596.83 242.62 554.09C242.62 535.25 242.62 441.07 242.62 271.53L552.15 180.82C552.15 314.77 552.15 389.18 552.15 404.06C540 401.18 527.1 399.32 513.46 399.32C449.35 399.32 397.38 433.96 397.38 476.71C397.38 519.45 449.35 554.09 513.46 554.09C577.57 554.09 629.53 519.45 629.53 476.71C629.53 448.33 629.53 306.47 629.52 51.11C612.51 21.27 595.75 8.98 579.22 14.22Z" id="b1P189fVmY"></path></defs><g><g><g><use xlink:href="#b1P189fVmY" opacity="1" fill="#009779" fill-opacity="1"></use><g><use xlink:href="#b1P189fVmY" opacity="1" fill-opacity="0" stroke="#000000" stroke-width="5" stroke-opacity="1"></use></g></g></g></g></svg>