<?xml version="1.0" encoding="UTF-8" standalone="no"?>
<!DOCTYPE svg PUBLIC "-//W3C//DTD SVG 1.1//EN" "http://www.w3.org/Graphics/SVG/1.1/DTD/svg11.dtd">
<svg version="1.1" xmlns="http://www.w3.org/2000/svg" xmlns:xlink="http://www.w3.org/1999/xlink" preserveAspectRatio="xMidYMid meet" viewBox="0 0 640 640" width="640" height="640"><defs><path d="M567.48 27.32C529.67 38.49 227.2 127.81 189.39 138.98C173.67 143.94 162.92 158.47 162.92 175.02C162.92 205.9 162.92 453.01 162.92 483.9C151.04 481.09 138.44 479.27 125.11 479.27C62.46 479.27 11.68 513.12 11.68 554.89C11.68 596.66 62.46 630.51 125.11 630.51C187.76 630.51 238.54 596.66 238.54 554.89C238.54 536.48 238.54 444.44 238.54 278.77L541.02 190.13C541.02 321.02 541.02 393.74 541.02 408.28C529.15 405.47 516.54 403.65 503.21 403.65C440.56 403.65 389.78 437.5 389.78 479.27C389.78 521.04 440.56 554.89 503.21 554.89C565.86 554.89 616.64 521.04 616.64 479.27C616.64 451.54 616.64 312.91 616.63 63.37C600.01 34.22 583.63 22.2 567.48 27.32Z" id="abeEACorz"></path></defs><g><g><g><use xlink:href="#abeEACorz" opacity="1" fill="#000000" fill-opacity="1"></use><g><use xlink:href="#abeEACorz" opacity="1" fill-opacity="0" stroke="#ffffff" stroke-width="5" stroke-opacity="1"></use></g></g></g></g></svg>