<?xml version="1.0" encoding="UTF-8" standalone="no"?>
<svg
   xmlns:dc="http://purl.org/dc/elements/1.1/"
   xmlns:cc="http://creativecommons.org/ns#"
   xmlns:rdf="http://www.w3.org/1999/02/22-rdf-syntax-ns#"
   xmlns:svg="http://www.w3.org/2000/svg"
   xmlns="http://www.w3.org/2000/svg"
   xmlns:sodipodi="http://sodipodi.sourceforge.net/DTD/sodipodi-0.dtd"
   xmlns:inkscape="http://www.inkscape.org/namespaces/inkscape"
   aria-hidden="true"
   focusable="false"
   data-prefix="fas"
   data-icon="music"
   class="svg-inline--fa fa-music fa-w-16"
   role="img"
   viewBox="0 0 512 512"
   version="1.1"
   id="svg6428"
   sodipodi:docname="music-solid-16.svg"
   inkscape:version="0.92.3 (2405546, 2018-03-11)">
  <metadata
     id="metadata6434">
    <rdf:RDF>
      <cc:Work
         rdf:about="">
        <dc:format>image/svg+xml</dc:format>
        <dc:type
           rdf:resource="http://purl.org/dc/dcmitype/StillImage" />
        <dc:title></dc:title>
      </cc:Work>
    </rdf:RDF>
  </metadata>
  <defs
     id="defs6432" />
  <sodipodi:namedview
     pagecolor="#ffffff"
     bordercolor="#666666"
     borderopacity="1"
     objecttolerance="10"
     gridtolerance="10"
     guidetolerance="10"
     inkscape:pageopacity="0"
     inkscape:pageshadow="2"
     inkscape:window-width="778"
     inkscape:window-height="480"
     id="namedview6430"
     showgrid="false"
     inkscape:zoom="0.4609375"
     inkscape:cx="256"
     inkscape:cy="256"
     inkscape:window-x="639"
     inkscape:window-y="261"
     inkscape:window-maximized="0"
     inkscape:current-layer="svg6428" />
  <path
     fill="currentColor"
     d="M511.99 32.01c0-21.71-21.1-37.01-41.6-30.51L150.4 96c-13.3 4.2-22.4 16.5-22.4 30.5v261.42c-10.05-2.38-20.72-3.92-32-3.92-53.02 0-96 28.65-96 64s42.98 64 96 64 96-28.65 96-64V214.31l256-75.02v184.63c-10.05-2.38-20.72-3.92-32-3.92-53.02 0-96 28.65-96 64s42.98 64 96 64 96-28.65 96-64l-.01-351.99z"
     id="path6426"
     style="fill:#d74961;fill-opacity:1" />
</svg>
