<?xml version="1.0" encoding="UTF-8" standalone="no"?>
<!DOCTYPE svg PUBLIC "-//W3C//DTD SVG 1.1//EN" "http://www.w3.org/Graphics/SVG/1.1/DTD/svg11.dtd">
<svg version="1.1" xmlns="http://www.w3.org/2000/svg" xmlns:xlink="http://www.w3.org/1999/xlink" preserveAspectRatio="xMidYMid meet" viewBox="0 0 640 640" width="640" height="640"><defs><path d="M582.14 11.93C543.01 23.48 230.01 115.92 190.88 127.47C174.62 132.61 163.49 147.65 163.49 164.77C163.49 196.73 163.49 452.44 163.49 484.41C151.2 481.5 138.16 479.62 124.36 479.62C59.54 479.62 6.98 514.65 6.98 557.87C6.98 601.09 59.54 636.12 124.36 636.12C189.19 636.12 241.75 601.09 241.75 557.87C241.75 538.82 241.75 443.58 241.75 272.13L554.76 180.4C554.76 315.85 554.76 391.11 554.76 406.16C542.47 403.24 529.43 401.36 515.64 401.36C450.81 401.36 398.25 436.39 398.25 479.62C398.25 522.84 450.81 557.87 515.64 557.87C580.46 557.87 633.02 522.84 633.02 479.62C633.02 450.92 633.01 307.46 633 49.23C615.8 19.06 598.85 6.63 582.14 11.93Z" id="csxv1D5f1"></path></defs><g><g><g><use xlink:href="#csxv1D5f1" opacity="1" fill="#ff3b41" fill-opacity="1"></use><g><use xlink:href="#csxv1D5f1" opacity="1" fill-opacity="0" stroke="#000000" stroke-width="5" stroke-opacity="1"></use></g></g></g></g></svg>