<?xml version="1.0" encoding="UTF-8" standalone="no"?>
<!DOCTYPE svg PUBLIC "-//W3C//DTD SVG 1.1//EN" "http://www.w3.org/Graphics/SVG/1.1/DTD/svg11.dtd">
<svg version="1.1" xmlns="http://www.w3.org/2000/svg" xmlns:xlink="http://www.w3.org/1999/xlink" preserveAspectRatio="xMidYMid meet" viewBox="0 0 640 640" width="640" height="640"><defs><path d="M582.46 8.11C543.29 19.68 229.9 112.23 190.72 123.8C174.44 128.94 163.3 144 163.3 161.14C163.3 193.14 163.3 449.17 163.3 481.18C150.99 478.26 137.93 476.38 124.12 476.38C59.21 476.38 6.6 511.45 6.6 554.73C6.6 598.01 59.21 633.08 124.12 633.08C189.03 633.08 241.65 598.01 241.65 554.73C241.65 535.66 241.65 440.29 241.65 268.64L555.05 176.8C555.05 312.41 555.05 387.76 555.05 402.83C542.75 399.91 529.69 398.03 515.88 398.03C450.97 398.03 398.35 433.1 398.35 476.38C398.35 519.65 450.97 554.73 515.88 554.73C580.79 554.73 633.4 519.65 633.4 476.38C633.4 447.65 633.4 304.01 633.39 45.46C616.17 15.25 599.19 2.8 582.46 8.11Z" id="f7el32Aac"></path></defs><g><g><g><use xlink:href="#f7el32Aac" opacity="1" fill="#d74961" fill-opacity="1"></use><g><use xlink:href="#f7el32Aac" opacity="1" fill-opacity="0" stroke="#000000" stroke-width="5" stroke-opacity="1"></use></g></g></g></g></svg>