<?xml version="1.0" encoding="UTF-8" standalone="no"?>
<!DOCTYPE svg PUBLIC "-//W3C//DTD SVG 1.1//EN" "http://www.w3.org/Graphics/SVG/1.1/DTD/svg11.dtd">
<svg version="1.1" xmlns="http://www.w3.org/2000/svg" xmlns:xlink="http://www.w3.org/1999/xlink" preserveAspectRatio="xMidYMid meet" viewBox="0 0 640 640" width="640" height="640"><defs><path d="M573.2 16.55C534.95 27.85 228.93 118.22 190.68 129.52C174.78 134.54 163.9 149.24 163.9 165.98C163.9 197.23 163.9 447.24 163.9 478.49C151.88 475.65 139.13 473.81 125.64 473.81C62.26 473.81 10.88 508.05 10.88 550.31C10.88 592.57 62.26 626.82 125.64 626.82C189.03 626.82 240.41 592.57 240.41 550.31C240.41 531.69 240.41 438.57 240.41 270.95L546.44 181.27C546.44 313.7 546.44 387.27 546.44 401.98C534.42 399.14 521.67 397.3 508.18 397.3C444.8 397.3 393.42 431.55 393.42 473.81C393.42 516.06 444.8 550.31 508.18 550.31C571.57 550.31 622.95 516.06 622.95 473.81C622.94 445.75 622.94 305.49 622.93 53.02C606.12 23.53 589.54 11.37 573.2 16.55Z" id="b2tCYSUz4W"></path></defs><g><g><g><use xlink:href="#b2tCYSUz4W" opacity="1" fill="#ff8f3e" fill-opacity="1"></use><g><use xlink:href="#b2tCYSUz4W" opacity="1" fill-opacity="0" stroke="#000000" stroke-width="5" stroke-opacity="1"></use></g></g></g></g></svg>