<?xml version="1.0" encoding="UTF-8" standalone="no"?>
<svg
   xmlns:dc="http://purl.org/dc/elements/1.1/"
   xmlns:cc="http://creativecommons.org/ns#"
   xmlns:rdf="http://www.w3.org/1999/02/22-rdf-syntax-ns#"
   xmlns:svg="http://www.w3.org/2000/svg"
   xmlns="http://www.w3.org/2000/svg"
   xmlns:xlink="http://www.w3.org/1999/xlink"
   xmlns:sodipodi="http://sodipodi.sourceforge.net/DTD/sodipodi-0.dtd"
   xmlns:inkscape="http://www.inkscape.org/namespaces/inkscape"
   version="1.1"
   preserveAspectRatio="xMidYMid meet"
   viewBox="0 0 640 640"
   width="640"
   height="640"
   id="svg17"
   sodipodi:docname="music-solid-festival.svg"
   inkscape:version="0.92.3 (2405546, 2018-03-11)">
  <metadata
     id="metadata21">
    <rdf:RDF>
      <cc:Work
         rdf:about="">
        <dc:format>image/svg+xml</dc:format>
        <dc:type
           rdf:resource="http://purl.org/dc/dcmitype/StillImage" />
        <dc:title></dc:title>
      </cc:Work>
    </rdf:RDF>
  </metadata>
  <sodipodi:namedview
     pagecolor="#ffffff"
     bordercolor="#666666"
     borderopacity="1"
     objecttolerance="10"
     gridtolerance="10"
     guidetolerance="10"
     inkscape:pageopacity="0"
     inkscape:pageshadow="2"
     inkscape:window-width="777"
     inkscape:window-height="480"
     id="namedview19"
     showgrid="false"
     inkscape:zoom="0.36875"
     inkscape:cx="320"
     inkscape:cy="320"
     inkscape:window-x="519"
     inkscape:window-y="263"
     inkscape:window-maximized="0"
     inkscape:current-layer="svg17" />
  <defs
     id="defs3">
    <path
       d="M579.22 14.22C540.53 25.64 231.01 117.05 192.32 128.48C176.24 133.56 165.23 148.43 165.23 165.36C165.23 196.97 165.23 449.84 165.23 481.45C153.08 478.57 140.18 476.71 126.54 476.71C62.43 476.71 10.47 511.35 10.47 554.09C10.47 596.83 62.43 631.47 126.54 631.47C190.65 631.47 242.62 596.83 242.62 554.09C242.62 535.25 242.62 441.07 242.62 271.53L552.15 180.82C552.15 314.77 552.15 389.18 552.15 404.06C540 401.18 527.1 399.32 513.46 399.32C449.35 399.32 397.38 433.96 397.38 476.71C397.38 519.45 449.35 554.09 513.46 554.09C577.57 554.09 629.53 519.45 629.53 476.71C629.53 448.33 629.53 306.47 629.52 51.11C612.51 21.27 595.75 8.98 579.22 14.22Z"
       id="b1P189fVmY" />
  </defs>
  <g
     id="g15"
     style="fill:#9678b6;fill-opacity:1">
    <g
       id="g13"
       style="fill:#9678b6;fill-opacity:1">
      <g
         id="g11"
         style="fill:#9678b6;fill-opacity:1">
        <use
           xlink:href="#b1P189fVmY"
           opacity="1"
           fill="#009779"
           fill-opacity="1"
           id="use5"
           style="fill:#9678b6;fill-opacity:1" />
        <g
           id="g9"
           style="fill:#9678b6;fill-opacity:1">
          <use
             xlink:href="#b1P189fVmY"
             opacity="1"
             fill-opacity="0"
             stroke="#000000"
             stroke-width="5"
             stroke-opacity="1"
             id="use7"
             style="fill:#9678b6;fill-opacity:1" />
        </g>
      </g>
    </g>
  </g>
</svg>
