<?xml version="1.0" encoding="UTF-8" standalone="no"?>
<!DOCTYPE svg PUBLIC "-//W3C//DTD SVG 1.1//EN" "http://www.w3.org/Graphics/SVG/1.1/DTD/svg11.dtd">
<svg version="1.1" xmlns="http://www.w3.org/2000/svg" xmlns:xlink="http://www.w3.org/1999/xlink" preserveAspectRatio="xMidYMid meet" viewBox="0 0 640 640" width="640" height="640"><defs><path d="M100 40C66.88 40 40 66.88 40 100C40 144 40 496 40 540C40 573.13 66.88 600 100 600C144 600 496 600 540 600C573.13 600 600 573.13 600 540C600 496 600 144 600 100C600 66.88 573.13 40 540 40C452 40 144 40 100 40Z" id="aUOuxKJWK"></path><mask id="maska2gATJJMa9" x="30" y="30" width="580" height="580" maskUnits="userSpaceOnUse"><rect x="30" y="30" width="580" height="580" fill="white"></rect><use xlink:href="#aUOuxKJWK" opacity="1" fill="black"></use></mask></defs><g><g><g><use xlink:href="#aUOuxKJWK" opacity="1" fill="#000000" fill-opacity="1"></use><g mask="url(#maska2gATJJMa9)"><use xlink:href="#aUOuxKJWK" opacity="1" fill-opacity="0" stroke="#fffcfc" stroke-width="10" stroke-opacity="1"></use></g></g></g></g></svg>