<?xml version="1.0" encoding="UTF-8" standalone="no"?>
<!DOCTYPE svg PUBLIC "-//W3C//DTD SVG 1.1//EN" "http://www.w3.org/Graphics/SVG/1.1/DTD/svg11.dtd">
<svg version="1.1" xmlns="http://www.w3.org/2000/svg" xmlns:xlink="http://www.w3.org/1999/xlink" preserveAspectRatio="xMidYMid meet" viewBox="0 0 640 640" width="640" height="640"><defs><path d="M349.48 202.03C380.89 106.34 398.34 53.17 401.83 42.54C406.74 23.86 392.61 5.43 373.32 5.43C355.62 5.43 214.07 5.43 196.37 5.43C181.63 5.43 169.09 16.36 167.13 30.99C163.19 60.48 131.74 296.41 127.8 325.9C125.47 343.59 139.23 359.32 157.05 359.32C166.77 359.32 215.39 359.32 302.91 359.32C268.92 502.72 250.04 582.39 246.26 598.32C241.84 617 256.09 634.57 274.89 634.57C285.21 634.57 295.04 629.17 300.45 619.83C322.08 582.47 495.09 283.63 516.72 246.27C528.15 226.73 514.02 202.03 491.28 202.03C472.38 202.03 425.11 202.03 349.48 202.03Z" id="aj24dRHQc"></path></defs><g><g><g><use xlink:href="#aj24dRHQc" opacity="1" fill="#ff8f3e" fill-opacity="1"></use><g><use xlink:href="#aj24dRHQc" opacity="1" fill-opacity="0" stroke="#000000" stroke-width="5" stroke-opacity="1"></use></g></g></g></g></svg>