<?xml version="1.0" encoding="UTF-8" standalone="no"?>
<!DOCTYPE svg PUBLIC "-//W3C//DTD SVG 1.1//EN" "http://www.w3.org/Graphics/SVG/1.1/DTD/svg11.dtd">
<svg version="1.1" xmlns="http://www.w3.org/2000/svg" xmlns:xlink="http://www.w3.org/1999/xlink" preserveAspectRatio="xMidYMid meet" viewBox="0 0 640 640" width="640" height="640"><defs><path d="M350.54 205.47C381.75 110.37 399.09 57.53 402.56 46.96C407.44 28.4 393.4 10.08 374.23 10.08C356.64 10.08 215.96 10.08 198.37 10.08C183.71 10.08 171.26 20.95 169.3 35.48C165.4 64.79 134.13 299.27 130.22 328.58C127.9 346.16 141.58 361.79 159.29 361.79C168.95 361.79 217.27 361.79 304.25 361.79C270.47 504.31 251.7 583.49 247.95 599.32C243.56 617.89 257.72 635.35 276.41 635.35C286.66 635.35 296.43 629.98 301.81 620.69C323.3 583.57 495.25 286.56 516.74 249.44C528.1 230.02 514.06 205.47 491.47 205.47C472.67 205.47 425.7 205.47 350.54 205.47Z" id="a2HBoEXfRf"></path></defs><g><g><g><use xlink:href="#a2HBoEXfRf" opacity="1" fill="#ff3b41" fill-opacity="1"></use><g><use xlink:href="#a2HBoEXfRf" opacity="1" fill-opacity="0" stroke="#000000" stroke-width="5" stroke-opacity="1"></use></g></g></g></g></svg>