<?xml version="1.0" encoding="UTF-8" standalone="no"?>
<!DOCTYPE svg PUBLIC "-//W3C//DTD SVG 1.1//EN" "http://www.w3.org/Graphics/SVG/1.1/DTD/svg11.dtd">
<svg version="1.1" xmlns="http://www.w3.org/2000/svg" xmlns:xlink="http://www.w3.org/1999/xlink" preserveAspectRatio="xMidYMid meet" viewBox="0 0 640 640" width="640" height="640"><defs><path d="M351.31 205.09C382.53 109.98 399.87 57.14 403.33 46.57C408.22 28.01 394.18 9.69 375 9.69C357.42 9.69 216.73 9.69 199.14 9.69C184.49 9.69 172.03 20.56 170.08 35.09C166.17 64.4 134.91 298.88 131 328.19C128.68 345.77 142.36 361.41 160.07 361.41C169.73 361.41 218.05 361.41 305.03 361.41C271.25 503.92 252.48 583.1 248.73 598.93C244.33 617.5 258.5 634.96 277.18 634.96C287.44 634.96 297.21 629.59 302.58 620.31C324.08 583.18 496.03 286.18 517.52 249.05C528.88 229.63 514.83 205.09 492.24 205.09C473.45 205.09 426.47 205.09 351.31 205.09Z" id="bLlPOAv4J"></path><mask id="maskcX9fWnuPN" x="120.74" y="-0.31" width="410.8" height="645.27" maskUnits="userSpaceOnUse"><rect x="120.74" y="-0.31" width="410.8" height="645.27" fill="white"></rect><use xlink:href="#bLlPOAv4J" opacity="1" fill="black"></use></mask></defs><g><g><g><use xlink:href="#bLlPOAv4J" opacity="1" fill="#009779" fill-opacity="1"></use><g mask="url(#maskcX9fWnuPN)"><use xlink:href="#bLlPOAv4J" opacity="1" fill-opacity="0" stroke="#000000" stroke-width="10" stroke-opacity="1"></use></g></g></g></g></svg>