<?xml version="1.0" encoding="UTF-8" standalone="no"?>
<!DOCTYPE svg PUBLIC "-//W3C//DTD SVG 1.1//EN" "http://www.w3.org/Graphics/SVG/1.1/DTD/svg11.dtd">
<svg version="1.1" xmlns="http://www.w3.org/2000/svg" xmlns:xlink="http://www.w3.org/1999/xlink" preserveAspectRatio="xMidYMid meet" viewBox="0 0 640 640" width="640" height="640"><defs><path d="M352.09 201.6C383.3 106.49 400.64 53.65 404.11 43.08C408.99 24.52 394.95 6.2 375.78 6.2C358.19 6.2 217.51 6.2 199.92 6.2C185.27 6.2 172.81 17.07 170.85 31.6C166.95 60.91 135.68 295.39 131.78 324.7C129.45 342.28 143.13 357.92 160.84 357.92C170.5 357.92 218.82 357.92 305.8 357.92C272.02 500.43 253.26 579.61 249.5 595.45C245.11 614.01 259.27 631.47 277.96 631.47C288.21 631.47 297.98 626.1 303.36 616.82C324.85 579.69 496.8 282.69 518.3 245.56C529.65 226.15 515.61 201.6 493.02 201.6C474.23 201.6 427.25 201.6 352.09 201.6Z" id="f4Gi4nSXH6"></path></defs><g><g><g><use xlink:href="#f4Gi4nSXH6" opacity="1" fill="#d74961" fill-opacity="1"></use><g><use xlink:href="#f4Gi4nSXH6" opacity="1" fill-opacity="0" stroke="#000000" stroke-width="5" stroke-opacity="1"></use></g></g></g></g></svg>