<?xml version="1.0" encoding="UTF-8" standalone="no"?>
<!DOCTYPE svg PUBLIC "-//W3C//DTD SVG 1.1//EN" "http://www.w3.org/Graphics/SVG/1.1/DTD/svg11.dtd">
<svg version="1.1" xmlns="http://www.w3.org/2000/svg" xmlns:xlink="http://www.w3.org/1999/xlink" preserveAspectRatio="xMidYMid meet" viewBox="0 0 640 640" width="640" height="640"><defs><path d="M356.64 199.97C386.34 108.32 402.85 57.4 406.15 47.22C410.8 29.33 397.43 11.68 379.18 11.68C362.45 11.68 228.56 11.68 211.82 11.68C197.87 11.68 186.02 22.15 184.16 36.16C180.44 64.4 150.68 290.35 146.97 318.6C144.76 335.54 157.77 350.61 174.63 350.61C183.82 350.61 229.81 350.61 312.59 350.61C280.44 487.94 262.58 564.24 259.01 579.5C254.82 597.39 268.3 614.22 286.09 614.22C295.85 614.22 305.15 609.04 310.26 600.1C330.72 564.32 494.36 278.11 514.82 242.34C525.63 223.63 512.26 199.97 490.76 199.97C472.88 199.97 428.17 199.97 356.64 199.97Z" id="a9nAtQWE6"></path><mask id="maskaAaCacYE1" x="136.72" y="1.68" width="391.92" height="622.54" maskUnits="userSpaceOnUse"><rect x="136.72" y="1.68" width="391.92" height="622.54" fill="white"></rect><use xlink:href="#a9nAtQWE6" opacity="1" fill="black"></use></mask><mask id="maskb20mTrl0qm" x="144.72" y="9.68" width="375.92" height="606.54" maskUnits="userSpaceOnUse"><rect x="144.72" y="9.68" width="375.92" height="606.54" fill="white"></rect><use xlink:href="#a9nAtQWE6" opacity="1" fill="black"></use></mask></defs><g><g><g><use xlink:href="#a9nAtQWE6" opacity="1" fill="#000000" fill-opacity="1"></use><g mask="url(#maskaAaCacYE1)"><use xlink:href="#a9nAtQWE6" opacity="1" fill-opacity="0" stroke="#ffffff" stroke-width="10" stroke-opacity="1"></use></g><g mask="url(#maskb20mTrl0qm)"><use xlink:href="#a9nAtQWE6" opacity="1" fill-opacity="0" stroke="#ffffff" stroke-width="2" stroke-opacity="0"></use></g></g></g></g></svg>