<?xml version="1.0" encoding="UTF-8" standalone="no"?>
<!DOCTYPE svg PUBLIC "-//W3C//DTD SVG 1.1//EN" "http://www.w3.org/Graphics/SVG/1.1/DTD/svg11.dtd">
<svg version="1.1" xmlns="http://www.w3.org/2000/svg" xmlns:xlink="http://www.w3.org/1999/xlink" preserveAspectRatio="xMidYMid meet" viewBox="0 0 640 640" width="640" height="640"><defs><path d="M201.45 74.08L202.57 74.17L203.69 74.3L204.81 74.48L205.93 74.69L207.04 74.95L208.15 75.25L209.26 75.6L210.36 75.98L211.45 76.41L322.81 122.59L434.17 76.41L435.26 75.99L436.36 75.61L437.47 75.27L438.58 74.98L439.69 74.72L440.81 74.51L441.93 74.34L443.05 74.21L444.17 74.12L445.28 74.07L446.4 74.06L447.51 74.1L448.62 74.17L449.73 74.28L450.82 74.42L451.91 74.61L452.99 74.84L454.06 75.1L455.12 75.4L456.17 75.73L457.21 76.1L458.23 76.51L459.24 76.96L460.23 77.44L461.21 77.95L462.17 78.5L463.11 79.09L464.03 79.71L464.93 80.36L465.8 81.05L466.66 81.76L467.49 82.52L468.29 83.3L469.07 84.12L469.82 84.96L470.54 85.84L471.24 86.75L471.9 87.69L472.54 88.66L473.14 89.66L557.51 236.29L559.64 240.15L561.59 244.05L563.38 247.99L565 251.97L566.45 255.97L567.74 260.01L568.87 264.07L569.83 268.14L570.63 272.23L571.27 276.34L571.76 280.45L572.09 284.56L572.26 288.67L572.28 292.78L572.15 296.88L571.87 300.97L571.44 305.04L570.86 309.09L570.14 313.12L569.27 317.12L568.26 321.09L567.11 325.02L565.82 328.91L564.39 332.76L562.82 336.56L561.12 340.31L559.29 344L557.32 347.63L555.22 351.2L552.99 354.71L550.63 358.14L548.15 361.49L545.54 364.77L542.81 367.96L539.95 371.07L536.98 374.09L533.88 377.01L530.67 379.83L527.34 382.55L523.9 385.16L561.6 484.44L583.13 475.47L584.63 474.89L586.13 474.36L587.65 473.91L589.17 473.51L590.69 473.18L592.21 472.92L593.74 472.72L595.27 472.57L596.79 472.49L598.31 472.47L599.83 472.51L601.34 472.61L602.83 472.77L604.32 472.98L605.8 473.25L607.26 473.58L608.71 473.96L610.14 474.4L611.55 474.89L612.95 475.44L614.31 476.03L615.66 476.68L616.98 477.39L618.28 478.14L619.54 478.94L620.78 479.79L621.98 480.69L623.15 481.64L624.29 482.64L625.39 483.68L626.45 484.77L627.47 485.9L628.44 487.08L629.38 488.3L630.27 489.57L631.11 490.87L631.91 492.22L632.65 493.62L633.35 495.05L633.99 496.52L634.11 496.82L634.21 497.12L634.3 497.42L634.38 497.73L634.44 498.03L634.5 498.34L634.54 498.64L634.56 498.95L634.58 499.25L634.58 499.55L634.57 499.85L634.55 500.15L634.52 500.45L634.47 500.75L634.42 501.04L634.35 501.33L634.27 501.62L634.19 501.9L634.09 502.18L633.98 502.46L633.86 502.73L633.73 503L633.59 503.26L633.44 503.52L633.27 503.77L633.1 504.01L632.93 504.25L632.74 504.49L632.54 504.71L632.33 504.93L632.12 505.14L631.89 505.34L631.66 505.54L631.42 505.72L631.17 505.9L630.91 506.07L630.64 506.23L630.37 506.38L630.09 506.52L629.8 506.65L471.58 572.32L471.29 572.43L470.99 572.54L470.69 572.63L470.39 572.71L470.09 572.77L469.79 572.83L469.49 572.87L469.19 572.9L468.89 572.92L468.58 572.92L468.28 572.91L467.99 572.9L467.69 572.87L467.39 572.82L467.1 572.77L466.81 572.71L466.52 572.63L466.23 572.54L465.95 572.45L465.67 572.34L465.4 572.22L465.13 572.09L464.87 571.95L464.61 571.8L464.35 571.64L464.11 571.47L463.86 571.29L463.63 571.11L463.4 570.91L463.18 570.7L462.97 570.48L462.76 570.25L462.57 570.02L462.38 569.77L462.2 569.52L462.03 569.26L461.87 568.99L461.72 568.71L461.58 568.42L461.45 568.13L460.86 566.63L460.34 565.12L459.88 563.61L459.49 562.09L459.16 560.57L458.89 559.04L458.69 557.52L458.55 555.99L458.47 554.47L458.45 552.94L458.49 551.43L458.58 549.92L458.74 548.42L458.95 546.93L459.23 545.45L459.55 543.99L459.94 542.54L460.37 541.11L460.87 539.69L461.41 538.3L462.01 536.93L462.66 535.58L463.36 534.26L464.11 532.96L464.91 531.69L465.77 530.45L466.67 529.25L467.62 528.07L468.61 526.93L469.65 525.83L470.74 524.77L471.88 523.74L473.05 522.76L474.28 521.82L475.54 520.92L476.85 520.07L478.2 519.27L479.59 518.52L481.02 517.82L482.49 517.17L504.02 508.21L465.73 407.27L465.41 407.31L465.09 407.35L464.77 407.39L464.45 407.43L464.13 407.47L463.81 407.51L463.48 407.55L463.16 407.59L462.84 407.64L462.52 407.68L462.2 407.72L461.88 407.76L461.56 407.81L461.24 407.85L460.92 407.89L460.6 407.93L460.28 407.97L459.96 408.01L459.64 408.05L459.32 408.09L459 408.13L458.68 408.17L458.36 408.2L458.04 408.24L457.72 408.27L457.4 408.3L457.08 408.33L456.76 408.36L456.45 408.39L456.13 408.41L455.81 408.44L455.5 408.46L455.18 408.48L454.86 408.49L454.55 408.51L454.23 408.52L453.92 408.53L453.6 408.54L453.29 408.54L452.97 408.54L449.2 408.48L445.45 408.3L441.72 408L438.01 407.59L434.32 407.06L430.67 406.41L427.04 405.65L423.45 404.78L419.89 403.8L416.38 402.71L412.9 401.51L409.47 400.2L406.09 398.79L402.76 397.27L399.48 395.66L396.25 393.94L393.08 392.11L389.98 390.19L386.93 388.18L383.96 386.06L381.05 383.85L378.21 381.55L375.45 379.15L372.76 376.66L370.16 374.08L367.64 371.41L365.2 368.66L362.85 365.81L360.59 362.89L358.42 359.88L356.35 356.78L354.38 353.61L352.51 350.35L350.75 347.02L349.09 343.61L347.54 340.12L346.1 336.56L344.78 332.92L343.57 329.22L342.49 325.44L322.81 251.98L303.13 325.44L302.04 329.22L300.84 332.92L299.52 336.56L298.08 340.12L296.53 343.61L294.87 347.02L293.11 350.35L291.24 353.61L289.27 356.78L287.2 359.88L285.03 362.89L282.77 365.81L280.42 368.66L277.98 371.41L275.46 374.08L272.85 376.66L270.17 379.15L267.41 381.55L264.57 383.85L261.66 386.06L258.68 388.18L255.64 390.19L252.54 392.11L249.37 393.94L246.14 395.66L242.86 397.27L239.53 398.79L236.15 400.2L232.72 401.51L229.24 402.71L225.73 403.8L222.17 404.78L218.58 405.65L214.95 406.41L211.3 407.06L207.61 407.59L203.9 408L200.17 408.3L196.42 408.48L192.65 408.54L192.33 408.54L192.02 408.54L191.7 408.53L191.39 408.52L191.07 408.51L190.76 408.49L190.44 408.48L190.12 408.46L189.81 408.44L189.49 408.41L189.17 408.39L188.85 408.36L188.54 408.33L188.22 408.3L187.9 408.27L187.58 408.24L187.26 408.2L186.94 408.17L186.62 408.13L186.3 408.09L185.98 408.05L185.66 408.01L185.34 407.97L185.02 407.93L184.7 407.89L184.38 407.85L184.06 407.81L183.74 407.76L183.42 407.72L183.1 407.68L182.78 407.64L182.46 407.59L182.13 407.55L181.81 407.51L181.49 407.47L181.17 407.43L180.85 407.39L180.53 407.35L180.21 407.31L179.88 407.27L141.5 508.21L163.03 517.17L164.5 517.82L165.93 518.52L167.32 519.27L168.67 520.07L169.98 520.92L171.24 521.82L172.46 522.76L173.64 523.74L174.77 524.77L175.85 525.83L176.89 526.93L177.89 528.07L178.83 529.25L179.73 530.45L180.58 531.69L181.38 532.96L182.13 534.26L182.83 535.58L183.48 536.93L184.07 538.3L184.62 539.69L185.11 541.11L185.54 542.54L185.93 543.99L186.25 545.45L186.52 546.93L186.74 548.42L186.89 549.92L186.99 551.43L187.03 552.94L187.01 554.47L186.94 555.99L186.8 557.52L186.6 559.04L186.33 560.57L186.01 562.09L185.62 563.61L185.17 565.12L184.65 566.63L184.07 568.13L183.94 568.42L183.8 568.71L183.65 568.99L183.5 569.26L183.33 569.52L183.15 569.77L182.96 570.02L182.77 570.25L182.56 570.48L182.35 570.7L182.14 570.91L181.91 571.11L181.68 571.29L181.44 571.47L181.19 571.64L180.94 571.8L180.69 571.95L180.42 572.09L180.16 572.22L179.88 572.34L179.61 572.45L179.33 572.54L179.04 572.63L178.76 572.71L178.47 572.77L178.17 572.82L177.88 572.87L177.58 572.9L177.28 572.91L176.98 572.92L176.67 572.92L176.37 572.9L176.07 572.87L175.76 572.83L175.46 572.77L175.15 572.71L174.85 572.63L174.54 572.54L174.24 572.43L173.94 572.32L15.82 506.65L15.52 506.52L15.24 506.38L14.96 506.23L14.69 506.07L14.42 505.9L14.17 505.72L13.93 505.53L13.69 505.33L13.46 505.13L13.25 504.91L13.04 504.69L12.84 504.46L12.65 504.23L12.47 503.99L12.3 503.74L12.14 503.48L11.99 503.22L11.85 502.96L11.72 502.69L11.6 502.41L11.5 502.13L11.4 501.85L11.31 501.56L11.24 501.27L11.17 500.98L11.12 500.68L11.08 500.38L11.05 500.08L11.03 499.78L11.02 499.47L11.03 499.17L11.05 498.86L11.07 498.55L11.12 498.25L11.17 497.94L11.24 497.63L11.31 497.33L11.41 497.02L11.51 496.72L11.63 496.42L12.28 494.95L12.98 493.52L13.73 492.13L14.53 490.78L15.38 489.47L16.27 488.2L17.21 486.98L18.19 485.8L19.21 484.67L20.27 483.58L21.37 482.54L22.51 481.54L23.68 480.6L24.88 479.7L26.12 478.84L27.38 478.04L28.68 477.29L30 476.59L31.34 475.94L32.71 475.34L34.1 474.79L35.51 474.3L36.94 473.86L38.38 473.48L39.84 473.15L41.32 472.88L42.8 472.67L44.3 472.51L45.81 472.41L47.32 472.38L48.84 472.4L50.36 472.48L51.88 472.62L53.41 472.82L54.93 473.09L56.46 473.42L57.97 473.81L59.49 474.27L60.99 474.79L62.49 475.38L84.02 484.34L121.72 385.06L118.28 382.46L114.95 379.74L111.74 376.93L108.65 374.01L105.67 371L102.82 367.9L100.09 364.71L97.48 361.44L95 358.09L92.64 354.66L90.42 351.17L88.32 347.6L86.35 343.97L84.52 340.28L82.82 336.53L81.26 332.74L79.83 328.89L78.54 325L77.39 321.07L76.38 317.11L75.52 313.11L74.79 309.08L74.22 305.03L73.79 300.96L73.51 296.88L73.38 292.78L73.4 288.67L73.57 284.56L73.9 280.44L74.39 276.33L75.03 272.23L75.83 268.14L76.79 264.06L77.91 260.01L79.19 255.97L80.64 251.97L82.25 247.99L84.04 244.05L85.99 240.15L88.11 236.29L172.48 89.66L173.08 88.66L173.71 87.69L174.38 86.75L175.07 85.84L175.8 84.96L176.55 84.11L177.33 83.29L178.13 82.51L178.96 81.75L179.82 81.03L180.69 80.34L181.59 79.69L182.51 79.07L183.45 78.48L184.41 77.93L185.38 77.41L186.38 76.93L187.38 76.48L188.41 76.07L189.44 75.7L190.49 75.36L191.55 75.06L192.63 74.79L193.71 74.57L194.8 74.38L195.89 74.23L197 74.12L198.1 74.05L199.22 74.02L200.33 74.03L201.45 74.08ZM279.84 232L298.26 163.12L206.19 124.93L170.63 186.7L279.84 232ZM365.77 232L474.99 186.7L439.43 124.93L347.36 163.12L365.77 232Z" id="aGp7RD9em"></path></defs><g><g><g><use xlink:href="#aGp7RD9em" opacity="1" fill="#009779" fill-opacity="1"></use><g><use xlink:href="#aGp7RD9em" opacity="1" fill-opacity="0" stroke="#000000" stroke-width="5" stroke-opacity="1"></use></g></g></g></g></svg>