<?xml version="1.0" encoding="UTF-8" standalone="no"?>
<!DOCTYPE svg PUBLIC "-//W3C//DTD SVG 1.1//EN" "http://www.w3.org/Graphics/SVG/1.1/DTD/svg11.dtd">
<svg version="1.1" xmlns="http://www.w3.org/2000/svg" xmlns:xlink="http://www.w3.org/1999/xlink" preserveAspectRatio="xMidYMid meet" viewBox="0 0 640 640" width="640" height="640"><defs><path d="M198.27 69.84L199.4 69.93L200.52 70.06L201.64 70.23L202.76 70.45L203.88 70.71L204.99 71.01L206.1 71.35L207.21 71.74L208.3 72.17L320.01 118.5L431.71 72.17L432.81 71.75L433.91 71.37L435.02 71.03L436.13 70.73L437.25 70.48L438.37 70.26L439.49 70.09L440.62 69.96L441.74 69.87L442.86 69.83L443.98 69.82L445.1 69.85L446.21 69.92L447.32 70.03L448.42 70.18L449.51 70.37L450.59 70.59L451.67 70.85L452.73 71.15L453.79 71.49L454.83 71.86L455.85 72.27L456.86 72.72L457.86 73.2L458.84 73.72L459.8 74.27L460.74 74.86L461.66 75.48L462.56 76.13L463.44 76.82L464.3 77.54L465.13 78.3L465.94 79.08L466.72 79.9L467.48 80.75L468.2 81.63L468.9 82.54L469.57 83.49L470.2 84.46L470.8 85.47L555.44 232.55L557.57 236.42L559.53 240.33L561.33 244.29L562.95 248.27L564.41 252.29L565.7 256.34L566.83 260.41L567.8 264.5L568.6 268.6L569.24 272.72L569.73 276.84L570.06 280.97L570.23 285.09L570.26 289.21L570.12 293.33L569.84 297.43L569.41 301.51L568.83 305.58L568.11 309.62L567.24 313.63L566.22 317.61L565.07 321.55L563.77 325.45L562.34 329.31L560.77 333.13L559.06 336.89L557.22 340.59L555.24 344.24L553.14 347.82L550.9 351.33L548.54 354.77L546.05 358.14L543.43 361.43L540.69 364.63L537.82 367.75L534.84 370.77L531.73 373.7L528.51 376.53L525.17 379.26L521.72 381.88L559.54 481.46L581.14 472.47L582.64 471.88L584.15 471.36L585.67 470.9L587.19 470.51L588.72 470.18L590.25 469.91L591.78 469.71L593.31 469.57L594.84 469.48L596.37 469.46L597.89 469.5L599.4 469.6L600.9 469.76L602.4 469.97L603.88 470.25L605.35 470.57L606.8 470.96L608.23 471.4L609.65 471.89L611.04 472.44L612.42 473.04L613.77 473.69L615.09 474.39L616.39 475.15L617.66 475.95L618.9 476.81L620.11 477.71L621.28 478.66L622.42 479.66L623.52 480.71L624.59 481.8L625.61 482.93L626.59 484.12L627.53 485.34L628.42 486.61L629.27 487.92L630.07 489.28L630.82 490.67L631.51 492.11L632.15 493.58L632.27 493.88L632.38 494.19L632.47 494.49L632.55 494.8L632.61 495.1L632.66 495.41L632.7 495.71L632.73 496.02L632.75 496.32L632.75 496.63L632.74 496.93L632.72 497.23L632.69 497.53L632.64 497.83L632.59 498.12L632.52 498.41L632.44 498.7L632.35 498.99L632.25 499.27L632.14 499.54L632.02 499.82L631.89 500.09L631.75 500.35L631.6 500.61L631.44 500.86L631.27 501.1L631.09 501.34L630.9 501.58L630.7 501.8L630.49 502.02L630.27 502.23L630.05 502.44L629.82 502.63L629.57 502.82L629.32 503L629.06 503.17L628.8 503.33L628.52 503.48L628.24 503.62L627.95 503.75L469.24 569.62L468.95 569.73L468.65 569.84L468.35 569.93L468.05 570.01L467.75 570.08L467.45 570.13L467.14 570.17L466.84 570.2L466.54 570.22L466.24 570.22L465.93 570.22L465.63 570.2L465.34 570.17L465.04 570.13L464.74 570.07L464.45 570.01L464.16 569.93L463.88 569.85L463.59 569.75L463.31 569.64L463.04 569.52L462.77 569.39L462.51 569.25L462.25 569.1L461.99 568.94L461.74 568.77L461.5 568.59L461.26 568.4L461.04 568.2L460.81 568L460.6 567.78L460.4 567.55L460.2 567.31L460.01 567.07L459.83 566.81L459.66 566.55L459.5 566.28L459.35 566L459.21 565.71L459.08 565.41L458.49 563.91L457.96 562.4L457.5 560.89L457.11 559.36L456.78 557.83L456.51 556.3L456.31 554.77L456.17 553.24L456.09 551.71L456.07 550.19L456.11 548.67L456.2 547.15L456.36 545.65L456.58 544.15L456.85 542.67L457.18 541.2L457.56 539.75L458 538.31L458.49 536.89L459.04 535.5L459.64 534.12L460.29 532.77L460.99 531.44L461.75 530.14L462.55 528.87L463.41 527.63L464.31 526.42L465.26 525.24L466.26 524.1L467.31 522.99L468.4 521.92L469.54 520.89L470.72 519.91L471.94 518.96L473.21 518.07L474.53 517.21L475.88 516.41L477.27 515.66L478.71 514.95L480.19 514.3L501.78 505.31L463.38 404.06L463.05 404.1L462.73 404.14L462.41 404.18L462.09 404.22L461.76 404.26L461.44 404.3L461.12 404.34L460.8 404.38L460.47 404.43L460.15 404.47L459.83 404.51L459.51 404.55L459.19 404.6L458.86 404.64L458.54 404.68L458.22 404.72L457.9 404.76L457.58 404.8L457.26 404.84L456.94 404.88L456.62 404.92L456.3 404.96L455.98 404.99L455.66 405.03L455.34 405.06L455.02 405.09L454.7 405.12L454.38 405.15L454.06 405.18L453.74 405.2L453.42 405.23L453.11 405.25L452.79 405.27L452.47 405.28L452.15 405.3L451.84 405.31L451.52 405.32L451.2 405.33L450.89 405.33L450.57 405.33L446.79 405.27L443.03 405.09L439.28 404.79L435.56 404.38L431.87 403.84L428.2 403.2L424.56 402.44L420.96 401.56L417.39 400.58L413.87 399.48L410.38 398.28L406.94 396.97L403.55 395.55L400.2 394.03L396.91 392.41L393.68 390.68L390.5 388.86L387.38 386.93L384.33 384.9L381.34 382.78L378.43 380.57L375.58 378.25L372.81 375.85L370.12 373.35L367.5 370.77L364.97 368.09L362.53 365.33L360.17 362.47L357.9 359.54L355.73 356.52L353.65 353.41L351.68 350.23L349.8 346.97L348.03 343.62L346.37 340.2L344.81 336.7L343.37 333.13L342.04 329.48L340.84 325.76L339.75 321.97L320.01 248.28L300.27 321.97L299.18 325.76L297.97 329.48L296.64 333.13L295.2 336.7L293.65 340.2L291.98 343.62L290.21 346.97L288.34 350.23L286.36 353.41L284.28 356.52L282.11 359.54L279.84 362.47L277.49 365.33L275.04 368.09L272.51 370.77L269.9 373.35L267.2 375.85L264.43 378.25L261.59 380.57L258.67 382.78L255.68 384.9L252.63 386.93L249.51 388.86L246.34 390.68L243.1 392.41L239.81 394.03L236.47 395.55L233.07 396.97L229.63 398.28L226.15 399.48L222.62 400.58L219.05 401.56L215.45 402.44L211.82 403.2L208.15 403.84L204.45 404.38L200.73 404.79L196.99 405.09L193.22 405.27L189.44 405.33L189.13 405.33L188.81 405.33L188.49 405.32L188.18 405.31L187.86 405.3L187.54 405.28L187.23 405.27L186.91 405.25L186.59 405.23L186.27 405.2L185.95 405.18L185.63 405.15L185.32 405.12L185 405.09L184.68 405.06L184.36 405.03L184.04 404.99L183.72 404.96L183.4 404.92L183.08 404.88L182.76 404.84L182.43 404.8L182.11 404.76L181.79 404.72L181.47 404.68L181.15 404.64L180.83 404.6L180.51 404.55L180.18 404.51L179.86 404.47L179.54 404.43L179.22 404.38L178.9 404.34L178.57 404.3L178.25 404.26L177.93 404.22L177.61 404.18L177.28 404.14L176.96 404.1L176.64 404.06L138.13 505.31L159.73 514.3L161.21 514.95L162.64 515.66L164.04 516.41L165.39 517.21L166.7 518.07L167.97 518.96L169.19 519.91L170.37 520.89L171.51 521.92L172.59 522.99L173.64 524.1L174.63 525.24L175.58 526.42L176.48 527.63L177.34 528.87L178.14 530.14L178.89 531.44L179.59 532.77L180.24 534.12L180.84 535.5L181.39 536.89L181.88 538.31L182.32 539.75L182.7 541.2L183.03 542.67L183.3 544.15L183.51 545.65L183.67 547.15L183.77 548.67L183.81 550.19L183.79 551.71L183.71 553.24L183.57 554.77L183.37 556.3L183.11 557.83L182.78 559.36L182.39 560.89L181.94 562.4L181.42 563.91L180.84 565.41L180.71 565.71L180.57 566L180.42 566.28L180.26 566.55L180.09 566.81L179.91 567.07L179.73 567.31L179.53 567.55L179.33 567.78L179.11 568L178.9 568.2L178.67 568.4L178.44 568.59L178.2 568.77L177.95 568.94L177.7 569.1L177.44 569.25L177.18 569.39L176.91 569.52L176.64 569.64L176.36 569.75L176.08 569.85L175.8 569.93L175.51 570.01L175.22 570.07L174.92 570.13L174.62 570.17L174.32 570.2L174.02 570.22L173.72 570.22L173.42 570.22L173.11 570.2L172.81 570.17L172.5 570.13L172.2 570.08L171.89 570.01L171.58 569.93L171.28 569.84L170.98 569.73L170.68 569.62L12.06 503.75L11.77 503.62L11.48 503.48L11.2 503.33L10.93 503.16L10.66 502.99L10.41 502.81L10.16 502.62L9.93 502.43L9.7 502.22L9.48 502.01L9.27 501.78L9.07 501.56L8.88 501.32L8.7 501.08L8.53 500.83L8.37 500.57L8.22 500.31L8.08 500.04L7.95 499.77L7.84 499.5L7.73 499.22L7.63 498.93L7.54 498.64L7.47 498.35L7.4 498.06L7.35 497.76L7.31 497.46L7.28 497.16L7.26 496.85L7.25 496.55L7.26 496.24L7.27 495.93L7.3 495.62L7.34 495.32L7.4 495.01L7.47 494.7L7.54 494.4L7.64 494.09L7.74 493.79L7.86 493.49L8.51 492.01L9.21 490.57L9.97 489.18L10.77 487.83L11.62 486.51L12.52 485.24L13.46 484.02L14.44 482.84L15.47 481.7L16.53 480.61L17.63 479.56L18.77 478.56L19.95 477.61L21.16 476.71L22.39 475.85L23.66 475.05L24.96 474.3L26.28 473.59L27.63 472.94L29.01 472.34L30.4 471.79L31.81 471.3L33.25 470.86L34.7 470.48L36.16 470.15L37.64 469.88L39.13 469.66L40.63 469.5L42.14 469.41L43.66 469.37L45.18 469.39L46.71 469.47L48.24 469.61L49.77 469.81L51.3 470.08L52.83 470.41L54.35 470.8L55.86 471.26L57.37 471.79L58.87 472.38L80.47 481.37L118.29 381.78L114.84 379.17L111.5 376.45L108.28 373.62L105.18 370.7L102.19 367.68L99.33 364.57L96.59 361.37L93.98 358.09L91.49 354.73L89.13 351.29L86.89 347.78L84.79 344.2L82.82 340.56L80.98 336.86L79.27 333.1L77.7 329.29L76.27 325.44L74.98 321.53L73.82 317.59L72.81 313.61L71.94 309.6L71.22 305.57L70.64 301.5L70.21 297.42L69.93 293.32L69.8 289.21L69.82 285.09L70 280.96L70.33 276.84L70.81 272.72L71.45 268.6L72.26 264.5L73.22 260.41L74.34 256.34L75.63 252.29L77.09 248.27L78.7 244.29L80.49 240.33L82.45 236.42L84.58 232.55L169.21 85.47L169.81 84.46L170.45 83.49L171.12 82.54L171.81 81.63L172.54 80.75L173.29 79.89L174.07 79.07L174.88 78.29L175.71 77.53L176.57 76.81L177.45 76.12L178.35 75.46L179.27 74.84L180.21 74.25L181.18 73.69L182.15 73.17L183.15 72.69L184.16 72.24L185.19 71.83L186.23 71.45L187.28 71.12L188.34 70.81L189.42 70.55L190.5 70.32L191.6 70.14L192.7 69.99L193.8 69.88L194.91 69.81L196.03 69.78L197.15 69.79L198.27 69.84ZM276.91 228.25L295.38 159.15L203.02 120.84L167.35 182.8L276.91 228.25ZM363.11 228.25L472.66 182.8L436.99 120.84L344.63 159.15L363.11 228.25Z" id="b3ht4ljZCm"></path></defs><g><g><g><use xlink:href="#b3ht4ljZCm" opacity="1" fill="#ff3b41" fill-opacity="1"></use><g><use xlink:href="#b3ht4ljZCm" opacity="1" fill-opacity="0" stroke="#000000" stroke-width="5" stroke-opacity="1"></use></g></g></g></g></svg>