<?xml version="1.0" encoding="UTF-8" standalone="no"?>
<!DOCTYPE svg PUBLIC "-//W3C//DTD SVG 1.1//EN" "http://www.w3.org/Graphics/SVG/1.1/DTD/svg11.dtd">
<svg version="1.1" xmlns="http://www.w3.org/2000/svg" xmlns:xlink="http://www.w3.org/1999/xlink" preserveAspectRatio="xMidYMid meet" viewBox="0 0 640 640" width="640" height="640"><defs><path d="M199.93 67.65L201.06 67.75L202.18 67.88L203.31 68.05L204.43 68.27L205.55 68.53L206.67 68.83L207.78 69.18L208.89 69.57L209.99 70L322.01 116.45L434.03 70L435.12 69.57L436.23 69.19L437.34 68.85L438.46 68.55L439.58 68.3L440.7 68.09L441.83 67.91L442.96 67.78L444.08 67.69L445.21 67.65L446.33 67.64L447.45 67.67L448.57 67.74L449.68 67.85L450.78 68L451.87 68.19L452.96 68.41L454.04 68.68L455.11 68.98L456.16 69.31L457.21 69.69L458.23 70.1L459.25 70.55L460.25 71.03L461.23 71.55L462.19 72.1L463.14 72.69L464.06 73.31L464.97 73.97L465.85 74.66L466.71 75.38L467.54 76.14L468.35 76.93L469.13 77.75L469.89 78.6L470.62 79.48L471.32 80.4L471.99 81.35L472.62 82.32L473.23 83.33L558.1 230.83L560.24 234.71L562.21 238.63L564.01 242.6L565.64 246.6L567.1 250.63L568.39 254.68L569.52 258.76L570.49 262.86L571.3 266.98L571.95 271.11L572.43 275.24L572.76 279.38L572.94 283.52L572.96 287.65L572.83 291.77L572.55 295.89L572.11 299.98L571.53 304.06L570.81 308.11L569.93 312.13L568.92 316.12L567.76 320.08L566.46 323.99L565.02 327.86L563.45 331.69L561.73 335.46L559.89 339.17L557.91 342.83L555.79 346.42L553.55 349.94L551.18 353.39L548.68 356.77L546.06 360.07L543.31 363.28L540.44 366.4L537.44 369.44L534.33 372.38L531.1 375.21L527.75 377.95L524.29 380.58L562.22 480.44L583.87 471.43L585.38 470.84L586.89 470.31L588.41 469.85L589.94 469.46L591.47 469.12L593.01 468.86L594.55 468.65L596.08 468.51L597.62 468.43L599.14 468.41L600.67 468.45L602.19 468.55L603.69 468.7L605.19 468.92L606.68 469.19L608.15 469.52L609.6 469.91L611.04 470.35L612.46 470.84L613.86 471.39L615.24 471.99L616.6 472.65L617.92 473.35L619.23 474.11L620.5 474.92L621.74 475.77L622.95 476.68L624.13 477.63L625.27 478.63L626.38 479.68L627.44 480.78L628.47 481.92L629.45 483.1L630.4 484.33L631.29 485.6L632.14 486.92L632.94 488.28L633.69 489.68L634.39 491.12L635.03 492.6L635.15 492.9L635.26 493.2L635.35 493.51L635.43 493.81L635.49 494.12L635.54 494.43L635.58 494.73L635.61 495.04L635.63 495.34L635.63 495.65L635.62 495.95L635.6 496.25L635.57 496.55L635.52 496.85L635.46 497.15L635.4 497.44L635.32 497.73L635.23 498.01L635.13 498.3L635.02 498.57L634.9 498.85L634.77 499.12L634.63 499.38L634.48 499.64L634.31 499.89L634.14 500.14L633.96 500.38L633.77 500.61L633.57 500.84L633.36 501.06L633.15 501.27L632.92 501.47L632.69 501.67L632.44 501.86L632.19 502.04L631.93 502.21L631.67 502.37L631.39 502.52L631.11 502.66L630.82 502.79L471.66 568.84L471.36 568.96L471.07 569.07L470.77 569.16L470.47 569.24L470.16 569.31L469.86 569.36L469.56 569.4L469.25 569.43L468.95 569.45L468.65 569.45L468.34 569.45L468.04 569.43L467.74 569.4L467.45 569.35L467.15 569.3L466.86 569.24L466.57 569.16L466.28 569.07L466 568.98L465.72 568.87L465.44 568.75L465.17 568.62L464.91 568.48L464.65 568.33L464.39 568.17L464.14 568L463.9 567.82L463.66 567.63L463.43 567.43L463.21 567.22L463 567L462.79 566.77L462.59 566.53L462.4 566.29L462.22 566.03L462.05 565.77L461.89 565.5L461.74 565.22L461.6 564.93L461.47 564.63L460.88 563.12L460.35 561.61L459.89 560.09L459.5 558.56L459.16 557.03L458.9 555.49L458.69 553.96L458.55 552.42L458.47 550.89L458.45 549.36L458.49 547.83L458.59 546.32L458.74 544.81L458.96 543.31L459.23 541.82L459.56 540.35L459.95 538.89L460.39 537.45L460.88 536.03L461.43 534.63L462.03 533.25L462.69 531.89L463.39 530.56L464.15 529.26L464.96 527.98L465.81 526.73L466.72 525.52L467.67 524.34L468.67 523.19L469.72 522.08L470.82 521.01L471.96 519.98L473.14 518.99L474.37 518.05L475.64 517.15L476.96 516.29L478.32 515.49L479.72 514.73L481.16 514.02L482.64 513.37L504.29 504.36L465.78 402.82L465.46 402.86L465.13 402.9L464.81 402.94L464.49 402.98L464.16 403.02L463.84 403.06L463.52 403.1L463.19 403.14L462.87 403.19L462.55 403.23L462.22 403.27L461.9 403.31L461.58 403.36L461.26 403.4L460.93 403.44L460.61 403.48L460.29 403.52L459.97 403.57L459.64 403.61L459.32 403.64L459 403.68L458.68 403.72L458.36 403.76L458.04 403.79L457.72 403.82L457.4 403.86L457.08 403.89L456.76 403.92L456.44 403.94L456.12 403.97L455.8 403.99L455.48 404.01L455.16 404.03L454.84 404.05L454.53 404.06L454.21 404.08L453.89 404.08L453.57 404.09L453.26 404.1L452.94 404.1L449.15 404.04L445.37 403.86L441.62 403.56L437.89 403.14L434.18 402.6L430.5 401.95L426.86 401.19L423.24 400.31L419.67 399.33L416.13 398.23L412.63 397.02L409.18 395.71L405.78 394.29L402.43 392.76L399.13 391.14L395.88 389.4L392.7 387.57L389.57 385.64L386.51 383.61L383.52 381.48L380.59 379.26L377.74 376.94L374.96 374.53L372.26 372.03L369.64 369.43L367.1 366.75L364.65 363.98L362.28 361.12L360.01 358.17L357.83 355.14L355.75 352.03L353.77 348.84L351.89 345.56L350.11 342.21L348.44 338.78L346.88 335.27L345.44 331.69L344.11 328.03L342.89 324.3L341.8 320.5L322.01 246.6L302.21 320.5L301.12 324.3L299.91 328.03L298.58 331.69L297.13 335.27L295.57 338.78L293.9 342.21L292.13 345.56L290.25 348.84L288.26 352.03L286.18 355.14L284 358.17L281.73 361.12L279.37 363.98L276.91 366.75L274.38 369.43L271.75 372.03L269.05 374.53L266.27 376.94L263.42 379.26L260.5 381.48L257.5 383.61L254.44 385.64L251.32 387.57L248.13 389.4L244.89 391.14L241.59 392.76L238.23 394.29L234.83 395.71L231.38 397.02L227.88 398.23L224.35 399.33L220.77 400.31L217.16 401.19L213.51 401.95L209.83 402.6L206.13 403.14L202.39 403.56L198.64 403.86L194.86 404.04L191.07 404.1L190.76 404.1L190.44 404.09L190.12 404.08L189.81 404.08L189.49 404.06L189.17 404.05L188.85 404.03L188.53 404.01L188.21 403.99L187.9 403.97L187.58 403.94L187.26 403.92L186.94 403.89L186.62 403.86L186.3 403.82L185.97 403.79L185.65 403.76L185.33 403.72L185.01 403.68L184.69 403.64L184.37 403.61L184.05 403.57L183.72 403.52L183.4 403.48L183.08 403.44L182.76 403.4L182.44 403.36L182.11 403.31L181.79 403.27L181.47 403.23L181.14 403.19L180.82 403.14L180.5 403.1L180.17 403.06L179.85 403.02L179.53 402.98L179.2 402.94L178.88 402.9L178.56 402.86L178.23 402.82L139.62 504.36L161.28 513.37L162.76 514.02L164.2 514.73L165.6 515.49L166.95 516.29L168.27 517.15L169.54 518.05L170.77 518.99L171.95 519.98L173.09 521.01L174.18 522.08L175.23 523.19L176.22 524.34L177.18 525.52L178.08 526.73L178.93 527.98L179.74 529.26L180.49 530.56L181.2 531.89L181.85 533.25L182.45 534.63L182.99 536.03L183.49 537.45L183.93 538.89L184.31 540.35L184.64 541.82L184.91 543.31L185.13 544.81L185.28 546.32L185.38 547.83L185.43 549.36L185.41 550.89L185.33 552.42L185.19 553.96L184.99 555.49L184.72 557.03L184.4 558.56L184.01 560.09L183.55 561.61L183.03 563.12L182.45 564.63L182.32 564.93L182.18 565.22L182.03 565.5L181.87 565.77L181.7 566.03L181.52 566.29L181.33 566.53L181.13 566.77L180.93 567L180.72 567.22L180.5 567.43L180.27 567.63L180.04 567.82L179.8 568L179.55 568.17L179.3 568.33L179.04 568.48L178.78 568.62L178.51 568.75L178.23 568.87L177.96 568.98L177.67 569.07L177.39 569.16L177.1 569.24L176.81 569.3L176.51 569.35L176.21 569.4L175.91 569.43L175.61 569.45L175.31 569.45L175 569.45L174.7 569.43L174.39 569.4L174.09 569.36L173.78 569.31L173.47 569.24L173.17 569.16L172.86 569.07L172.56 568.96L172.26 568.84L13.19 502.79L12.9 502.66L12.61 502.52L12.33 502.37L12.06 502.2L11.79 502.03L11.54 501.85L11.29 501.66L11.05 501.46L10.83 501.26L10.61 501.04L10.4 500.82L10.2 500.59L10.01 500.35L9.83 500.11L9.66 499.86L9.5 499.6L9.35 499.34L9.2 499.07L9.08 498.8L8.96 498.52L8.85 498.24L8.75 497.96L8.66 497.67L8.59 497.38L8.52 497.08L8.47 496.78L8.43 496.48L8.4 496.18L8.38 495.87L8.37 495.57L8.38 495.26L8.39 494.95L8.42 494.64L8.46 494.33L8.52 494.03L8.59 493.72L8.66 493.41L8.76 493.1L8.86 492.8L8.98 492.5L9.63 491.02L10.34 489.58L11.09 488.18L11.9 486.82L12.75 485.51L13.65 484.23L14.59 483L15.58 481.82L16.61 480.68L17.68 479.58L18.78 478.54L19.93 477.53L21.1 476.58L22.31 475.67L23.56 474.82L24.83 474.01L26.13 473.25L27.46 472.55L28.81 471.89L30.19 471.29L31.58 470.74L33 470.25L34.44 469.81L35.89 469.42L37.36 469.09L38.85 468.82L40.34 468.61L41.85 468.45L43.36 468.35L44.88 468.31L46.41 468.33L47.94 468.41L49.47 468.55L51.01 468.76L52.54 469.03L54.07 469.36L55.6 469.75L57.12 470.21L58.63 470.74L60.14 471.33L81.8 480.35L119.73 380.48L116.26 377.86L112.91 375.13L109.68 372.3L106.57 369.37L103.58 366.34L100.71 363.22L97.96 360.01L95.34 356.72L92.84 353.35L90.48 349.9L88.24 346.38L86.13 342.79L84.15 339.14L82.3 335.43L80.59 331.66L79.02 327.84L77.58 323.97L76.29 320.06L75.13 316.11L74.12 312.12L73.25 308.1L72.52 304.05L71.94 299.98L71.51 295.88L71.23 291.77L71.1 287.65L71.12 283.51L71.29 279.38L71.62 275.24L72.11 271.11L72.75 266.98L73.56 262.86L74.52 258.76L75.65 254.68L76.94 250.63L78.4 246.6L80.03 242.6L81.82 238.63L83.78 234.71L85.91 230.83L170.79 83.33L171.39 82.32L172.03 81.35L172.7 80.4L173.39 79.48L174.12 78.6L174.88 77.74L175.66 76.92L176.47 76.13L177.31 75.37L178.17 74.65L179.05 73.95L179.95 73.29L180.88 72.67L181.82 72.08L182.78 71.52L183.77 71L184.76 70.52L185.78 70.07L186.81 69.65L187.85 69.28L188.91 68.94L189.97 68.64L191.05 68.37L192.14 68.14L193.23 67.96L194.34 67.81L195.45 67.7L196.56 67.63L197.68 67.59L198.8 67.6L199.93 67.65ZM278.79 226.51L297.31 157.22L204.7 118.81L168.92 180.94L278.79 226.51ZM365.23 226.51L475.09 180.94L439.32 118.81L346.7 157.22L365.23 226.51Z" id="b2FC4b1nCC"></path></defs><g><g><g><use xlink:href="#b2FC4b1nCC" opacity="1" fill="#000000" fill-opacity="1"></use><g><use xlink:href="#b2FC4b1nCC" opacity="1" fill-opacity="0" stroke="#ffffff" stroke-width="5" stroke-opacity="1"></use></g></g></g></g></svg>