<?xml version="1.0" encoding="UTF-8" standalone="no"?>
<!DOCTYPE svg PUBLIC "-//W3C//DTD SVG 1.1//EN" "http://www.w3.org/Graphics/SVG/1.1/DTD/svg11.dtd">
<svg version="1.1" xmlns="http://www.w3.org/2000/svg" xmlns:xlink="http://www.w3.org/1999/xlink" preserveAspectRatio="xMidYMid meet" viewBox="0 0 640 640" width="640" height="640"><defs><path d="M199.78 75.63L200.89 75.72L202 75.85L203.11 76.02L204.22 76.24L205.32 76.49L206.42 76.79L207.51 77.13L208.6 77.52L209.69 77.94L320.01 123.69L430.33 77.94L431.41 77.52L432.5 77.14L433.59 76.81L434.69 76.52L435.8 76.27L436.91 76.06L438.01 75.89L439.12 75.76L440.23 75.67L441.34 75.62L442.45 75.61L443.55 75.65L444.65 75.72L445.74 75.82L446.83 75.97L447.91 76.16L448.98 76.38L450.04 76.64L451.09 76.93L452.13 77.27L453.16 77.64L454.17 78.04L455.17 78.48L456.15 78.96L457.12 79.47L458.07 80.01L459 80.59L459.91 81.2L460.8 81.85L461.67 82.53L462.51 83.24L463.33 83.99L464.13 84.76L464.9 85.57L465.65 86.41L466.37 87.28L467.05 88.18L467.71 89.12L468.34 90.08L468.93 91.07L552.52 236.33L554.63 240.15L556.57 244.02L558.34 247.92L559.94 251.86L561.38 255.83L562.66 259.82L563.77 263.84L564.72 267.88L565.52 271.93L566.16 276L566.64 280.07L566.96 284.15L567.13 288.22L567.15 292.29L567.03 296.35L566.75 300.4L566.32 304.44L565.75 308.45L565.03 312.44L564.17 316.4L563.17 320.33L562.03 324.23L560.75 328.08L559.34 331.9L557.78 335.66L556.1 339.37L554.28 343.03L552.33 346.63L550.25 350.17L548.04 353.64L545.7 357.04L543.24 360.36L540.66 363.61L537.95 366.77L535.12 369.85L532.18 372.84L529.11 375.73L525.93 378.53L522.63 381.22L519.22 383.81L556.57 482.16L577.9 473.28L579.39 472.7L580.88 472.18L582.38 471.73L583.88 471.34L585.39 471.01L586.9 470.75L588.41 470.55L589.93 470.41L591.44 470.33L592.94 470.31L594.44 470.35L595.94 470.44L597.42 470.6L598.9 470.81L600.36 471.08L601.81 471.4L603.24 471.78L604.66 472.22L606.06 472.7L607.44 473.24L608.8 473.84L610.13 474.48L611.44 475.18L612.72 475.92L613.97 476.72L615.2 477.56L616.39 478.45L617.55 479.39L618.67 480.38L619.76 481.41L620.81 482.49L621.82 483.61L622.79 484.78L623.72 485.99L624.6 487.24L625.44 488.54L626.22 489.88L626.96 491.25L627.65 492.67L628.29 494.13L628.4 494.43L628.51 494.73L628.6 495.03L628.67 495.33L628.74 495.63L628.79 495.93L628.83 496.23L628.86 496.53L628.87 496.84L628.87 497.14L628.86 497.43L628.84 497.73L628.81 498.03L628.77 498.32L628.71 498.61L628.65 498.9L628.57 499.18L628.48 499.47L628.38 499.74L628.27 500.02L628.15 500.29L628.03 500.55L627.89 500.81L627.74 501.06L627.58 501.31L627.41 501.56L627.23 501.79L627.04 502.02L626.85 502.25L626.64 502.46L626.43 502.67L626.21 502.87L625.98 503.07L625.74 503.25L625.49 503.43L625.23 503.59L624.97 503.75L624.7 503.9L624.42 504.04L624.14 504.17L467.39 569.22L467.1 569.34L466.81 569.44L466.51 569.53L466.22 569.61L465.92 569.68L465.62 569.73L465.32 569.77L465.02 569.8L464.72 569.82L464.42 569.82L464.13 569.81L463.83 569.8L463.53 569.77L463.24 569.72L462.95 569.67L462.66 569.61L462.38 569.53L462.09 569.45L461.81 569.35L461.54 569.24L461.27 569.13L461 569L460.74 568.86L460.48 568.71L460.23 568.55L459.99 568.39L459.75 568.21L459.51 568.02L459.29 567.82L459.07 567.62L458.86 567.4L458.66 567.18L458.46 566.95L458.27 566.7L458.1 566.45L457.93 566.19L457.77 565.92L457.62 565.65L457.48 565.36L457.35 565.07L456.77 563.59L456.25 562.1L455.8 560.6L455.41 559.09L455.08 557.58L454.82 556.07L454.62 554.56L454.48 553.05L454.4 551.54L454.38 550.03L454.42 548.53L454.52 547.03L454.67 545.55L454.88 544.07L455.15 542.61L455.48 541.16L455.86 539.72L456.29 538.3L456.78 536.9L457.32 535.52L457.91 534.16L458.55 532.83L459.25 531.52L459.99 530.23L460.79 528.98L461.63 527.75L462.52 526.55L463.46 525.39L464.45 524.26L465.48 523.17L466.56 522.12L467.68 521.1L468.85 520.13L470.06 519.2L471.31 518.31L472.61 517.47L473.95 516.67L475.33 515.93L476.74 515.23L478.2 514.59L499.53 505.71L461.6 405.72L461.28 405.75L460.96 405.79L460.64 405.83L460.33 405.87L460.01 405.91L459.69 405.95L459.37 405.99L459.05 406.03L458.73 406.08L458.42 406.12L458.1 406.16L457.78 406.2L457.46 406.24L457.14 406.29L456.83 406.33L456.51 406.37L456.19 406.41L455.87 406.45L455.56 406.49L455.24 406.53L454.92 406.56L454.61 406.6L454.29 406.64L453.98 406.67L453.66 406.7L453.34 406.73L453.03 406.76L452.71 406.79L452.4 406.82L452.08 406.84L451.77 406.87L451.46 406.89L451.14 406.91L450.83 406.92L450.52 406.94L450.2 406.95L449.89 406.96L449.58 406.97L449.27 406.97L448.96 406.97L445.22 406.91L441.5 406.74L437.8 406.44L434.13 406.03L430.48 405.5L426.86 404.86L423.27 404.11L419.71 403.25L416.19 402.27L412.7 401.19L409.26 400.01L405.86 398.71L402.51 397.31L399.21 395.81L395.96 394.21L392.76 392.5L389.63 390.7L386.55 388.8L383.53 386.8L380.58 384.7L377.7 382.51L374.89 380.23L372.16 377.85L369.5 375.39L366.92 372.83L364.42 370.19L362 367.46L359.67 364.64L357.43 361.75L355.29 358.76L353.24 355.7L351.28 352.55L349.43 349.33L347.68 346.03L346.04 342.65L344.5 339.19L343.08 335.66L341.77 332.06L340.58 328.39L339.5 324.64L320.01 251.87L300.51 324.64L299.44 328.39L298.24 332.06L296.93 335.66L295.51 339.19L293.97 342.65L292.33 346.03L290.58 349.33L288.73 352.55L286.78 355.7L284.72 358.76L282.58 361.75L280.34 364.64L278.01 367.46L275.6 370.19L273.1 372.83L270.52 375.39L267.86 377.85L265.12 380.23L262.31 382.51L259.43 384.7L256.48 386.8L253.47 388.8L250.39 390.7L247.25 392.5L244.06 394.21L240.81 395.81L237.5 397.31L234.15 398.71L230.75 400.01L227.31 401.19L223.83 402.27L220.31 403.25L216.75 404.11L213.16 404.86L209.53 405.5L205.88 406.03L202.21 406.44L198.51 406.74L194.79 406.91L191.06 406.97L190.75 406.97L190.44 406.97L190.12 406.96L189.81 406.95L189.5 406.94L189.18 406.92L188.87 406.91L188.56 406.89L188.24 406.87L187.93 406.84L187.61 406.82L187.3 406.79L186.98 406.76L186.67 406.73L186.35 406.7L186.04 406.67L185.72 406.64L185.41 406.6L185.09 406.56L184.77 406.53L184.46 406.49L184.14 406.45L183.82 406.41L183.5 406.37L183.19 406.33L182.87 406.29L182.55 406.24L182.23 406.2L181.92 406.16L181.6 406.12L181.28 406.08L180.96 406.03L180.64 405.99L180.33 405.95L180.01 405.91L179.69 405.87L179.37 405.83L179.05 405.79L178.73 405.75L178.41 405.72L140.39 505.71L161.72 514.59L163.17 515.23L164.59 515.93L165.97 516.67L167.3 517.47L168.6 518.31L169.85 519.2L171.06 520.13L172.22 521.1L173.35 522.12L174.42 523.17L175.45 524.26L176.44 525.39L177.37 526.55L178.26 527.75L179.1 528.98L179.9 530.23L180.64 531.52L181.33 532.83L181.97 534.16L182.56 535.52L183.1 536.9L183.59 538.3L184.02 539.72L184.4 541.16L184.72 542.61L184.99 544.07L185.2 545.55L185.36 547.03L185.46 548.53L185.5 550.03L185.48 551.54L185.4 553.05L185.26 554.56L185.06 556.07L184.8 557.58L184.48 559.09L184.1 560.6L183.65 562.1L183.14 563.59L182.56 565.07L182.44 565.36L182.3 565.65L182.15 565.92L181.99 566.19L181.82 566.45L181.65 566.7L181.46 566.95L181.27 567.18L181.07 567.4L180.86 567.62L180.64 567.82L180.42 568.02L180.19 568.21L179.95 568.39L179.71 568.55L179.46 568.71L179.21 568.86L178.95 569L178.68 569.13L178.41 569.24L178.14 569.35L177.86 569.45L177.58 569.53L177.3 569.61L177.01 569.67L176.72 569.72L176.43 569.77L176.13 569.8L175.83 569.81L175.53 569.82L175.23 569.82L174.93 569.8L174.63 569.77L174.33 569.73L174.03 569.68L173.73 569.61L173.42 569.53L173.12 569.44L172.82 569.34L172.53 569.22L15.88 504.17L15.59 504.04L15.3 503.9L15.02 503.75L14.76 503.59L14.5 503.42L14.25 503.24L14 503.06L13.77 502.86L13.54 502.66L13.33 502.45L13.12 502.23L12.93 502L12.74 501.77L12.56 501.53L12.39 501.28L12.23 501.03L12.09 500.77L11.95 500.51L11.82 500.24L11.7 499.97L11.6 499.69L11.5 499.41L11.41 499.12L11.34 498.84L11.28 498.55L11.22 498.25L11.18 497.95L11.15 497.66L11.13 497.36L11.13 497.05L11.13 496.75L11.15 496.45L11.18 496.14L11.22 495.84L11.27 495.54L11.34 495.23L11.42 494.93L11.51 494.63L11.61 494.33L11.73 494.03L12.37 492.58L13.06 491.16L13.81 489.78L14.6 488.44L15.44 487.15L16.33 485.89L17.26 484.68L18.23 483.52L19.24 482.39L20.29 481.31L21.38 480.28L22.51 479.3L23.67 478.36L24.86 477.46L26.08 476.62L27.34 475.83L28.62 475.08L29.92 474.38L31.26 473.74L32.61 473.15L33.99 472.61L35.39 472.12L36.8 471.69L38.23 471.31L39.68 470.98L41.14 470.72L42.61 470.5L44.09 470.35L45.59 470.25L47.08 470.21L48.59 470.23L50.1 470.31L51.61 470.45L53.12 470.65L54.63 470.92L56.14 471.24L57.64 471.63L59.14 472.08L60.63 472.6L62.11 473.18L83.44 482.06L120.79 383.71L117.38 381.13L114.09 378.44L110.9 375.66L107.84 372.77L104.89 369.79L102.07 366.71L99.36 363.56L96.78 360.31L94.32 356.99L91.99 353.6L89.78 350.13L87.7 346.6L85.76 343L83.94 339.35L82.25 335.64L80.7 331.87L79.29 328.07L78.01 324.21L76.87 320.32L75.88 316.39L75.02 312.43L74.3 308.44L73.73 304.43L73.31 300.4L73.03 296.35L72.9 292.29L72.92 288.22L73.09 284.14L73.42 280.07L73.9 276L74.53 271.93L75.33 267.88L76.28 263.84L77.39 259.82L78.66 255.83L80.1 251.86L81.7 247.92L83.46 244.02L85.39 240.15L87.49 236.33L171.08 91.07L171.67 90.08L172.3 89.11L172.96 88.18L173.65 87.28L174.37 86.41L175.11 85.57L175.88 84.76L176.68 83.98L177.5 83.23L178.35 82.52L179.22 81.83L180.11 81.19L181.02 80.57L181.95 79.99L182.9 79.44L183.86 78.93L184.85 78.45L185.85 78.01L186.86 77.6L187.89 77.23L188.92 76.9L189.98 76.6L191.04 76.34L192.11 76.11L193.19 75.93L194.27 75.78L195.37 75.67L196.46 75.6L197.57 75.57L198.67 75.58L199.78 75.63ZM277.44 232.08L295.68 163.84L204.47 126.01L169.25 187.2L277.44 232.08ZM362.57 232.08L470.77 187.2L435.54 126.01L344.33 163.84L362.57 232.08Z" id="aaaetawoKC"></path></defs><g><g><g><use xlink:href="#aaaetawoKC" opacity="1" fill="#d74961" fill-opacity="0.94"></use><g><use xlink:href="#aaaetawoKC" opacity="1" fill-opacity="0" stroke="#000000" stroke-width="5" stroke-opacity="1"></use></g></g></g></g></svg>