<?xml version="1.0" encoding="UTF-8" standalone="no"?>
<!-- Created with Inkscape (http://www.inkscape.org/) -->

<svg
   xmlns:osb="http://www.openswatchbook.org/uri/2009/osb"
   xmlns:dc="http://purl.org/dc/elements/1.1/"
   xmlns:cc="http://creativecommons.org/ns#"
   xmlns:rdf="http://www.w3.org/1999/02/22-rdf-syntax-ns#"
   xmlns:svg="http://www.w3.org/2000/svg"
   xmlns="http://www.w3.org/2000/svg"
   xmlns:xlink="http://www.w3.org/1999/xlink"
   xmlns:sodipodi="http://sodipodi.sourceforge.net/DTD/sodipodi-0.dtd"
   xmlns:inkscape="http://www.inkscape.org/namespaces/inkscape"
   width="188mm"
   height="160mm"
   viewBox="0 0 188 160"
   version="1.1"
   id="svg8"
   inkscape:version="0.92.3 (2405546, 2018-03-11)"
   sodipodi:docname="users-solid-16.svg">
  <defs
     id="defs2">
    <linearGradient
       id="linearGradient5627"
       osb:paint="solid">
      <stop
         style="stop-color:#ffffff;stop-opacity:1;"
         offset="0"
         id="stop5625" />
    </linearGradient>
    <linearGradient
       id="linearGradient5532"
       osb:paint="solid">
      <stop
         style="stop-color:#ffffff;stop-opacity:1;"
         offset="0"
         id="stop5530" />
    </linearGradient>
    <linearGradient
       id="linearGradient5370"
       osb:paint="solid">
      <stop
         style="stop-color:#ffffff;stop-opacity:1;"
         offset="0"
         id="stop5368" />
    </linearGradient>
    <pattern
       patternUnits="userSpaceOnUse"
       width="604.72442"
       height="529.13383"
       patternTransform="matrix(0.26458333,0,0,0.26458333,32.307216,44.596519)"
       id="pattern3816">
      <path
         id="path3814"
         d="m 289.01289,258.89428 c 7.34869,7.64723 19.31652,7.64723 26.77021,0 L 430.10745,140.87756 C 463.2815,106.56799 461.39181,49.729823 424.22851,18.10714 391.89435,-9.4852031 343.70806,-4.524781 314.1034,26.064481 L 302.34551,38.155507 290.69255,26.167829 C 261.08789,-4.524781 212.9016,-9.4852031 180.56743,18.10714 c -37.05831,31.622683 -39.05295,88.46085 -5.87894,122.77042 z m 304.44514,80.19341 c -12.38782,-11.05757 -31.7043,-10.33421 -44.72194,0 l -97.00252,76.36981 c -11.86284,9.40415 -26.66521,14.46788 -41.99244,14.46788 H 285.5485 c -9.23837,0 -16.79701,-7.4406 -16.79701,-16.53475 0,-9.09407 7.55864,-16.53471 16.79701,-16.53471 h 82.20023 c 16.69194,0 32.22916,-11.26428 34.9587,-27.489 3.46435,-20.66842 -12.70277,-38.64994 -33.17405,-38.64994 H 201.56364 c -28.34488,0 -55.74494,9.61081 -77.79096,27.179 L 74.956483,396.85592 H 16.796969 C 7.5586356,396.85592 0,404.29656 0,413.39063 v 99.20844 c 0,9.09415 7.5586356,16.53476 16.796969,16.53476 H 391.36941 c 15.22228,0 30.02465,-5.06378 41.99248,-14.46788 L 592.09328,389.62201 c 15.95713,-12.50445 17.21692,-36.47981 1.36475,-50.53432 z"
         inkscape:connector-curvature="0"
         style="fill:#ffffff;stroke-width:1.04158354" />
    </pattern>
    <pattern
       patternUnits="userSpaceOnUse"
       width="604.72442"
       height="529.13383"
       patternTransform="matrix(0.26458333,0,0,0.26458333,32.307216,44.596519)"
       id="pattern3816-6">
      <path
         id="path3814-7"
         d="m 289.01289,258.89428 c 7.34869,7.64723 19.31652,7.64723 26.77021,0 L 430.10745,140.87756 C 463.2815,106.56799 461.39181,49.729823 424.22851,18.10714 391.89435,-9.4852031 343.70806,-4.524781 314.1034,26.064481 L 302.34551,38.155507 290.69255,26.167829 C 261.08789,-4.524781 212.9016,-9.4852031 180.56743,18.10714 c -37.05831,31.622683 -39.05295,88.46085 -5.87894,122.77042 z m 304.44514,80.19341 c -12.38782,-11.05757 -31.7043,-10.33421 -44.72194,0 l -97.00252,76.36981 c -11.86284,9.40415 -26.66521,14.46788 -41.99244,14.46788 H 285.5485 c -9.23837,0 -16.79701,-7.4406 -16.79701,-16.53475 0,-9.09407 7.55864,-16.53471 16.79701,-16.53471 h 82.20023 c 16.69194,0 32.22916,-11.26428 34.9587,-27.489 3.46435,-20.66842 -12.70277,-38.64994 -33.17405,-38.64994 H 201.56364 c -28.34488,0 -55.74494,9.61081 -77.79096,27.179 L 74.956483,396.85592 H 16.796969 C 7.5586356,396.85592 0,404.29656 0,413.39063 v 99.20844 c 0,9.09415 7.5586356,16.53476 16.796969,16.53476 H 391.36941 c 15.22228,0 30.02465,-5.06378 41.99248,-14.46788 L 592.09328,389.62201 c 15.95713,-12.50445 17.21692,-36.47981 1.36475,-50.53432 z"
         inkscape:connector-curvature="0"
         style="fill:#ffffff;stroke-width:1.04158354" />
    </pattern>
    <pattern
       id="pattern3816-62"
       patternTransform="matrix(0.26458333,0,0,0.26458333,32.307216,44.596519)"
       height="529.13383"
       width="604.72442"
       patternUnits="userSpaceOnUse">
      <path
         style="fill:#ffffff;stroke-width:1.04158354"
         inkscape:connector-curvature="0"
         d="m 289.01289,258.89428 c 7.34869,7.64723 19.31652,7.64723 26.77021,0 L 430.10745,140.87756 C 463.2815,106.56799 461.39181,49.729823 424.22851,18.10714 391.89435,-9.4852031 343.70806,-4.524781 314.1034,26.064481 L 302.34551,38.155507 290.69255,26.167829 C 261.08789,-4.524781 212.9016,-9.4852031 180.56743,18.10714 c -37.05831,31.622683 -39.05295,88.46085 -5.87894,122.77042 z m 304.44514,80.19341 c -12.38782,-11.05757 -31.7043,-10.33421 -44.72194,0 l -97.00252,76.36981 c -11.86284,9.40415 -26.66521,14.46788 -41.99244,14.46788 H 285.5485 c -9.23837,0 -16.79701,-7.4406 -16.79701,-16.53475 0,-9.09407 7.55864,-16.53471 16.79701,-16.53471 h 82.20023 c 16.69194,0 32.22916,-11.26428 34.9587,-27.489 3.46435,-20.66842 -12.70277,-38.64994 -33.17405,-38.64994 H 201.56364 c -28.34488,0 -55.74494,9.61081 -77.79096,27.179 L 74.956483,396.85592 H 16.796969 C 7.5586356,396.85592 0,404.29656 0,413.39063 v 99.20844 c 0,9.09415 7.5586356,16.53476 16.796969,16.53476 H 391.36941 c 15.22228,0 30.02465,-5.06378 41.99248,-14.46788 L 592.09328,389.62201 c 15.95713,-12.50445 17.21692,-36.47981 1.36475,-50.53432 z"
         id="path3814-9" />
    </pattern>
    <pattern
       id="pattern3816-6-2"
       patternTransform="matrix(0.26458333,0,0,0.26458333,32.307216,44.596519)"
       height="529.13383"
       width="604.72442"
       patternUnits="userSpaceOnUse">
      <path
         style="fill:#ffffff;stroke-width:1.04158354"
         inkscape:connector-curvature="0"
         d="m 289.01289,258.89428 c 7.34869,7.64723 19.31652,7.64723 26.77021,0 L 430.10745,140.87756 C 463.2815,106.56799 461.39181,49.729823 424.22851,18.10714 391.89435,-9.4852031 343.70806,-4.524781 314.1034,26.064481 L 302.34551,38.155507 290.69255,26.167829 C 261.08789,-4.524781 212.9016,-9.4852031 180.56743,18.10714 c -37.05831,31.622683 -39.05295,88.46085 -5.87894,122.77042 z m 304.44514,80.19341 c -12.38782,-11.05757 -31.7043,-10.33421 -44.72194,0 l -97.00252,76.36981 c -11.86284,9.40415 -26.66521,14.46788 -41.99244,14.46788 H 285.5485 c -9.23837,0 -16.79701,-7.4406 -16.79701,-16.53475 0,-9.09407 7.55864,-16.53471 16.79701,-16.53471 h 82.20023 c 16.69194,0 32.22916,-11.26428 34.9587,-27.489 3.46435,-20.66842 -12.70277,-38.64994 -33.17405,-38.64994 H 201.56364 c -28.34488,0 -55.74494,9.61081 -77.79096,27.179 L 74.956483,396.85592 H 16.796969 C 7.5586356,396.85592 0,404.29656 0,413.39063 v 99.20844 c 0,9.09415 7.5586356,16.53476 16.796969,16.53476 H 391.36941 c 15.22228,0 30.02465,-5.06378 41.99248,-14.46788 L 592.09328,389.62201 c 15.95713,-12.50445 17.21692,-36.47981 1.36475,-50.53432 z"
         id="path3814-7-7" />
    </pattern>
    <pattern
       patternUnits="userSpaceOnUse"
       width="585.8268"
       height="529.13384"
       patternTransform="matrix(0.26458333,0,0,0.26458333,21.800282,27.817825)"
       id="pattern5482">
      <path
         style="fill:#d74961;fill-opacity:1;stroke-width:1.02517974"
         id="path5480"
         d="m 279.98127,258.89423 c 7.11901,7.64734 18.71286,7.64734 25.93361,0 L 416.66664,140.87756 C 448.80396,106.56798 446.97331,49.729823 410.97138,18.107139 379.64768,-9.4852034 332.96722,-4.5247813 304.28768,26.064485 L 292.89721,38.155511 281.60847,26.167825 C 252.92897,-4.5247813 206.24846,-9.4852034 174.92473,18.107139 139.02448,49.729823 137.09217,106.56798 169.2295,140.87756 Z m 294.93124,80.19347 c -12.00072,-11.05761 -30.71358,-10.33421 -43.32439,0 l -93.97118,76.36982 c -11.49219,9.40414 -25.83194,14.46792 -40.68023,14.46792 H 276.62513 c -8.94962,0 -16.27204,-7.44065 -16.27204,-16.53479 0,-9.09408 7.32242,-16.53472 16.27204,-16.53472 h 79.63147 c 16.17033,0 31.22199,-11.26428 33.86623,-27.48899 C 393.4789,348.69851 377.81706,330.717 357.9855,330.717 H 195.26481 c -27.45911,0 -54.00292,9.61081 -75.36001,27.17896 L 72.614101,396.85593 H 16.272064 C 7.3224302,396.85593 0,404.29657 0,413.39065 v 99.20844 c 0,9.09411 7.3224302,16.53475 16.272064,16.53475 H 379.13918 c 14.74651,0 29.0863,-5.06377 40.68019,-14.46792 L 573.59035,389.62199 c 15.4585,-12.50438 16.67891,-36.47977 1.32216,-50.53429 z"
         inkscape:connector-curvature="0" />
    </pattern>
    <pattern
       patternUnits="userSpaceOnUse"
       width="585.8268"
       height="529.13384"
       patternTransform="matrix(0.26458333,0,0,0.26458333,21.800282,27.817825)"
       id="pattern5493">
      <path
         style="fill:#d74961;fill-opacity:1;stroke-width:1.02517974"
         id="path5491"
         d="m 279.98127,258.89423 c 7.11901,7.64734 18.71286,7.64734 25.93361,0 L 416.66664,140.87756 C 448.80396,106.56798 446.97331,49.729823 410.97138,18.107139 379.64768,-9.4852034 332.96722,-4.5247813 304.28768,26.064485 L 292.89721,38.155511 281.60847,26.167825 C 252.92897,-4.5247813 206.24846,-9.4852034 174.92473,18.107139 139.02448,49.729823 137.09217,106.56798 169.2295,140.87756 Z m 294.93124,80.19347 c -12.00072,-11.05761 -30.71358,-10.33421 -43.32439,0 l -93.97118,76.36982 c -11.49219,9.40414 -25.83194,14.46792 -40.68023,14.46792 H 276.62513 c -8.94962,0 -16.27204,-7.44065 -16.27204,-16.53479 0,-9.09408 7.32242,-16.53472 16.27204,-16.53472 h 79.63147 c 16.17033,0 31.22199,-11.26428 33.86623,-27.48899 C 393.4789,348.69851 377.81706,330.717 357.9855,330.717 H 195.26481 c -27.45911,0 -54.00292,9.61081 -75.36001,27.17896 L 72.614101,396.85593 H 16.272064 C 7.3224302,396.85593 0,404.29657 0,413.39065 v 99.20844 c 0,9.09411 7.3224302,16.53475 16.272064,16.53475 H 379.13918 c 14.74651,0 29.0863,-5.06377 40.68019,-14.46792 L 573.59035,389.62199 c 15.4585,-12.50438 16.67891,-36.47977 1.32216,-50.53429 z"
         inkscape:connector-curvature="0" />
    </pattern>
    <pattern
       patternUnits="userSpaceOnUse"
       width="576.03182"
       height="512.02156"
       patternTransform="matrix(0.26458333,0,0,0.26458333,31.707992,28.18048)"
       id="pattern5525">
      <path
         style="fill:#d74961;fill-opacity:1;stroke-width:0.99999994"
         id="path5504"
         d="m 275.29999,250.52155 c 7.00002,7.4 18.40002,7.4 25.50002,0 l 108.89998,-114.2 c 31.59998,-33.2 29.79998,-88.199999 -5.60002,-118.799999 C 373.3,-9.1784493 327.39998,-4.3784493 299.19998,25.221552 l -11.19999,11.7 -11.09998,-11.600001 C 248.7,-4.3784493 202.8,-9.1784493 172,17.521551 c -35.3,30.6 -37.2,85.599999 -5.6,118.799999 z M 565.3,328.12154 c -11.80003,-10.7 -30.20001,-9.99999 -42.6,0 l -92.4,73.9 c -11.29999,9.10001 -25.40001,14.00002 -40.00003,14.00002 H 272.00001 c -8.80003,0 -16.00001,-7.2 -16.00001,-16.00003 0,-8.79999 7.19998,-15.99999 16.00001,-15.99999 h 78.29998 c 15.90002,0 30.7,-10.9 33.30002,-26.60001 C 386.89999,337.42156 371.5,320.02156 351.99998,320.02156 H 192 c -27,0 -53.1,9.29998 -74.1,26.29999 L 71.4,384.02154 H 15.999999 C 7.2,384.02154 0,391.22154 0,400.02153 v 96 c 0,8.80003 7.2,16.00003 15.999999,16.00003 H 372.80001 c 14.49996,0 28.59998,-4.90001 39.99998,-14.00002 l 151.2,-120.99998 c 15.20002,-12.10001 16.40002,-35.3 1.30001,-48.90002 z"
         inkscape:connector-curvature="0" />
    </pattern>
    <pattern
       id="pattern3816-7"
       patternTransform="matrix(0.26458333,0,0,0.26458333,32.307216,44.596519)"
       height="529.13383"
       width="604.72442"
       patternUnits="userSpaceOnUse">
      <path
         style="fill:#ffffff;stroke-width:1.04158354"
         inkscape:connector-curvature="0"
         d="m 289.01289,258.89428 c 7.34869,7.64723 19.31652,7.64723 26.77021,0 L 430.10745,140.87756 C 463.2815,106.56799 461.39181,49.729823 424.22851,18.10714 391.89435,-9.4852031 343.70806,-4.524781 314.1034,26.064481 L 302.34551,38.155507 290.69255,26.167829 C 261.08789,-4.524781 212.9016,-9.4852031 180.56743,18.10714 c -37.05831,31.622683 -39.05295,88.46085 -5.87894,122.77042 z m 304.44514,80.19341 c -12.38782,-11.05757 -31.7043,-10.33421 -44.72194,0 l -97.00252,76.36981 c -11.86284,9.40415 -26.66521,14.46788 -41.99244,14.46788 H 285.5485 c -9.23837,0 -16.79701,-7.4406 -16.79701,-16.53475 0,-9.09407 7.55864,-16.53471 16.79701,-16.53471 h 82.20023 c 16.69194,0 32.22916,-11.26428 34.9587,-27.489 3.46435,-20.66842 -12.70277,-38.64994 -33.17405,-38.64994 H 201.56364 c -28.34488,0 -55.74494,9.61081 -77.79096,27.179 L 74.956483,396.85592 H 16.796969 C 7.5586356,396.85592 0,404.29656 0,413.39063 v 99.20844 c 0,9.09415 7.5586356,16.53476 16.796969,16.53476 H 391.36941 c 15.22228,0 30.02465,-5.06378 41.99248,-14.46788 L 592.09328,389.62201 c 15.95713,-12.50445 17.21692,-36.47981 1.36475,-50.53432 z"
         id="path3814-92" />
    </pattern>
    <pattern
       patternTransform="matrix(0.26458333,0,0,0.26458333,13.009796,29.755094)"
       id="pattern3821"
       xlink:href="#pattern3816-6-0"
       inkscape:collect="always" />
    <pattern
       id="pattern3816-6-0"
       patternTransform="matrix(0.26458333,0,0,0.26458333,32.307216,44.596519)"
       height="529.13383"
       width="604.72442"
       patternUnits="userSpaceOnUse">
      <path
         style="fill:#ffffff;stroke-width:1.04158354"
         inkscape:connector-curvature="0"
         d="m 289.01289,258.89428 c 7.34869,7.64723 19.31652,7.64723 26.77021,0 L 430.10745,140.87756 C 463.2815,106.56799 461.39181,49.729823 424.22851,18.10714 391.89435,-9.4852031 343.70806,-4.524781 314.1034,26.064481 L 302.34551,38.155507 290.69255,26.167829 C 261.08789,-4.524781 212.9016,-9.4852031 180.56743,18.10714 c -37.05831,31.622683 -39.05295,88.46085 -5.87894,122.77042 z m 304.44514,80.19341 c -12.38782,-11.05757 -31.7043,-10.33421 -44.72194,0 l -97.00252,76.36981 c -11.86284,9.40415 -26.66521,14.46788 -41.99244,14.46788 H 285.5485 c -9.23837,0 -16.79701,-7.4406 -16.79701,-16.53475 0,-9.09407 7.55864,-16.53471 16.79701,-16.53471 h 82.20023 c 16.69194,0 32.22916,-11.26428 34.9587,-27.489 3.46435,-20.66842 -12.70277,-38.64994 -33.17405,-38.64994 H 201.56364 c -28.34488,0 -55.74494,9.61081 -77.79096,27.179 L 74.956483,396.85592 H 16.796969 C 7.5586356,396.85592 0,404.29656 0,413.39063 v 99.20844 c 0,9.09415 7.5586356,16.53476 16.796969,16.53476 H 391.36941 c 15.22228,0 30.02465,-5.06378 41.99248,-14.46788 L 592.09328,389.62201 c 15.95713,-12.50445 17.21692,-36.47981 1.36475,-50.53432 z"
         id="path3814-7-2" />
    </pattern>
    <pattern
       patternUnits="userSpaceOnUse"
       width="610.6273"
       height="535.07797"
       patternTransform="matrix(0.26458333,0,0,0.26458333,27.291777,25.180476)"
       id="pattern5599">
      <g
         id="g5597"
         transform="matrix(3.7795276,0,0,3.7795276,-46.396762,-110.02952)">
        <g
           inkscape:label="Layer 2"
           id="g5591">
          <rect
             id="rect5589"
             y="29.755096"
             x="13.009795"
             height="139.99998"
             width="160"
             style="display:inline;fill:url(#pattern3821);stroke:none;stroke-width:1" />
        </g>
        <g
           style="display:inline"
           id="g5595"
           inkscape:label="Layer 1">
          <path
             style="fill:#000000;stroke:#ffffff;stroke-width:1.57599998;stroke-miterlimit:4;stroke-dasharray:none;stroke-opacity:1"
             inkscape:connector-curvature="0"
             d="m 89.531813,98.395807 c 1.944334,2.023333 5.110824,2.023333 7.082944,0 L 126.86308,67.170549 c 8.7773,-9.077741 8.27732,-24.116172 -1.55547,-32.483007 -8.55508,-7.300474 -21.30437,-5.988029 -29.137273,2.10538 l -3.11094,3.199084 -3.083174,-3.17174 c -7.8329,-8.120753 -20.582198,-9.433198 -29.13728,-2.132724 -9.805012,8.366835 -10.332761,23.405266 -1.555469,32.483007 z m 80.551107,21.217843 c -3.27761,-2.92565 -8.38843,-2.73426 -11.83268,0 l -25.66525,20.20618 c -3.13871,2.48818 -7.05517,3.82796 -11.1105,3.82796 H 88.615193 c -2.44432,0 -4.44421,-1.96866 -4.44421,-4.37482 0,-2.40614 1.99989,-4.37481 4.44421,-4.37481 H 110.364 c 4.41641,0 8.5273,-2.98034 9.24949,-7.27313 0.91661,-5.46852 -3.36094,-10.22613 -8.7773,-10.22613 H 66.394191 c -7.499584,0 -14.749183,2.54286 -20.582194,7.19111 L 32.896046,134.89816 H 17.508008 c -2.444309,0 -4.444198,1.96867 -4.444198,4.37481 v 26.2489 c 0,2.40616 1.999889,4.37482 4.444198,4.37482 h 99.105632 c 4.02756,0 7.94402,-1.33979 11.11051,-3.82796 l 41.99768,-33.08454 c 4.22199,-3.30847 4.55531,-9.65195 0.36109,-13.37054 z"
             id="path5593" />
        </g>
      </g>
    </pattern>
    <pattern
       patternUnits="userSpaceOnUse"
       width="576.03182"
       height="512.02155"
       patternTransform="matrix(0.26458333,0,0,0.26458333,-13.838139,44.055481)"
       id="pattern5616">
      <path
         inkscape:connector-curvature="0"
         d="m 275.3,250.52156 c 7,7.39997 18.4,7.39997 25.5,0 L 409.69998,136.32155 c 31.6,-33.2 29.8,-88.199999 -5.60001,-118.799999 -30.79998,-26.7 -76.69996,-21.9 -104.89997,7.699998 L 288,36.921552 276.9,25.321551 c -28.2,-29.7 -74.1,-34.5 -104.9,-7.8 -35.3,30.6 -37.2,85.599999 -5.6,118.799999 z m 290,77.59997 c -11.80002,-10.69999 -30.20001,-9.99998 -42.6,0 l -92.4,73.90001 c -11.3,9.10001 -25.40002,14.00001 -40.00003,14.00001 H 272 c -8.8,0 -16,-7.2 -16,-16.00002 0,-8.79999 7.2,-15.99999 16,-15.99999 h 78.30002 c 15.89998,0 30.69996,-10.90001 33.29998,-26.59997 3.29998,-20.00002 -12.10001,-37.40002 -31.59999,-37.40002 H 192 c -27,0 -53.1,9.29998 -74.1,26.3 L 71.399998,384.02154 H 16.000001 C 7.2,384.02154 0,391.22154 0,400.02153 v 96 c 0,8.80002 7.2,16.00002 16.000001,16.00002 H 372.8 c 14.49997,0 28.59998,-4.9 39.99998,-14.00001 L 564,377.02155 c 15.20001,-12.1 16.40001,-35.29999 1.3,-48.90002 z"
         id="path7896-2"
         style="fill:#d74961;fill-opacity:1;stroke-width:0.99999994" />
    </pattern>
  </defs>
  <sodipodi:namedview
     id="base"
     pagecolor="#ffffff"
     bordercolor="#666666"
     borderopacity="1.0"
     inkscape:pageopacity="0.0"
     inkscape:pageshadow="2"
     inkscape:zoom="0.90509668"
     inkscape:cx="460.11681"
     inkscape:cy="256.80353"
     inkscape:document-units="mm"
     inkscape:current-layer="layer1"
     showgrid="false"
     showguides="true"
     inkscape:pagecheckerboard="true"
     inkscape:window-width="1680"
     inkscape:window-height="982"
     inkscape:window-x="0"
     inkscape:window-y="0"
     inkscape:window-maximized="1" />
  <metadata
     id="metadata5">
    <rdf:RDF>
      <cc:Work
         rdf:about="">
        <dc:format>image/svg+xml</dc:format>
        <dc:type
           rdf:resource="http://purl.org/dc/dcmitype/StillImage" />
        <dc:title></dc:title>
      </cc:Work>
    </rdf:RDF>
  </metadata>
  <g
     inkscape:groupmode="layer"
     id="layer2"
     inkscape:label="Layer 2"
     transform="translate(0,-137)" />
  <g
     inkscape:label="Layer 1"
     inkscape:groupmode="layer"
     id="layer1"
     style="display:inline"
     transform="translate(0,-137)">
    <path
       style="fill:#d74961;fill-opacity:1;stroke:#000000;stroke-width:1.25287998;stroke-miterlimit:4;stroke-dasharray:none;stroke-opacity:1"
       id="path5440"
       d="m 28.625487,207.05033 c 10.300264,0 18.674708,-9.5291 18.674708,-21.24959 0,-11.72047 -8.374444,-21.24957 -18.674708,-21.24957 -10.30027,0 -18.6747123,9.5291 -18.6747123,21.24957 0,11.72049 8.3744423,21.24959 18.6747123,21.24959 z m 130.722923,0 c 10.30035,0 18.67472,-9.5291 18.67472,-21.24959 0,-11.72047 -8.37437,-21.24957 -18.67472,-21.24957 -10.30025,0 -18.67467,9.5291 -18.67467,21.24957 0,11.72049 8.37442,21.24959 18.67467,21.24959 z m 9.33744,10.62481 h -18.67474 c -5.1355,0 -9.775,2.35738 -13.15989,6.17566 11.75939,7.33778 20.1045,20.58548 21.91365,36.32344 h 19.25826 c 5.1647,0 9.3374,-4.74796 9.3374,-10.62475 v -10.62482 c 0,-11.7203 -8.37447,-21.24953 -18.67468,-21.24953 z m -74.698883,0 c 18.061963,0 32.680723,-16.63445 32.680723,-37.18679 0,-20.55233 -14.61876,-37.18678 -32.680723,-37.18678 -18.061948,0 -32.680729,16.63445 -32.680729,37.18678 0,20.55234 14.618781,37.18679 32.680729,37.18679 z m 22.409753,10.62472 h -2.42202 c -6.06916,3.32021 -12.8096,5.31252 -19.987733,5.31252 -7.178114,0 -13.8893,-1.99231 -19.987773,-5.31252 h -2.421872 c -18.558001,0 -33.614482,17.13249 -33.614482,38.24944 v 9.56228 c 0,8.7985 6.273536,15.93711 14.006028,15.93711 h 84.036262 c 7.73242,0 14.00598,-7.13861 14.00598,-15.93711 v -9.56228 c 0,-21.11695 -15.05646,-38.24944 -33.61439,-38.24944 z M 51.122666,223.8508 c -3.384782,-3.81828 -8.024281,-6.17566 -13.159826,-6.17566 H 19.288138 c -10.3002803,0 -18.67472368,9.52923 -18.67472368,21.24953 v 10.62482 c 0,5.87679 4.17263078,10.62475 9.33736038,10.62475 H 29.179888 c 1.838294,-15.73796 10.183557,-28.98566 21.942778,-36.32344 z"
       inkscape:connector-curvature="0" />
  </g>
</svg>
